<svg width="219" height="244" viewBox="0 0 219 244" fill="none" xmlns="http://www.w3.org/2000/svg">
<g opacity="0.2">
<ellipse cx="48.1169" cy="45.7299" rx="48.1169" ry="45.7299" transform="matrix(-0.809729 -0.586804 -0.586804 0.809729 132.798 201.354)" fill="#FA6900"/>
<ellipse cx="48.1169" cy="45.7299" rx="48.1169" ry="45.7299" transform="matrix(-0.809729 -0.586804 -0.586804 0.809729 93.8369 173.119)" fill="#FA6900"/>
<ellipse cx="48.1169" cy="45.7299" rx="48.1169" ry="45.7299" transform="matrix(-0.809729 -0.586804 -0.586804 0.809729 140.153 150.21)" fill="#FA6900"/>
<ellipse cx="14.4085" cy="27.4939" rx="14.4085" ry="27.4939" transform="matrix(-0.686603 -0.727033 -0.740269 0.67231 190.109 136.01)" fill="#FA6900"/>
<ellipse cx="14.4085" cy="27.4939" rx="14.4085" ry="27.4939" transform="matrix(-0.686603 -0.727033 -0.740269 0.67231 180.785 86.1035)" fill="#FA6900"/>
<ellipse cx="14.4025" cy="27.5063" rx="14.4025" ry="27.5063" transform="matrix(0.913026 0.407901 -0.388233 0.921561 51.6008 37.5151)" fill="#FA6900"/>
<ellipse cx="14.4025" cy="27.5063" rx="14.4025" ry="27.5063" transform="matrix(0.913026 0.407901 -0.388233 0.921561 101.73 29.792)" fill="#FA6900"/>
</g>
</svg>
