<svg width="112" height="113" viewBox="0 0 112 113" fill="none" xmlns="http://www.w3.org/2000/svg">
<g opacity="0.8">
<ellipse cx="56.9359" cy="82.8504" rx="19.646" ry="17.649" transform="rotate(-25.1273 56.9359 82.8504)" fill="#FA6900"/>
<ellipse cx="74.7225" cy="74.5081" rx="19.646" ry="17.649" transform="rotate(-25.1273 74.7225 74.5081)" fill="#FA6900"/>
<ellipse cx="58.3343" cy="62.701" rx="19.646" ry="17.649" transform="rotate(-25.1273 58.3343 62.701)" fill="#FA6900"/>
<ellipse cx="5.8721" cy="10.6375" rx="5.8721" ry="10.6375" transform="matrix(0.816529 -0.577304 0.610355 0.792128 8.68604 48.582)" fill="#FA6900"/>
<ellipse cx="5.8721" cy="10.6375" rx="5.8721" ry="10.6375" transform="matrix(0.816529 -0.577304 0.610355 0.792128 16.5767 29.9868)" fill="#FA6900"/>
<ellipse cx="5.86727" cy="10.6482" rx="5.86727" ry="10.6482" transform="matrix(-0.970707 0.240265 0.196145 0.980575 80.1602 15.6113)" fill="#FA6900"/>
<ellipse cx="5.86727" cy="10.6482" rx="5.86727" ry="10.6482" transform="matrix(-0.970707 0.240265 0.196145 0.980575 60.9849 9.39941)" fill="#FA6900"/>
</g>
</svg>
