<svg width="49" height="43" viewBox="0 0 49 43" fill="none" xmlns="http://www.w3.org/2000/svg">
<path d="M24.5 37.4451L34.6056 28.5767C40.1869 23.679 40.1869 15.738 34.6056 10.8402C29.0245 5.94237 19.9755 5.94237 14.3943 10.8402C8.81302 15.738 8.81302 23.679 14.3943 28.5767L24.5 37.4451ZM24.5 42.5126L11.5069 31.1107C4.33103 24.8133 4.33103 14.6036 11.5069 8.3064C18.6828 2.00919 30.3171 2.00919 37.4932 8.3064C44.669 14.6036 44.669 24.8133 37.4932 31.1107L24.5 42.5126ZM24.5 23.2918C26.7552 23.2918 28.5833 21.6876 28.5833 19.7085C28.5833 17.7295 26.7552 16.1252 24.5 16.1252C22.2448 16.1252 20.4167 17.7295 20.4167 19.7085C20.4167 21.6876 22.2448 23.2918 24.5 23.2918ZM24.5 26.8752C19.9897 26.8752 16.3333 23.6665 16.3333 19.7085C16.3333 15.7505 19.9897 12.5418 24.5 12.5418C29.0102 12.5418 32.6667 15.7505 32.6667 19.7085C32.6667 23.6665 29.0102 26.8752 24.5 26.8752Z" fill="black"/>
</svg>
