<svg width="3000" height="3000" viewBox="0 0 3000 3000" fill="none" xmlns="http://www.w3.org/2000/svg">
<path d="M843.758 1414.54C834.355 1407.47 825.748 1399.46 817.44 1391.17C811.571 1384.9 805.951 1378.5 800.584 1371.75C799.333 1370.2 798.147 1368.64 796.897 1367.09C794.984 1361.63 793.031 1356.16 791.448 1350.56C789.767 1344.56 788.325 1338.57 787.077 1332.41C785.612 1322.91 784.684 1313.25 783.627 1303.62C782.494 1293.77 781.225 1284.01 780.556 1274.05C779.901 1264.23 779.03 1254.48 777.839 1244.83C776.637 1235.32 775.804 1225.68 774.409 1216.23C772.901 1205.96 771.008 1195.8 769.435 1185.55C767.939 1175.52 766.595 1165.43 764.907 1155.46C763.253 1145.8 762.2 1135.96 761.451 1126C760.703 1116.05 759.955 1106.09 759.31 1096.12C758.923 1089.99 758.902 1083.83 758.875 1077.6C758.895 1071.44 758.938 1065.27 759.238 1059.01C759.731 1054.66 760.407 1050.3 761.521 1045.95C762.89 1040.66 764.353 1035.4 765.881 1030.12C768.817 1020.04 771.889 1009.99 774.849 999.895C777.733 990.07 780.195 980.246 782.371 970.344C783.454 965.467 784.362 960.561 785.19 955.652C786.152 949.898 786.62 944.101 786.96 938.339C787.348 931.561 787.354 924.786 787.182 918.087C786.994 910.495 785.869 903.157 784.591 895.875C783.414 889.278 782.053 882.693 780.636 876.19C779.289 870.222 777.726 864.329 776.54 858.262C776.147 855.482 775.826 852.642 775.545 849.804C775.416 847.398 775.184 845.008 774.96 842.576C774.687 838.23 774.582 833.85 774.694 829.395C774.819 824.579 775.152 819.731 775.262 814.893C775.381 809.525 775.371 804.193 775.242 798.856C774.995 788.904 774.294 779.016 773.4 769.182C772.477 759.198 770.359 749.646 768.482 740C768.156 738.455 767.846 736.932 767.56 735.39C766.644 729.867 765.888 724.351 765.324 718.781C766.11 719.455 766.945 720.089 767.707 720.784C770.818 724.137 773.557 727.729 775.82 731.786C779.17 739.059 780.97 747.024 782.546 755.106C783.451 761.266 784.117 767.414 784.086 773.827C784.03 780.26 783.647 786.721 783.447 793.168C783.27 799.213 783.133 805.26 782.773 811.318C782.39 817.778 781.863 824.253 781.464 830.691C780.738 843.613 780.661 856.311 781.886 868.836C783.146 881.682 784.814 894.399 786.675 907.061C788.107 916.622 789.634 926.21 790.426 935.954C791.282 946.168 791.595 956.378 790.948 966.862C789.661 979.481 787.807 992.117 786.416 1004.75C784.842 1018.87 783.955 1032.86 783.386 1046.88C782.851 1060.34 782.083 1073.85 782.418 1087.19C782.76 1100.59 784.278 1113.74 785.853 1126.81C787.497 1140.53 790.2 1153.89 792.886 1167.23C795.377 1179.85 798.077 1192.34 801.049 1204.78C804.016 1217.05 807.513 1229.09 810.519 1241.36C813.595 1253.78 816.439 1266.25 819.186 1278.81C824.836 1304.62 830.959 1330.3 838.704 1355.21C846.243 1379.57 855.097 1403.39 866.794 1425.42C868.319 1428.27 869.867 1431.11 871.416 1433.94C861.999 1427.72 852.744 1421.3 843.758 1414.54ZM769.537 1329.23C765.182 1322.93 760.674 1316.79 756.029 1310.73C758.986 1307.79 760.299 1303.45 759.211 1299.75C754.247 1282.82 749.708 1265.68 746.397 1248.04C744.872 1237.37 743.226 1226.69 741.956 1215.95C740.638 1204.76 739.737 1193.39 739.139 1182.02C738.562 1170.85 738.281 1159.6 738.183 1148.33C738.069 1137.64 737.81 1126.97 737.903 1116.25C737.918 1115.29 737.894 1114.34 737.909 1113.38C738.187 1115.94 738.48 1118.53 738.758 1121.09C739.975 1131.6 741.288 1142.13 743.235 1152.42C745.133 1162.26 747.247 1172.02 749.033 1181.92C748.917 1181.21 748.807 1180.57 748.683 1179.9C748.83 1180.65 748.969 1181.45 749.076 1182.19C750.411 1189.88 751.817 1197.62 753.472 1205.21C755.096 1212.77 756.671 1220.36 758.079 1227.99C759.684 1237.2 761.354 1246.39 763.039 1255.6C763.763 1260.09 764.479 1264.63 764.988 1269.2C765.567 1274.3 766.034 1279.47 766.765 1284.51C768.187 1294.22 769.874 1303.82 771.36 1313.51C772.605 1321.83 773.89 1330.15 775.72 1338.27C773.648 1335.24 771.617 1332.21 769.537 1329.23ZM750.879 984.174C755.205 966.451 759.643 948.776 763.731 931.042C763.605 934.392 763.448 937.698 763.219 941.065C761.292 960.217 756.23 979.562 750.799 998.549C748.157 1007.69 745.579 1016.8 743.056 1025.95C745.018 1012 747.507 998.033 750.879 984.174ZM748.648 782.692C744.072 777.272 739.071 772.066 733.578 767.687C728.611 763.778 722.711 760.888 716.448 759.275C708.582 757.248 700.404 757.224 691.885 758.564C690.183 758.823 688.516 759.403 686.849 759.983C684.572 760.789 682.487 761.54 680.287 762.562C678.175 763.546 675.798 765.133 673.911 766.488C672.476 767.504 671.215 768.549 669.92 769.762C666.489 772.957 663.673 776.583 660.997 780.408C660.678 780.881 660.36 781.355 660.033 781.87C659.009 781.567 657.962 781.284 656.913 781.107C656.892 780.915 656.878 780.787 656.833 780.615C656.266 777.7 655.651 774.825 654.554 772.139C653.979 770.731 653.34 769.342 652.701 767.952C652.732 767.508 652.803 767.065 652.818 766.599C653.082 761.598 653.024 756.795 652.56 751.91C652.382 750.138 652.139 748.385 651.92 746.612C651.561 743.664 651.618 740.65 651.818 737.623C652.833 729.557 654.183 721.422 656.512 713.418C657.613 710.411 658.926 707.542 660.479 704.684C665.158 697.279 670.136 690.08 676.068 683.52C678.66 680.988 681.398 678.717 684.357 676.647C685.572 675.918 686.812 675.17 688.036 674.399C690.965 672.668 694.04 671.305 697.136 670.134C699.755 669.323 702.314 668.806 704.918 668.462C710.566 668.176 716.064 668.817 721.528 669.521C726.001 670.454 730.302 671.634 734.432 673.549C737.18 675.144 739.742 676.964 742.074 679.113C742.92 680.087 743.652 681.12 744.352 682.215C744.619 682.971 744.837 683.767 745.016 684.562C745.356 688.188 745.176 691.897 744.933 695.624C742.767 696.966 741.026 699.178 740.481 701.828C739.746 705.405 741.518 708.717 744.531 709.708C744.512 711.853 744.542 713.957 744.588 716.083C744.808 726.161 746.051 736.054 747.465 745.806C748.831 755.003 750.301 764.185 750.954 773.625C751.229 777.865 751.463 782.102 751.674 786.36C750.681 785.124 749.689 783.888 748.648 782.692ZM695.644 1317.52C696.815 1320.04 697.857 1322.6 698.506 1325.41C698.733 1327.14 698.865 1328.85 698.844 1330.61C698.607 1331.96 698.315 1333.28 697.934 1334.64C695.439 1341.6 692.016 1348.28 688.386 1354.88C682.494 1364.37 675.861 1373.37 669.315 1382.42C662.735 1391.54 655.867 1400.31 648.328 1408.62C645.063 1411.89 641.706 1414.92 637.974 1417.52C633.973 1419.97 629.908 1421.94 625.673 1423.57C622.47 1424.48 619.398 1425.14 616.219 1425.54C614.521 1425.59 612.919 1425.56 611.271 1425.46C610.653 1424.26 610.01 1423.09 609.391 1421.89C607.755 1418.6 606.166 1415.28 604.657 1411.96C602.818 1407.9 601.163 1403.72 599.485 1399.56C596.243 1391.47 594.184 1382.71 592.228 1374.03C591.377 1368.98 590.494 1363.88 590.155 1358.68C589.978 1355.34 589.768 1352.06 589.743 1348.66C589.744 1345.62 589.905 1342.59 590.074 1339.52C590.494 1335.72 591.009 1331.94 591.628 1328.15C592.274 1324.12 593.415 1320.14 594.515 1316.15C595.519 1313.23 596.569 1310.37 597.732 1307.45C599.288 1303.4 601.432 1299.42 603.63 1295.58C604.75 1293.85 605.908 1292.22 607.194 1290.56C609.559 1288.25 611.993 1286.1 614.656 1284.1C616.934 1282.7 619.226 1281.42 621.588 1280.3C624.552 1278.89 627.519 1277.76 630.527 1276.63C638.654 1273.86 646.832 1271.34 655.084 1270.22C658.203 1270.11 661.269 1270.26 664.286 1270.55C670.048 1278.51 675.762 1286.51 681.29 1294.63C686.327 1302.11 691.292 1309.54 695.644 1317.52ZM1345.23 2929.38C1342.99 2909.95 1341.08 2890.38 1340.62 2870.52C1340.36 2860.37 1340.15 2850.21 1340.29 2839.98C1340.38 2829.47 1340.62 2818.97 1340.69 2808.48C1341.02 2767.86 1340.11 2727.46 1340.75 2686.8C1341.07 2666.57 1341.79 2646.32 1342.31 2626.1C1342.83 2605.12 1343.71 2584.11 1344.71 2563.07C1345.69 2543.07 1346.25 2523.13 1347.27 2503.12C1348.36 2481.87 1349.78 2460.59 1351.42 2439.3C1351.78 2434.71 1352.16 2430.1 1352.55 2425.49L1352.54 2425.63L1352.57 2425.4C1352.63 2424.68 1352.66 2423.96 1352.73 2423.24C1352.7 2423.69 1352.68 2424.09 1352.64 2424.54C1356.23 2384.33 1360.77 2344.01 1362.45 2303.99C1364.06 2264.86 1360.68 2226.72 1360.63 2187.92C1360.57 2166.99 1361.07 2145.99 1361.59 2124.96C1362.07 2105.61 1362.99 2086.18 1363.55 2066.84C1363.82 2057.4 1363.7 2048 1363.71 2038.64C1363.72 2028.34 1363.69 2018.1 1363.3 2007.88C1363 1998.61 1362.09 1989.41 1361.2 1980.28C1360.29 1970.8 1359.44 1961.31 1358.73 1951.79C1357.76 1939.19 1356.86 1926.57 1356.01 1913.94C1355.61 1907.78 1355.2 1901.66 1355.04 1895.47C1354.9 1890.11 1355.08 1884.73 1355.46 1879.29C1356.5 1870.22 1357.9 1861.14 1358.78 1852.07C1359.59 1843.06 1359.68 1834.18 1359.51 1825.32C1359.15 1805.16 1357.2 1785.11 1352.02 1766.51C1349.54 1757.54 1345.73 1749.29 1341.73 1741.15C1337.6 1732.68 1332.66 1724.63 1327.62 1716.81C1317.36 1700.88 1306.7 1685.36 1296.07 1669.78C1293.51 1666.01 1290.92 1662.25 1288.31 1658.52C1288.22 1658.39 1288.14 1658.28 1288.05 1658.14C1285.46 1654.5 1282.52 1651.17 1279.66 1647.79C1276.42 1643.98 1272.74 1640.58 1269.19 1637.1C1265.78 1633.75 1262.21 1630.57 1258.67 1627.36C1246.11 1615.85 1233.39 1604.49 1221.08 1592.71C1214.8 1586.75 1208.77 1580.51 1202.01 1575.12C1194.92 1569.41 1187.63 1563.91 1180.07 1558.83C1164.34 1548.22 1147 1539.84 1129.34 1532.46C1113.45 1525.85 1096.99 1520.4 1080.59 1514.91C1073.01 1512.37 1065.47 1509.72 1057.77 1507.49C1049.37 1505.03 1040.84 1502.78 1032.29 1500.66C1024.11 1498.62 1015.91 1496.66 1007.63 1494.87C999.107 1493 990.42 1491.44 982.137 1488.99C973.815 1486.54 965.577 1483.88 957.495 1480.84C951.743 1478.7 946.162 1476.31 940.607 1473.8C940.307 1471.64 939.591 1469.55 938.353 1467.75C936.297 1464.74 934.023 1461.91 931.813 1459.07C929.672 1456.38 927.532 1453.69 925.561 1450.85C921.369 1444.84 917.283 1438.7 913.343 1432.44C906.271 1421.16 899.724 1409.49 893.595 1397.54C872.479 1353.07 858.427 1304.55 846.778 1255.3C844.232 1244.6 841.525 1234 838.714 1223.42C835.897 1212.77 832.622 1202.3 829.652 1191.71C826.864 1181.7 824.301 1171.57 821.915 1161.37C819.485 1150.89 817.015 1140.41 814.899 1129.78C811.695 1110.93 809.144 1091.65 808.711 1072.05C808.458 1061.55 808.693 1050.92 808.76 1040.32C808.855 1030.47 809.133 1020.61 809.827 1010.68C811.106 997.611 812.871 984.526 814.244 971.486C815 964.193 815.395 956.99 815.383 949.811C815.36 943.268 814.77 936.847 814.156 930.446C812.957 917.794 810.806 905.373 809.198 892.851C807.663 880.757 806.41 868.463 805.684 856.152C804.897 843.159 805.324 830.031 805.944 816.743C806.529 804.218 806.289 791.887 806.186 779.478C806.113 773.082 805.839 766.888 805.101 760.693C804.26 753.538 802.404 746.527 800.271 739.884C797.789 732.206 794.734 724.861 790.261 718.554C788.842 716.555 787.318 714.678 785.609 712.919C782.417 709.668 779.047 706.599 775.351 703.939C772.413 701.804 769.18 700.123 765.947 698.441C765.512 698.208 765.045 698.037 764.625 697.826C764.698 696.301 764.755 694.753 764.851 693.207C764.974 691.046 765.152 688.909 765.195 686.745C765.429 680.617 764.728 674.637 761.891 669.661C761.418 668.831 760.881 668.02 760.335 667.251C754.256 658.681 744.114 653.933 734.028 651.164C729.155 649.83 723.936 649.202 718.828 648.621C716.33 648.354 713.822 648.13 711.265 648.052C704.973 647.755 698.627 648.794 692.28 650.917C681.293 654.583 670.232 660.858 661.524 669.475C654.891 676.023 649.059 683.267 643.809 691.005C641.874 693.867 640.089 696.777 638.296 699.73C636.183 703.263 634.741 707.145 633.452 710.971C631.954 715.425 630.645 719.93 629.497 724.442C627.377 732.796 625.743 741.236 625.72 749.561C625.731 749.901 625.781 750.244 625.792 750.584C623.14 752.923 621.223 756.082 620.54 759.406C619.771 763.15 620.649 766.017 622.284 768.919C625.199 774.005 628.106 779.133 630.851 784.361C631.821 786.488 632.807 788.637 633.753 790.784C630.609 793.95 627.55 797.289 624.8 800.791C618.989 808.227 613.893 816.292 609.353 824.489C607.195 828.338 605.251 832.218 603.616 836.262C601.998 840.221 600.57 844.232 599.127 848.221C596.05 856.635 592.822 865 589.46 873.338C582.103 891.619 576.795 910.399 571.473 929.052C566.803 945.314 561.538 961.442 556.248 977.59C551.69 991.351 546.966 1005.04 541.948 1018.7C539.098 1026.4 536.192 1034.08 533.302 1041.78C530.429 1049.4 527.636 1057.02 524.518 1064.56C518.222 1079.83 511.942 1095.13 505.845 1110.41C499.615 1126.04 494.306 1141.89 489.077 1157.75C489.219 1157.35 489.336 1156.97 489.478 1156.58C483.612 1174.35 478.304 1192.16 474.483 1210.16C472.476 1219.43 471.583 1228.86 470.51 1238.09C469.521 1246.52 468.716 1254.94 467.831 1263.35C465.846 1282.2 463.149 1301.19 462.185 1319.96C461.286 1337.63 460.954 1355.29 461.302 1372.77C461.512 1382.5 461.923 1392.15 462.453 1401.79C462.967 1411.42 463.906 1420.93 464.717 1430.49C465.451 1439.34 465.818 1448.21 465.945 1457.18C466.085 1465.79 465.538 1474.51 464.872 1483.23C464.02 1492.56 463.08 1501.93 462.332 1511.24C461.622 1520.17 460.76 1529.15 460.745 1538.03C460.626 1555.34 461.578 1572.41 463.354 1589.3C464.288 1598.16 465.325 1607 466.314 1615.88C467.249 1624.15 467.928 1632.48 468.863 1640.75C469.763 1648.69 470.92 1656.56 472.076 1664.43C473.425 1673.71 475.174 1682.91 478.08 1691.56C480.969 1700.2 484.799 1708.36 489.421 1715.91C491.331 1719.04 493.387 1722.04 495.645 1724.85C498.716 1728.69 502.225 1732.06 505.733 1735.43C517.595 1746.78 533.114 1753.74 547.717 1761.14C562.881 1768.84 578.143 1776.36 593.595 1783.54C608.683 1790.54 624.281 1796.52 639.649 1802.94C646.134 1805.62 652.454 1808.62 658.733 1811.72C672.109 1819.12 684.986 1827.29 698.157 1835.01C712.198 1843.19 727.007 1850.17 741.521 1857.61C762.391 1868.85 782.926 1880.65 804.188 1891.26C825.618 1901.93 846.834 1912.96 868.182 1923.73C871.896 1925.71 875.554 1927.78 879.154 1929.92C883.473 1932.48 887.449 1935.54 891.473 1938.55C898.506 1943.85 904.96 1949.91 911.245 1956.12C915.062 1960.14 918.782 1964.24 922.339 1968.55C926.475 1973.57 930.019 1979.22 933.646 1984.66C940.673 1995.27 947.274 2006.09 953.172 2017.5C956.612 2024.63 959.796 2031.83 962.504 2039.39C965.577 2048.01 967.911 2057 970.318 2065.93C972.539 2074 974.408 2082.22 976.148 2090.48C977.978 2099.08 979.897 2107.65 981.574 2116.31C984.128 2131.47 985.754 2146.84 986.666 2162.45C987.59 2178.3 988.371 2194.16 989.168 2210.04C989.481 2217.32 989.898 2224.58 989.995 2231.93C990.142 2239.63 990.129 2247.32 990.493 2254.94C990.869 2263.28 991.229 2271.6 991.421 2279.96C991.604 2287.87 991.253 2295.84 990.773 2303.85C989.958 2312.41 988.839 2320.98 988.232 2329.51C987.598 2338.66 987.132 2347.77 986.771 2356.86C986.39 2365.66 986.073 2374.44 985.589 2383.25C985.133 2392.22 984.495 2401.19 983.792 2410.18C981.406 2435.09 979.688 2460.08 975.794 2485.08C973.811 2497.86 971.478 2510.58 968.649 2523.36C965.52 2537.51 962.192 2551.64 959.054 2565.83C958.177 2569.81 960.766 2573.35 964.494 2573.5C968.357 2573.69 972.115 2570.46 973.001 2566.45C977.391 2546.75 982.689 2527.14 987.223 2507.43C989.237 2498.71 990.836 2489.95 992.157 2481.18C993.565 2471.99 994.957 2462.77 995.942 2453.58C998.014 2434.3 999.982 2415.05 1001.67 2395.78C1003.29 2377.54 1003.86 2359.41 1004.98 2341.24C1005.24 2336.73 1005.63 2332.22 1006 2327.69C1007.05 2318.44 1008.35 2309.2 1009.12 2299.97C1009.88 2290.9 1010.22 2281.93 1010.09 2272.96C1009.97 2264.37 1009.57 2255.84 1009.23 2247.33C1008.9 2239.26 1009.14 2231.14 1008.97 2223.04C1008.78 2214.68 1008.43 2206.32 1008.21 2197.98C1008.01 2190.05 1007.91 2182.14 1007.75 2174.21C1007.59 2165.52 1007.7 2156.77 1007.55 2148.1C1007.34 2139.23 1006.84 2130.5 1005.97 2121.77C1004.79 2109.86 1002.76 2098.26 1000.64 2086.64C997.848 2070.5 994.902 2054.41 990.65 2038.81C988.498 2030.89 986.258 2023.01 983.23 2015.54C979.794 2007.12 975.755 1999.09 971.603 1991.12C967.908 1983.96 963.585 1977.21 959.269 1970.53C954.765 1963.58 950.092 1956.78 945.177 1950.17C940.161 1943.38 934.136 1937.38 928.246 1931.41C922.41 1925.57 916.304 1920.16 909.964 1914.91C901.405 1907.84 891.756 1902.16 881.836 1897.02C871.906 1891.92 861.944 1886.89 852.048 1881.72C852.19 1881.82 852.372 1881.91 852.538 1881.98C837.369 1874.11 822.092 1866.46 806.857 1858.72C794.029 1851.97 781.396 1844.96 768.634 1838.09C754.268 1830.32 739.41 1823.38 724.709 1816.16C718.646 1812.99 712.632 1809.78 706.725 1806.33C699.239 1801.97 691.777 1797.58 684.234 1793.29C669.117 1784.68 652.916 1778.01 636.55 1771.65C605.927 1759.74 576.61 1745.38 547.662 1730.4C547.172 1730.14 546.657 1729.91 546.167 1729.65C540.849 1726.76 535.46 1723.83 530.608 1720.25C527.907 1718.23 525.278 1716.15 522.697 1714.04C521.045 1712.68 519.563 1711.19 518.08 1709.7C515.798 1706.91 513.643 1704.09 511.554 1701.15C509.8 1698.73 508.369 1696.01 506.954 1693.31C505.192 1689.36 503.486 1685.43 502.19 1681.27C500.903 1677.07 499.887 1672.82 499.032 1668.46C497.286 1655.64 496.021 1642.62 494.827 1629.65C494.239 1623.12 493.763 1616.54 492.983 1610.07C492.164 1603 491.281 1595.95 490.398 1588.9C488.725 1575.52 487.314 1562.14 486.361 1548.58C485.406 1535.14 486.049 1521.45 487.067 1507.69C488.708 1489.92 491.028 1472.08 491.783 1454.43C492.555 1437.17 490.64 1420.47 489.461 1403.62C488.238 1386.48 487.568 1369.2 487.545 1351.81C487.531 1334.86 487.701 1317.89 488.934 1300.75C489.969 1289.94 491.227 1279.13 492.381 1268.33C493.606 1257.09 494.743 1245.88 496.128 1234.65C497.469 1223.62 499.178 1212.58 502.017 1201.6C504.747 1190.96 507.93 1180.36 511.305 1169.82C516.873 1153.19 522.649 1136.54 529.52 1120.23C536.896 1102.74 544.699 1085.41 552.106 1067.96C559.248 1051.12 565.781 1034.01 571.82 1016.85C577.991 999.452 583.478 981.954 588.989 964.435C592.571 952.88 596.024 941.361 599.137 929.74C602.46 917.387 605.879 905.059 609.688 892.791C611.826 886.69 614.196 880.642 616.374 874.543C618.977 867.359 621.325 860.142 623.682 852.883C625.248 848.199 626.893 843.519 628.904 838.919C630.751 834.631 633.224 830.521 635.634 826.429C639.094 820.942 642.782 815.615 646.817 810.559C644.01 818.052 641.434 825.598 639.096 833.155C635.758 843.915 633.096 854.813 630.617 865.699C628.047 876.835 625.627 888.02 624.131 899.207C622.58 910.859 621.485 922.446 620.469 934.038C618.419 956.923 614.909 979.867 611.136 1002.82C609.65 1011.9 608.076 1021.03 605.611 1030.09C603.139 1039.08 600.5 1048.01 597.678 1056.94C593.963 1067.88 589.867 1078.71 585.325 1089.45C580.577 1100.72 575.225 1111.79 570.492 1123.08C560.728 1146.32 554.117 1170.26 549.84 1194.3C547.36 1208.22 545.159 1222.16 543.276 1236.11C541.26 1250.9 539.868 1265.6 538.626 1280.34C536.529 1303.65 533.961 1327 531.943 1350.31C529.931 1373.79 529.756 1397.04 528.255 1420.48C527.72 1428.96 527.105 1437.42 526.49 1445.89C525.504 1456.65 524.517 1467.42 523.531 1478.18C522.458 1489.86 521.6 1501.56 519.921 1513.25C518.175 1525.17 516.444 1537.11 514.18 1549C511.975 1560.71 509.85 1572.42 506.881 1584.02C505.332 1590.09 503.777 1596.09 502.198 1602.11C501.255 1605.72 503.842 1608.88 507.123 1609.06C510.692 1609.2 513.799 1606.31 514.782 1602.7C518.05 1590.33 521.391 1577.89 523.975 1565.42C526.603 1552.73 529.215 1540.03 531.722 1527.34C536.202 1504.57 538.682 1481.74 541.408 1459C543.226 1443.6 544.965 1428.2 546.297 1412.82C547.692 1396.93 548.825 1381.06 550.013 1365.2C552.106 1342.11 555.332 1318.98 557.992 1295.87C559.351 1284.27 560.327 1272.68 561.765 1261.09C563.243 1249.01 565.063 1236.92 567.083 1224.85C568.961 1213.66 571.277 1202.49 573.618 1191.3C575.882 1180.38 578.901 1169.61 582.279 1158.85C584.158 1153.52 586.117 1148.2 588.147 1142.92C590.376 1137.16 593.145 1131.51 595.755 1125.86C600.808 1114.97 606.671 1104.35 611.788 1093.44C617.103 1082.16 621.514 1070.58 625.512 1058.95C627.862 1052.12 630.045 1045.21 632.165 1038.33C633.795 1033.14 635.307 1027.83 636.459 1022.62C638.334 1014.08 639.683 1005.57 641.056 997.029C642.254 989.439 643.492 981.851 644.492 974.252C645.556 966.04 646.613 957.87 647.549 949.694C648.491 941.2 649.161 932.757 649.84 924.272C650.614 915.324 651.556 906.341 652.904 897.335C654.17 888.538 656.057 879.748 658.055 871.007C660.081 862.033 662.202 853.084 664.537 844.167C666.603 836.172 669.107 828.198 671.682 820.269C674.686 811.426 677.904 802.615 682.47 794.292C683.753 792.355 685.106 790.465 686.578 788.687C687.298 788.02 688.049 787.397 688.832 786.818C690.175 786.053 691.526 785.352 692.93 784.781C695.556 784.034 698.162 783.583 700.782 783.26C703.9 783.152 706.909 783.379 709.924 783.776C712.369 784.401 714.691 785.233 716.97 786.275C723.294 790.035 728.624 795.108 733.825 800.323C738.553 805.686 742.767 811.301 746.38 817.588C748.066 821.321 749.568 825.067 750.858 829.057C751.078 829.747 751.259 830.435 751.479 831.125C751.367 834.115 751.288 837.042 751.304 839.995C751.364 844.204 751.768 848.301 752.252 852.402C752.944 858.424 754.045 864.317 755.274 870.173C754.199 879.511 752.876 888.879 750.956 898.219C748.427 910.228 745.588 922.18 742.621 934.168C739.793 945.483 736.741 956.808 733.618 968.088C732.002 973.896 730.266 979.697 728.874 985.494C727.389 991.541 726.033 997.552 724.708 1003.61C714.535 1050.75 712.772 1097.86 713.086 1144.16C713.256 1166.32 713.442 1188.39 715.635 1210.1C716.758 1221.07 718.322 1231.85 720.069 1242.61C721.201 1249.53 722.446 1256.38 724.051 1263.15C725.335 1268.54 727.284 1273.73 729.058 1278.89C729.363 1279.76 729.692 1280.6 729.982 1281.44C724.999 1276.53 719.854 1271.83 714.304 1267.53C707.352 1262.13 699.918 1257.02 691.701 1253.47C688.63 1252.18 685.573 1250.91 682.337 1249.93C677.871 1248.57 672.995 1247.94 668.218 1247.6C663.226 1247.24 657.94 1247.82 652.819 1248.58C647.936 1249.35 643.086 1251.03 638.263 1252.59C628.863 1255.67 619.549 1259.41 610.707 1264.48C602.654 1269.13 595.189 1275.32 589.541 1283.04C587.046 1286.47 585.056 1290.28 583.052 1293.97C581.722 1296.33 580.623 1298.74 579.46 1301.17C577.25 1305.76 575.544 1310.74 574.089 1315.47C572.448 1320.81 571.064 1326.07 569.982 1331.44C567.96 1341.67 567.354 1352.04 567.696 1362.02C568.068 1372.53 569.97 1382.65 572.032 1392.66C572.876 1396.67 574.136 1400.62 575.413 1404.48C577.048 1409.34 578.869 1414.08 580.785 1418.84C582.379 1422.82 584.342 1426.68 586.24 1430.55C588.501 1435.2 590.874 1439.79 593.207 1444.38C597.605 1452.92 602.221 1461.27 606.886 1469.58C611.519 1477.85 616.298 1486 621.004 1494.21C625.269 1501.63 629.606 1508.99 634.161 1516.17C639.454 1524.56 644.853 1532.82 650.34 1541.04C652.441 1544.22 654.581 1547.4 656.779 1550.5C659.343 1554.17 661.856 1557.98 664.71 1561.41C671.044 1569.04 677.857 1576.09 685.196 1582.64C691.922 1588.65 698.875 1594.43 705.87 1600.12C719.362 1611.16 733.171 1621.84 745.819 1633.86C747.35 1635.31 748.88 1636.76 750.396 1638.19C761.566 1649.87 772.056 1662.22 782.417 1674.71C793.175 1687.7 803.044 1701.51 812.937 1715.29C822.697 1728.94 832.593 1742.51 841.787 1756.67C846.889 1764.51 851.959 1772.42 857.101 1780.27C859.84 1784.45 862.554 1788.66 865.18 1792.9C867.208 1796.14 868.881 1799.64 870.652 1803.06C870.852 1803.45 871.06 1803.91 871.277 1804.32C871.717 1805.21 872.141 1806.08 872.581 1806.97C873.712 1808.51 875.224 1809.67 877.063 1810.31C879.75 1811.22 882.903 1810.94 885.748 1809.53C891.629 1806.64 895.4 1799.15 893.356 1793.44C889.801 1783.55 885.441 1774.15 880.203 1765.3C875.083 1756.56 869.681 1748.02 864.254 1739.5C854.825 1724.64 844.468 1710.47 834.417 1696.08C828.838 1688.11 823.244 1680.12 817.553 1672.2C812.314 1664.92 806.735 1657.93 801.035 1651.03C789.073 1636.56 776.458 1622.52 762.779 1609.74C739.652 1588.16 713.072 1570.66 690.579 1548.33C682.688 1539.38 675.445 1529.82 668.445 1520.06C661.202 1510.01 654.121 1499.76 647.629 1489.09C637.758 1472.95 628.185 1456.63 619.04 1439.99C621.379 1439.76 623.704 1439.41 626.064 1438.88C630.463 1437.92 635.034 1436.22 639.238 1434.06C645.82 1430.7 651.789 1426.31 657.223 1421C664.342 1414.05 670.518 1406.21 676.528 1398.29C679.166 1394.85 681.567 1391.28 684.078 1387.77C686.801 1384.01 689.564 1380.26 692.255 1376.45C698.014 1368.29 703.6 1360 707.889 1351.07C710.576 1345.52 712.937 1340 714.673 1334.2C715.859 1330.29 715.98 1326.28 715.931 1322.41C715.876 1318.86 715.072 1315.34 713.935 1312.16C712.387 1307.86 710.163 1303.91 707.994 1299.99C706.459 1297.28 704.812 1294.63 703.132 1292.05C705.977 1294.54 708.799 1297.05 711.538 1299.67C717.214 1305.6 722.671 1311.72 727.941 1318.07C733.789 1325.12 739.039 1332.74 744.201 1340.39C749.239 1347.77 754.019 1355.32 758.961 1362.78C763.793 1370.08 768.956 1377.14 774.176 1384.12C779.381 1391.07 784.748 1397.83 790.349 1404.42C793.737 1408.38 797.408 1412.04 801.031 1415.74C804.09 1418.85 807.148 1421.97 810.393 1424.86C817.113 1430.81 823.865 1436.69 831.105 1441.96C838.81 1447.61 846.661 1453.04 854.561 1458.42C868.824 1468.17 883.699 1476.98 898.68 1485.67C907.344 1490.67 915.967 1495.66 924.934 1500.16C932.976 1504.17 941.421 1507.4 949.923 1510.54C958.449 1513.66 967.102 1516.36 975.985 1518.63C984.549 1520.88 993.363 1522.51 1002.04 1524.42C1019.12 1528.27 1036.16 1532.53 1052.63 1537.89C1069.04 1543.23 1085.4 1548.66 1101.63 1554.39C1117.86 1560.13 1133.47 1567.15 1148.68 1574.81C1153.52 1577.46 1158.28 1580.22 1162.91 1583.15C1168.55 1586.71 1173.97 1590.56 1179.42 1594.38C1189.43 1601.44 1198.4 1609.8 1207.5 1617.96C1216.35 1625.88 1225.35 1633.63 1234.29 1641.51C1242.99 1649.22 1251.82 1656.84 1260.16 1665.01C1263.05 1668.22 1266 1671.4 1268.61 1674.86C1271.59 1678.84 1274.53 1682.83 1277.44 1686.87C1283.05 1694.57 1288.6 1702.29 1294.12 1710.07C1305.03 1725.55 1316.08 1740.96 1325.1 1757.91C1327.54 1763.15 1329.79 1768.44 1331.66 1774C1333.34 1778.93 1334.47 1784.03 1335.43 1789.24C1337.89 1808.18 1338.29 1827.84 1336.82 1847.59C1335.88 1856.47 1334.34 1865.36 1333.32 1874.23C1332.73 1879.15 1332.24 1884.06 1332.04 1888.93C1331.84 1894.34 1331.91 1899.65 1332.05 1904.95C1332.32 1913.8 1333.2 1922.52 1333.81 1931.3C1334.48 1940.55 1335.25 1949.83 1336.06 1959.06C1337.82 1978.48 1340.54 1997.61 1341.77 2017.19C1342.34 2026.41 1342.66 2035.71 1342.93 2044.99C1343.23 2054.75 1343.56 2064.49 1343.53 2074.32C1343.42 2094.03 1342.74 2113.79 1342.5 2133.54C1342.19 2153.51 1341.55 2173.55 1341.8 2193.44C1342.06 2213.89 1342.79 2234.23 1343.36 2254.62C1343.91 2273.96 1343.93 2293.41 1343.25 2312.96C1342.5 2334.04 1340.86 2355.23 1339.1 2376.4L1339.1 2376.3C1335.69 2416.85 1332.04 2457.46 1330.15 2497.88C1329.19 2518.67 1328.61 2539.39 1327.86 2560.15C1327.14 2580.02 1326.2 2599.92 1325.89 2619.72C1325.52 2639.99 1324.9 2660.27 1324.79 2680.46C1324.69 2700.89 1324.95 2721.23 1325.36 2741.55C1325.76 2762.26 1326.43 2782.96 1326.71 2803.74C1326.97 2823.76 1326.71 2843.91 1327.63 2863.81C1328.66 2886.76 1330.78 2909.39 1333.42 2931.95C1333.8 2935.13 1336.17 2937.38 1339.56 2936.63C1342.61 2935.99 1345.6 2932.56 1345.23 2929.38Z" fill="#16A4C3"/>
<path d="M2156.24 1407.64C2165.65 1400.57 2174.25 1392.56 2182.56 1384.26C2188.43 1378 2194.05 1371.59 2199.42 1364.84C2200.67 1363.29 2201.85 1361.73 2203.1 1360.19C2205.02 1354.72 2206.97 1349.26 2208.55 1343.66C2210.23 1337.65 2211.68 1331.66 2212.92 1325.5C2214.39 1316 2215.32 1306.34 2216.37 1296.71C2217.51 1286.87 2218.78 1277.1 2219.44 1267.15C2220.1 1257.33 2220.97 1247.58 2222.16 1237.92C2223.36 1228.41 2224.2 1218.77 2225.59 1209.32C2227.1 1199.05 2228.99 1188.9 2230.57 1178.65C2232.06 1168.62 2233.41 1158.53 2235.09 1148.55C2236.75 1138.89 2237.8 1129.05 2238.55 1119.1C2239.3 1109.14 2240.05 1099.19 2240.69 1089.22C2241.08 1083.08 2241.1 1076.92 2241.13 1070.7C2241.11 1064.54 2241.06 1058.36 2240.76 1052.11C2240.27 1047.76 2239.59 1043.39 2238.48 1039.05C2237.11 1033.76 2235.65 1028.5 2234.12 1023.22C2231.18 1013.14 2228.11 1003.09 2225.15 992.989C2222.27 983.163 2219.81 973.339 2217.63 963.438C2216.55 958.561 2215.64 953.655 2214.81 948.745C2213.85 942.992 2213.38 937.194 2213.04 931.433C2212.65 924.654 2212.65 917.879 2212.82 911.18C2213.01 903.589 2214.13 896.25 2215.41 888.969C2216.59 882.371 2217.95 875.786 2219.36 869.284C2220.71 863.316 2222.27 857.422 2223.46 851.355C2223.85 848.575 2224.17 845.735 2224.46 842.897C2224.58 840.491 2224.82 838.101 2225.04 835.669C2225.31 831.323 2225.42 826.943 2225.31 822.488C2225.18 817.672 2224.85 812.824 2224.74 807.987C2224.62 802.618 2224.63 797.287 2224.76 791.949C2225.01 781.997 2225.71 772.109 2226.6 762.275C2227.52 752.291 2229.64 742.74 2231.52 733.093C2231.84 731.549 2232.15 730.026 2232.44 728.483C2233.36 722.96 2234.11 717.445 2234.68 711.874C2233.89 712.549 2233.06 713.183 2232.29 713.877C2229.18 717.231 2226.44 720.822 2224.18 724.879C2220.83 732.153 2219.03 740.118 2217.45 748.199C2216.55 754.359 2215.88 760.508 2215.91 766.921C2215.97 773.354 2216.35 779.814 2216.55 786.262C2216.73 792.307 2216.87 798.354 2217.23 804.411C2217.61 810.871 2218.14 817.346 2218.54 823.784C2219.26 836.706 2219.34 849.404 2218.11 861.93C2216.85 874.776 2215.19 887.492 2213.33 900.154C2211.89 909.716 2210.37 919.303 2209.57 929.047C2208.72 939.262 2208.41 949.472 2209.05 959.955C2210.34 972.575 2212.19 985.21 2213.58 997.846C2215.16 1011.96 2216.05 1025.96 2216.61 1039.97C2217.15 1053.43 2217.92 1066.95 2217.58 1080.28C2217.24 1093.68 2215.72 1106.83 2214.15 1119.91C2212.5 1133.62 2209.8 1146.98 2207.11 1160.32C2204.62 1172.95 2201.92 1185.44 2198.95 1197.87C2195.98 1210.14 2192.49 1222.18 2189.48 1234.45C2186.41 1246.87 2183.56 1259.35 2180.81 1271.9C2175.16 1297.72 2169.04 1323.39 2161.3 1348.31C2153.76 1372.66 2144.9 1396.49 2133.21 1418.51C2131.68 1421.37 2130.13 1424.2 2128.58 1427.04C2138 1420.81 2147.26 1414.39 2156.24 1407.64ZM2230.46 1322.32C2234.82 1316.02 2239.33 1309.88 2243.97 1303.82C2241.01 1300.88 2239.7 1296.55 2240.79 1292.84C2245.75 1275.91 2250.29 1258.77 2253.6 1241.13C2255.13 1230.46 2256.77 1219.79 2258.04 1209.04C2259.36 1197.85 2260.26 1186.49 2260.86 1175.12C2261.44 1163.94 2261.72 1152.69 2261.82 1141.43C2261.93 1130.74 2262.19 1120.06 2262.1 1109.34C2262.08 1108.39 2262.11 1107.43 2262.09 1106.47C2261.81 1109.04 2261.52 1111.62 2261.24 1114.18C2260.03 1124.69 2258.71 1135.22 2256.77 1145.51C2254.87 1155.35 2252.75 1165.11 2250.97 1175.01C2251.08 1174.3 2251.19 1173.66 2251.32 1173C2251.17 1173.75 2251.03 1174.54 2250.92 1175.29C2249.59 1182.98 2248.18 1190.71 2246.53 1198.31C2244.9 1205.86 2243.33 1213.45 2241.92 1221.08C2240.32 1230.29 2238.65 1239.48 2236.96 1248.69C2236.24 1253.19 2235.52 1257.72 2235.01 1262.29C2234.43 1267.4 2233.97 1272.56 2233.24 1277.61C2231.81 1287.32 2230.13 1296.91 2228.64 1306.6C2227.4 1314.92 2226.11 1323.25 2224.28 1331.36C2226.35 1328.33 2228.38 1325.31 2230.46 1322.32ZM2249.12 977.267C2244.8 959.544 2240.36 941.87 2236.27 924.136C2236.4 927.486 2236.55 930.792 2236.78 934.158C2238.71 953.311 2243.77 972.655 2249.2 991.643C2251.84 1000.78 2254.42 1009.9 2256.94 1019.04C2254.98 1005.09 2252.49 991.127 2249.12 977.267ZM2251.35 775.785C2255.93 770.366 2260.93 765.16 2266.42 760.78C2271.39 756.872 2277.29 753.981 2283.55 752.369C2291.42 750.341 2299.6 750.317 2308.12 751.657C2309.82 751.917 2311.48 752.497 2313.15 753.076C2315.43 753.882 2317.51 754.634 2319.71 755.656C2321.83 756.639 2324.2 758.227 2326.09 759.582C2327.52 760.597 2328.79 761.643 2330.08 762.856C2333.51 766.05 2336.33 769.677 2339 773.501C2339.32 773.975 2339.64 774.448 2339.97 774.964C2340.99 774.661 2342.04 774.378 2343.09 774.201C2343.11 774.009 2343.12 773.881 2343.17 773.709C2343.73 770.793 2344.35 767.918 2345.45 765.233C2346.02 763.825 2346.66 762.435 2347.3 761.046C2347.27 760.601 2347.2 760.159 2347.18 759.692C2346.92 754.692 2346.98 749.889 2347.44 745.003C2347.62 743.232 2347.86 741.479 2348.08 739.705C2348.44 736.757 2348.38 733.744 2348.18 730.716C2347.17 722.65 2345.82 714.515 2343.49 706.511C2342.39 703.505 2341.07 700.635 2339.52 697.777C2334.84 690.373 2329.86 683.173 2323.93 676.614C2321.34 674.081 2318.6 671.81 2315.64 669.74C2314.43 669.012 2313.19 668.263 2311.96 667.493C2309.04 665.762 2305.96 664.398 2302.86 663.227C2300.25 662.416 2297.69 661.9 2295.08 661.555C2289.43 661.269 2283.94 661.911 2278.47 662.614C2274 663.547 2269.7 664.727 2265.57 666.642C2262.82 668.237 2260.26 670.057 2257.93 672.206C2257.08 673.181 2256.35 674.214 2255.65 675.309C2255.38 676.065 2255.16 676.861 2254.99 677.655C2254.64 681.282 2254.82 684.99 2255.07 688.717C2257.23 690.059 2258.97 692.271 2259.52 694.922C2260.25 698.498 2258.48 701.81 2255.47 702.802C2255.49 704.946 2255.46 707.05 2255.41 709.176C2255.19 719.254 2253.95 729.147 2252.54 738.899C2251.17 748.097 2249.7 757.278 2249.05 766.718C2248.77 770.958 2248.54 775.196 2248.33 779.454C2249.32 778.218 2250.31 776.981 2251.35 775.785ZM2304.36 1310.62C2303.19 1313.14 2302.14 1315.69 2301.49 1318.5C2301.27 1320.24 2301.14 1321.94 2301.16 1323.7C2301.39 1325.05 2301.69 1326.38 2302.07 1327.74C2304.56 1334.69 2307.98 1341.37 2311.61 1347.98C2317.51 1357.47 2324.14 1366.46 2330.69 1375.52C2337.27 1384.64 2344.13 1393.4 2351.67 1401.71C2354.94 1404.98 2358.29 1408.01 2362.03 1410.62C2366.03 1413.06 2370.09 1415.04 2374.33 1416.66C2377.53 1417.57 2380.6 1418.24 2383.78 1418.64C2385.48 1418.69 2387.08 1418.65 2388.73 1418.55C2389.35 1417.36 2389.99 1416.18 2390.61 1414.98C2392.25 1411.7 2393.83 1408.37 2395.34 1405.05C2397.18 1400.99 2398.84 1396.82 2400.52 1392.66C2403.76 1384.56 2405.82 1375.8 2407.77 1367.13C2408.62 1362.07 2409.51 1356.98 2409.85 1351.78C2410.02 1348.43 2410.23 1345.15 2410.26 1341.75C2410.26 1338.72 2410.1 1335.69 2409.93 1332.62C2409.51 1328.81 2408.99 1325.03 2408.37 1321.24C2407.73 1317.21 2406.59 1313.23 2405.49 1309.25C2404.48 1306.32 2403.43 1303.46 2402.27 1300.54C2400.71 1296.5 2398.57 1292.52 2396.37 1288.67C2395.25 1286.94 2394.09 1285.32 2392.81 1283.66C2390.44 1281.35 2388.01 1279.19 2385.34 1277.19C2383.07 1275.79 2380.77 1274.52 2378.41 1273.4C2375.45 1271.99 2372.48 1270.85 2369.47 1269.72C2361.35 1266.96 2353.17 1264.43 2344.92 1263.31C2341.8 1263.21 2338.73 1263.35 2335.72 1263.64C2329.95 1271.6 2324.24 1279.6 2318.71 1287.72C2313.67 1295.2 2308.71 1302.64 2304.36 1310.62ZM1654.77 2922.47C1657.01 2903.04 1658.92 2883.47 1659.38 2863.61C1659.64 2853.47 1659.85 2843.31 1659.71 2833.07C1659.63 2822.56 1659.38 2812.06 1659.31 2801.57C1658.98 2760.96 1659.89 2720.56 1659.25 2679.89C1658.93 2659.67 1658.21 2639.42 1657.69 2619.2C1657.18 2598.22 1656.29 2577.21 1655.29 2556.16C1654.31 2536.16 1653.75 2516.22 1652.73 2496.22C1651.64 2474.97 1650.22 2453.69 1648.58 2432.4C1648.22 2427.8 1647.84 2423.19 1647.45 2418.58L1647.46 2418.73L1647.43 2418.5C1647.37 2417.78 1647.34 2417.06 1647.27 2416.34C1647.3 2416.78 1647.32 2417.18 1647.36 2417.63C1643.77 2377.42 1639.23 2337.11 1637.56 2297.09C1635.94 2257.95 1639.32 2219.82 1639.37 2181.01C1639.43 2160.08 1638.93 2139.08 1638.41 2118.06C1637.93 2098.71 1637.01 2079.27 1636.45 2059.93C1636.18 2050.49 1636.3 2041.1 1636.29 2031.73C1636.28 2021.43 1636.31 2011.19 1636.7 2000.98C1637 1991.7 1637.91 1982.5 1638.81 1973.37C1639.71 1963.9 1640.56 1954.41 1641.27 1944.88C1642.24 1932.28 1643.15 1919.66 1643.99 1907.03C1644.39 1900.87 1644.8 1894.76 1644.96 1888.57C1645.1 1883.21 1644.92 1877.82 1644.54 1872.38C1643.51 1863.32 1642.1 1854.23 1641.22 1845.16C1640.41 1836.15 1640.32 1827.28 1640.49 1818.41C1640.85 1798.26 1642.8 1778.2 1647.98 1759.6C1650.46 1750.63 1654.27 1742.38 1658.27 1734.25C1662.4 1725.77 1667.34 1717.72 1672.38 1709.9C1682.64 1693.97 1693.3 1678.46 1703.93 1662.87C1706.49 1659.1 1709.08 1655.35 1711.69 1651.61C1711.78 1651.48 1711.86 1651.37 1711.95 1651.24C1714.54 1647.59 1717.48 1644.27 1720.34 1640.88C1723.58 1637.08 1727.26 1633.67 1730.81 1630.19C1734.22 1626.85 1737.79 1623.66 1741.33 1620.46C1753.89 1608.95 1766.61 1597.58 1778.92 1585.81C1785.2 1579.84 1791.23 1573.61 1797.99 1568.21C1805.08 1562.5 1812.37 1557 1819.93 1551.93C1835.66 1541.31 1853 1532.93 1870.66 1525.56C1886.55 1518.94 1903.01 1513.5 1919.41 1508.01C1926.99 1505.46 1934.53 1502.81 1942.23 1500.58C1950.63 1498.12 1959.16 1495.88 1967.71 1493.75C1975.89 1491.71 1984.09 1489.75 1992.37 1487.96C2000.89 1486.09 2009.58 1484.53 2017.86 1482.08C2026.19 1479.63 2034.42 1476.97 2042.51 1473.93C2048.26 1471.79 2053.84 1469.41 2059.39 1466.89C2059.69 1464.73 2060.41 1462.64 2061.65 1460.84C2063.7 1457.83 2065.98 1455.01 2068.19 1452.16C2070.33 1449.47 2072.47 1446.78 2074.44 1443.95C2078.63 1437.93 2082.72 1431.79 2086.66 1425.53C2093.73 1414.26 2100.28 1402.58 2106.41 1390.64C2127.52 1346.16 2141.57 1297.65 2153.22 1248.39C2155.77 1237.69 2158.48 1227.1 2161.29 1216.51C2164.1 1205.87 2167.38 1195.39 2170.35 1184.8C2173.14 1174.79 2175.7 1164.67 2178.09 1154.47C2180.52 1143.99 2182.99 1133.5 2185.1 1122.87C2188.31 1104.03 2190.86 1084.75 2191.29 1065.14C2191.54 1054.64 2191.31 1044.01 2191.24 1033.41C2191.15 1023.56 2190.87 1013.7 2190.17 1003.77C2188.9 990.705 2187.13 977.619 2185.76 964.579C2185 957.287 2184.61 950.084 2184.62 942.904C2184.64 936.361 2185.23 929.94 2185.84 923.539C2187.04 910.887 2189.19 898.467 2190.8 885.944C2192.34 873.85 2193.59 861.557 2194.32 849.246C2195.1 836.252 2194.68 823.125 2194.06 809.836C2193.47 797.311 2193.71 784.981 2193.81 772.572C2193.89 766.175 2194.16 759.981 2194.9 753.787C2195.74 746.632 2197.6 739.62 2199.73 732.978C2202.21 725.299 2205.27 717.955 2209.74 711.648C2211.16 709.648 2212.68 707.771 2214.39 706.012C2217.58 702.761 2220.95 699.692 2224.65 697.033C2227.59 694.898 2230.82 693.216 2234.05 691.534C2234.49 691.302 2234.96 691.131 2235.38 690.92C2235.3 689.394 2235.25 687.846 2235.15 686.3C2235.03 684.14 2234.85 682.003 2234.81 679.838C2234.57 673.711 2235.27 667.731 2238.11 662.754C2238.58 661.925 2239.12 661.114 2239.67 660.344C2245.74 651.774 2255.89 647.027 2265.97 644.258C2270.85 642.923 2276.06 642.295 2281.17 641.714C2283.67 641.448 2286.18 641.224 2288.74 641.145C2295.03 640.849 2301.37 641.888 2307.72 644.01C2318.71 647.676 2329.77 653.952 2338.48 662.568C2345.11 669.116 2350.94 676.36 2356.19 684.099C2358.13 686.96 2359.91 689.871 2361.7 692.824C2363.82 696.356 2365.26 700.239 2366.55 704.065C2368.05 708.518 2369.36 713.023 2370.5 717.536C2372.62 725.889 2374.26 734.33 2374.28 742.655C2374.27 742.995 2374.22 743.337 2374.21 743.677C2376.86 746.016 2378.78 749.176 2379.46 752.499C2380.23 756.244 2379.35 759.11 2377.72 762.012C2374.8 767.099 2371.89 772.227 2369.15 777.454C2368.18 779.581 2367.19 781.73 2366.25 783.878C2369.39 787.043 2372.45 790.382 2375.2 793.885C2381.01 801.321 2386.11 809.385 2390.65 817.582C2392.81 821.431 2394.75 825.312 2396.38 829.355C2398 833.314 2399.43 837.325 2400.87 841.314C2403.95 849.729 2407.18 858.094 2410.54 866.431C2417.9 884.712 2423.21 903.493 2428.53 922.146C2433.2 938.408 2438.46 954.536 2443.75 970.684C2448.31 984.445 2453.03 998.134 2458.05 1011.79C2460.9 1019.49 2463.81 1027.17 2466.7 1034.87C2469.57 1042.49 2472.36 1050.11 2475.48 1057.65C2481.78 1072.92 2488.06 1088.22 2494.16 1103.5C2500.39 1119.14 2505.69 1134.99 2510.92 1150.84C2510.78 1150.44 2510.66 1150.07 2510.52 1149.67C2516.39 1167.45 2521.7 1185.25 2525.52 1203.25C2527.52 1212.52 2528.42 1221.96 2529.49 1231.19C2530.48 1239.61 2531.28 1248.03 2532.17 1256.44C2534.15 1275.29 2536.85 1294.28 2537.82 1313.06C2538.71 1330.73 2539.05 1348.38 2538.7 1365.86C2538.49 1375.6 2538.08 1385.24 2537.55 1394.89C2537.03 1404.51 2536.09 1414.03 2535.28 1423.58C2534.55 1432.43 2534.18 1441.31 2534.06 1450.27C2533.92 1458.88 2534.46 1467.61 2535.13 1476.33C2535.98 1485.65 2536.92 1495.02 2537.67 1504.33C2538.38 1513.26 2539.24 1522.25 2539.26 1531.12C2539.38 1548.43 2538.42 1565.51 2536.65 1582.39C2535.71 1591.25 2534.68 1600.09 2533.69 1608.98C2532.75 1617.24 2532.07 1625.58 2531.14 1633.84C2530.24 1641.78 2529.08 1649.66 2527.92 1657.53C2526.58 1666.81 2524.83 1676 2521.92 1684.66C2519.03 1693.29 2515.2 1701.46 2510.58 1709C2508.67 1712.13 2506.61 1715.14 2504.36 1717.94C2501.28 1721.78 2497.78 1725.15 2494.27 1728.53C2482.41 1739.87 2466.89 1746.83 2452.28 1754.23C2437.12 1761.93 2421.86 1769.45 2406.41 1776.63C2391.32 1783.63 2375.72 1789.61 2360.35 1796.03C2353.87 1798.72 2347.55 1801.71 2341.27 1804.81C2327.89 1812.22 2315.01 1820.38 2301.84 1828.1C2287.8 1836.28 2272.99 1843.27 2258.48 1850.7C2237.61 1861.95 2217.08 1873.75 2195.81 1884.35C2174.38 1895.02 2153.17 1906.05 2131.82 1916.83C2128.1 1918.81 2124.45 1920.87 2120.85 1923.02C2116.53 1925.58 2112.55 1928.63 2108.53 1931.65C2101.49 1936.95 2095.04 1943.01 2088.76 1949.21C2084.94 1953.23 2081.22 1957.34 2077.66 1961.65C2073.53 1966.66 2069.98 1972.31 2066.35 1977.75C2059.33 1988.36 2052.73 1999.19 2046.83 2010.59C2043.39 2017.72 2040.2 2024.92 2037.5 2032.49C2034.42 2041.11 2032.09 2050.09 2029.68 2059.02C2027.46 2067.09 2025.59 2075.31 2023.85 2083.57C2022.02 2092.18 2020.1 2100.74 2018.43 2109.4C2015.87 2124.56 2014.25 2139.93 2013.33 2155.54C2012.41 2171.39 2011.63 2187.25 2010.83 2203.13C2010.52 2210.41 2010.1 2217.67 2010.01 2225.03C2009.86 2232.72 2009.87 2240.41 2009.51 2248.03C2009.13 2256.38 2008.77 2264.7 2008.58 2273.05C2008.4 2280.96 2008.75 2288.93 2009.23 2296.94C2010.04 2305.5 2011.16 2314.07 2011.77 2322.61C2012.4 2331.75 2012.87 2340.86 2013.23 2349.96C2013.61 2358.75 2013.93 2367.53 2014.41 2376.35C2014.87 2385.31 2015.51 2394.28 2016.21 2403.28C2018.59 2428.19 2020.31 2453.17 2024.21 2478.18C2026.19 2490.95 2028.52 2503.67 2031.35 2516.45C2034.48 2530.6 2037.81 2544.74 2040.95 2558.93C2041.82 2562.9 2039.23 2566.44 2035.51 2566.6C2031.64 2566.78 2027.89 2563.56 2027 2559.54C2022.61 2539.85 2017.31 2520.24 2012.78 2500.53C2010.76 2491.81 2009.16 2483.05 2007.84 2474.27C2006.44 2465.08 2005.04 2455.86 2004.06 2446.67C2001.99 2427.4 2000.02 2408.14 1998.33 2388.87C1996.71 2370.64 1996.14 2352.5 1995.02 2334.33C1994.76 2329.82 1994.37 2325.32 1994 2320.79C1992.95 2311.53 1991.65 2302.29 1990.88 2293.07C1990.12 2283.99 1989.78 2275.02 1989.91 2266.05C1990.04 2257.47 1990.43 2248.93 1990.77 2240.42C1991.11 2232.35 1990.86 2224.23 1991.03 2216.13C1991.22 2207.77 1991.57 2199.41 1991.79 2191.07C1991.99 2183.14 1992.09 2175.24 1992.25 2167.31C1992.41 2158.61 1992.3 2149.86 1992.45 2141.19C1992.66 2132.32 1993.16 2123.59 1994.04 2114.86C1995.21 2102.96 1997.24 2091.35 1999.36 2079.74C2002.15 2063.59 2005.1 2047.5 2009.35 2031.9C2011.5 2023.98 2013.74 2016.1 2016.77 2008.63C2020.21 2000.21 2024.25 1992.18 2028.4 1984.21C2032.09 1977.05 2036.42 1970.3 2040.73 1963.62C2045.24 1956.68 2049.91 1949.87 2054.82 1943.27C2059.84 1936.47 2065.86 1930.47 2071.75 1924.5C2077.59 1918.66 2083.7 1913.25 2090.04 1908.01C2098.6 1900.93 2108.24 1895.25 2118.16 1890.11C2128.09 1885.01 2138.06 1879.98 2147.95 1874.82C2147.81 1874.91 2147.63 1875 2147.46 1875.07C2162.63 1867.2 2177.91 1859.56 2193.14 1851.81C2205.97 1845.07 2218.6 1838.06 2231.37 1831.19C2245.73 1823.42 2260.59 1816.47 2275.29 1809.26C2281.35 1806.08 2287.37 1802.87 2293.28 1799.43C2300.76 1795.06 2308.22 1790.67 2315.77 1786.39C2330.88 1777.77 2347.08 1771.1 2363.45 1764.75C2394.07 1752.83 2423.39 1738.47 2452.34 1723.49C2452.83 1723.24 2453.34 1723 2453.83 1722.74C2459.15 1719.86 2464.54 1716.93 2469.39 1713.34C2472.09 1711.33 2474.72 1709.25 2477.3 1707.13C2478.96 1705.78 2480.44 1704.28 2481.92 1702.79C2484.2 1700.01 2486.36 1697.19 2488.45 1694.24C2490.2 1691.82 2491.63 1689.1 2493.05 1686.4C2494.81 1682.45 2496.51 1678.53 2497.81 1674.37C2499.1 1670.16 2500.11 1665.91 2500.97 1661.56C2502.71 1648.73 2503.98 1635.72 2505.17 1622.75C2505.76 1616.22 2506.24 1609.63 2507.02 1603.16C2507.84 1596.09 2508.72 1589.04 2509.6 1581.99C2511.28 1568.61 2512.69 1555.23 2513.64 1541.68C2514.6 1528.23 2513.95 1514.54 2512.93 1500.78C2511.29 1483.02 2508.97 1465.18 2508.22 1447.52C2507.45 1430.27 2509.36 1413.57 2510.54 1396.71C2511.76 1379.58 2512.43 1362.3 2512.46 1344.9C2512.47 1327.95 2512.3 1310.99 2511.07 1293.84C2510.03 1283.04 2508.77 1272.22 2507.62 1261.42C2506.39 1250.18 2505.26 1238.98 2503.87 1227.74C2502.53 1216.72 2500.82 1205.67 2497.98 1194.69C2495.25 1184.05 2492.07 1173.46 2488.7 1162.91C2483.13 1146.29 2477.35 1129.63 2470.48 1113.32C2463.11 1095.83 2455.3 1078.51 2447.89 1061.06C2440.75 1044.21 2434.22 1027.1 2428.18 1009.95C2422.01 992.545 2416.52 975.047 2411.01 957.529C2407.43 945.973 2403.98 934.454 2400.86 922.834C2397.54 910.48 2394.12 898.152 2390.31 885.885C2388.17 879.784 2385.81 873.736 2383.63 867.636C2381.02 860.452 2378.68 853.235 2376.32 845.976C2374.75 841.292 2373.11 836.612 2371.1 832.013C2369.25 827.724 2366.78 823.614 2364.37 819.522C2360.91 814.036 2357.22 808.708 2353.18 803.652C2355.99 811.145 2358.57 818.691 2360.9 826.249C2364.24 837.009 2366.9 847.907 2369.38 858.792C2371.95 869.928 2374.37 881.114 2375.87 892.301C2377.42 903.952 2378.52 915.54 2379.53 927.132C2381.58 950.017 2385.09 972.96 2388.86 995.913C2390.35 1005 2391.92 1014.12 2394.39 1023.18C2396.86 1032.17 2399.5 1041.1 2402.32 1050.04C2406.04 1060.97 2410.13 1071.8 2414.68 1082.54C2419.42 1093.81 2424.78 1104.88 2429.51 1116.17C2439.27 1139.41 2445.88 1163.36 2450.16 1187.39C2452.64 1201.31 2454.84 1215.25 2456.72 1229.2C2458.74 1243.99 2460.13 1258.69 2461.37 1273.44C2463.47 1296.74 2466.04 1320.09 2468.06 1343.4C2470.07 1366.89 2470.24 1390.14 2471.75 1413.58C2472.28 1422.05 2472.9 1430.52 2473.51 1438.98C2474.5 1449.75 2475.48 1460.51 2476.47 1471.28C2477.54 1482.95 2478.4 1494.66 2480.08 1506.34C2481.83 1518.26 2483.56 1530.2 2485.82 1542.1C2488.03 1553.8 2490.15 1565.51 2493.12 1577.12C2494.67 1583.18 2496.22 1589.18 2497.8 1595.2C2498.75 1598.81 2496.16 1601.97 2492.88 1602.15C2489.31 1602.3 2486.2 1599.41 2485.22 1595.8C2481.95 1583.42 2478.61 1570.98 2476.03 1558.51C2473.4 1545.83 2470.79 1533.12 2468.28 1520.43C2463.8 1497.66 2461.32 1474.84 2458.59 1452.09C2456.77 1436.69 2455.04 1421.29 2453.7 1405.91C2452.31 1390.03 2451.18 1374.15 2449.99 1358.3C2447.89 1335.2 2444.67 1312.07 2442.01 1288.96C2440.65 1277.37 2439.67 1265.77 2438.24 1254.18C2436.76 1242.1 2434.94 1230.01 2432.92 1217.94C2431.04 1206.75 2428.72 1195.58 2426.38 1184.39C2424.12 1173.47 2421.1 1162.7 2417.72 1151.94C2415.84 1146.61 2413.88 1141.29 2411.85 1136.01C2409.62 1130.25 2406.86 1124.61 2404.25 1118.95C2399.19 1108.06 2393.33 1097.44 2388.21 1086.53C2382.9 1075.25 2378.49 1063.67 2374.49 1052.05C2372.14 1045.21 2369.96 1038.31 2367.84 1031.42C2366.21 1026.23 2364.69 1020.93 2363.54 1015.71C2361.67 1007.18 2360.32 998.66 2358.94 990.123C2357.75 982.533 2356.51 974.945 2355.51 967.346C2354.44 959.133 2353.39 950.963 2352.45 942.788C2351.51 934.294 2350.84 925.85 2350.16 917.365C2349.39 908.417 2348.44 899.434 2347.1 890.428C2345.83 881.631 2343.94 872.842 2341.95 864.1C2339.92 855.126 2337.8 846.178 2335.46 837.261C2333.4 829.266 2330.89 821.291 2328.32 813.363C2325.32 804.52 2322.1 795.708 2317.53 787.385C2316.25 785.449 2314.89 783.559 2313.42 781.78C2312.7 781.113 2311.95 780.49 2311.17 779.911C2309.83 779.146 2308.47 778.445 2307.07 777.874C2304.44 777.127 2301.84 776.676 2299.22 776.354C2296.1 776.246 2293.09 776.473 2290.08 776.87C2287.63 777.495 2285.31 778.326 2283.03 779.368C2276.71 783.129 2271.38 788.201 2266.18 793.417C2261.45 798.78 2257.23 804.394 2253.62 810.682C2251.93 814.415 2250.43 818.16 2249.14 822.15C2248.92 822.84 2248.74 823.528 2248.52 824.219C2248.63 827.208 2248.71 830.135 2248.7 833.089C2248.64 837.297 2248.23 841.394 2247.75 845.495C2247.06 851.517 2245.96 857.41 2244.73 863.267C2245.8 872.604 2247.12 881.972 2249.04 891.312C2251.57 903.321 2254.41 915.273 2257.38 927.261C2260.21 938.576 2263.26 949.902 2266.38 961.182C2268 966.989 2269.73 972.791 2271.13 978.587C2272.61 984.635 2273.97 990.645 2275.29 996.7C2285.47 1043.84 2287.23 1090.95 2286.91 1137.25C2286.74 1159.41 2286.56 1181.49 2284.37 1203.19C2283.24 1214.16 2281.68 1224.94 2279.93 1235.71C2278.8 1242.62 2277.55 1249.48 2275.95 1256.24C2274.67 1261.64 2272.72 1266.82 2270.94 1271.98C2270.64 1272.85 2270.31 1273.69 2270.02 1274.53C2275 1269.63 2280.15 1264.92 2285.7 1260.63C2292.65 1255.22 2300.08 1250.11 2308.3 1246.56C2311.37 1245.27 2314.43 1244 2317.66 1243.02C2322.13 1241.66 2327.01 1241.03 2331.78 1240.7C2336.77 1240.33 2342.06 1240.91 2347.18 1241.67C2352.06 1242.44 2356.91 1244.12 2361.74 1245.68C2371.14 1248.76 2380.45 1252.51 2389.29 1257.57C2397.35 1262.22 2404.81 1268.41 2410.46 1276.13C2412.95 1279.56 2414.94 1283.38 2416.95 1287.06C2418.28 1289.42 2419.38 1291.83 2420.54 1294.27C2422.75 1298.85 2424.46 1303.83 2425.91 1308.56C2427.55 1313.9 2428.94 1319.17 2430.02 1324.53C2432.04 1334.76 2432.65 1345.14 2432.31 1355.12C2431.93 1365.63 2430.03 1375.74 2427.97 1385.76C2427.12 1389.77 2425.86 1393.71 2424.59 1397.58C2422.95 1402.43 2421.13 1407.17 2419.22 1411.93C2417.62 1415.92 2415.66 1419.77 2413.76 1423.64C2411.5 1428.29 2409.13 1432.88 2406.79 1437.48C2402.4 1446.01 2397.78 1454.36 2393.11 1462.67C2388.48 1470.94 2383.7 1479.09 2379 1487.3C2374.73 1494.72 2370.39 1502.08 2365.84 1509.27C2360.55 1517.65 2355.15 1525.91 2349.66 1534.14C2347.56 1537.31 2345.42 1540.49 2343.22 1543.59C2340.66 1547.26 2338.14 1551.08 2335.29 1554.5C2328.96 1562.13 2322.14 1569.18 2314.8 1575.73C2308.08 1581.74 2301.13 1587.53 2294.13 1593.21C2280.64 1604.25 2266.83 1614.93 2254.18 1626.95C2252.65 1628.4 2251.12 1629.86 2249.6 1631.29C2238.43 1642.97 2227.94 1655.31 2217.58 1667.8C2206.83 1680.8 2196.96 1694.6 2187.06 1708.39C2177.3 1722.04 2167.41 1735.61 2158.21 1749.76C2153.11 1757.61 2148.04 1765.51 2142.9 1773.36C2140.16 1777.55 2137.45 1781.75 2134.82 1786C2132.79 1789.23 2131.12 1792.73 2129.35 1796.15C2129.15 1796.54 2128.94 1797 2128.72 1797.41C2128.28 1798.3 2127.86 1799.17 2127.42 1800.07C2126.29 1801.61 2124.78 1802.76 2122.94 1803.4C2120.25 1804.31 2117.1 1804.04 2114.25 1802.62C2108.37 1799.73 2104.6 1792.24 2106.64 1786.54C2110.2 1776.64 2114.56 1767.24 2119.8 1758.39C2124.92 1749.65 2130.32 1741.12 2135.75 1732.6C2145.18 1717.73 2155.53 1703.56 2165.58 1689.18C2171.16 1681.2 2176.76 1673.21 2182.45 1665.29C2187.69 1658.02 2193.27 1651.02 2198.97 1644.13C2210.93 1629.65 2223.54 1615.61 2237.22 1602.84C2260.35 1581.25 2286.93 1563.75 2309.42 1541.43C2317.31 1532.47 2324.56 1522.91 2331.56 1513.15C2338.8 1503.11 2345.88 1492.85 2352.37 1482.18C2362.24 1466.04 2371.82 1449.72 2380.96 1433.09C2378.62 1432.86 2376.3 1432.5 2373.94 1431.97C2369.54 1431.01 2364.97 1429.32 2360.76 1427.16C2354.18 1423.79 2348.21 1419.4 2342.78 1414.09C2335.66 1407.14 2329.48 1399.3 2323.47 1391.38C2320.83 1387.94 2318.43 1384.38 2315.92 1380.86C2313.2 1377.11 2310.44 1373.35 2307.75 1369.55C2301.99 1361.39 2296.4 1353.09 2292.11 1344.16C2289.42 1338.61 2287.06 1333.1 2285.33 1327.3C2284.14 1323.38 2284.02 1319.37 2284.07 1315.5C2284.12 1311.95 2284.93 1308.43 2286.07 1305.26C2287.61 1300.96 2289.84 1297.01 2292.01 1293.08C2293.54 1290.38 2295.19 1287.73 2296.87 1285.14C2294.02 1287.63 2291.2 1290.15 2288.46 1292.76C2282.79 1298.7 2277.33 1304.82 2272.06 1311.16C2266.21 1318.21 2260.96 1325.83 2255.8 1333.49C2250.76 1340.86 2245.98 1348.41 2241.04 1355.87C2236.21 1363.17 2231.04 1370.23 2225.82 1377.21C2220.62 1384.17 2215.25 1390.92 2209.65 1397.51C2206.26 1401.48 2202.59 1405.13 2198.97 1408.83C2195.91 1411.95 2192.85 1415.06 2189.61 1417.96C2182.89 1423.9 2176.14 1429.79 2168.9 1435.05C2161.19 1440.71 2153.34 1446.13 2145.44 1451.52C2131.18 1461.26 2116.3 1470.07 2101.32 1478.77C2092.66 1483.76 2084.03 1488.76 2075.07 1493.26C2067.02 1497.27 2058.58 1500.49 2050.08 1503.63C2041.55 1506.75 2032.9 1509.45 2024.02 1511.72C2015.45 1513.97 2006.64 1515.6 1997.96 1517.52C1980.88 1521.36 1963.84 1525.62 1947.38 1530.99C1930.96 1536.33 1914.6 1541.75 1898.37 1547.49C1882.14 1553.22 1866.54 1560.24 1851.32 1567.91C1846.48 1570.56 1841.72 1573.31 1837.09 1576.25C1831.45 1579.8 1826.03 1583.65 1820.58 1587.47C1810.57 1594.53 1801.6 1602.9 1792.5 1611.06C1783.65 1618.97 1774.65 1626.72 1765.71 1634.6C1757.01 1642.32 1748.18 1649.93 1739.84 1658.1C1736.95 1661.32 1734 1664.49 1731.39 1667.95C1728.41 1671.94 1725.47 1675.92 1722.56 1679.96C1716.95 1687.66 1711.4 1695.38 1705.88 1703.16C1694.97 1718.65 1683.92 1734.06 1674.9 1751.01C1672.46 1756.24 1670.21 1761.53 1668.34 1767.1C1666.66 1772.02 1665.54 1777.13 1664.58 1782.33C1662.11 1801.27 1661.71 1820.94 1663.18 1840.68C1664.12 1849.56 1665.67 1858.45 1666.69 1867.32C1667.27 1872.24 1667.76 1877.15 1667.96 1882.02C1668.16 1887.43 1668.09 1892.74 1667.95 1898.04C1667.68 1906.89 1666.8 1915.62 1666.19 1924.4C1665.52 1933.65 1664.75 1942.92 1663.94 1952.16C1662.18 1971.57 1659.46 1990.71 1658.24 2010.28C1657.66 2019.51 1657.34 2028.81 1657.07 2038.08C1656.77 2047.84 1656.44 2057.59 1656.47 2067.42C1656.58 2087.12 1657.26 2106.89 1657.5 2126.63C1657.81 2146.6 1658.45 2166.64 1658.2 2186.54C1657.94 2206.98 1657.21 2227.32 1656.64 2247.72C1656.09 2267.05 1656.07 2286.51 1656.75 2306.06C1657.5 2327.13 1659.14 2348.32 1660.9 2369.5L1660.9 2369.39C1664.31 2409.95 1667.96 2450.56 1669.85 2490.97C1670.81 2511.76 1671.39 2532.49 1672.14 2553.25C1672.86 2573.11 1673.8 2593.01 1674.11 2612.82C1674.48 2633.08 1675.11 2653.36 1675.22 2673.55C1675.31 2693.98 1675.05 2714.32 1674.64 2734.65C1674.24 2755.35 1673.57 2776.05 1673.3 2796.84C1673.03 2816.86 1673.29 2837 1672.37 2856.9C1671.34 2879.85 1669.22 2902.48 1666.58 2925.04C1666.21 2928.22 1663.83 2930.48 1660.44 2929.72C1657.4 2929.08 1654.4 2925.66 1654.77 2922.47Z" fill="#16A4C3"/>
<ellipse cx="1387.19" cy="965.733" rx="235.053" ry="254.14" fill="#FA6900"/>
<ellipse cx="1622.23" cy="965.733" rx="235.053" ry="254.14" fill="#FA6900"/>
<ellipse cx="1504.73" cy="711.591" rx="235.053" ry="254.14" fill="#FA6900"/>
<ellipse cx="70.7424" cy="152.064" rx="70.7424" ry="152.064" transform="matrix(0.977636 -0.210306 0.180979 0.983487 1038.64 223.943)" fill="#FA6900"/>
<ellipse cx="70.7424" cy="152.064" rx="70.7424" ry="152.064" transform="matrix(0.977636 -0.210306 0.180979 0.983487 1218.63 29.7551)" fill="#FA6900"/>
<ellipse cx="70.7926" cy="151.97" rx="70.7926" ry="151.97" transform="matrix(-0.972639 -0.232321 -0.200189 0.979757 1980.37 231.128)" fill="#FA6900"/>
<ellipse cx="70.7926" cy="151.97" rx="70.7926" ry="151.97" transform="matrix(-0.972639 -0.232321 -0.200189 0.979757 1804.24 32.8941)" fill="#FA6900"/>
</svg>
