<svg width="151" height="79" viewBox="0 0 151 79" fill="none" xmlns="http://www.w3.org/2000/svg">
<path d="M19.5322 38.8035C19.4037 38.7046 19.2861 38.5924 19.1725 38.4763C19.0923 38.3886 19.0155 38.299 18.9421 38.2044C18.9251 38.1828 18.9088 38.1609 18.8917 38.1392C18.8656 38.0627 18.8389 37.9862 18.8173 37.9079C18.7943 37.8238 18.7746 37.7399 18.7575 37.6537C18.7375 37.5207 18.7248 37.3854 18.7104 37.2506C18.6949 37.1128 18.6776 36.976 18.6684 36.8367C18.6595 36.6992 18.6476 36.5627 18.6313 36.4276C18.6148 36.2944 18.6035 36.1595 18.5844 36.0271C18.5638 35.8834 18.5379 35.7412 18.5164 35.5977C18.496 35.4573 18.4776 35.316 18.4545 35.1764C18.4319 35.0411 18.4175 34.9034 18.4073 34.764C18.3971 34.6247 18.3868 34.4853 18.378 34.3457C18.3727 34.2598 18.3725 34.1736 18.3721 34.0864C18.3724 34.0002 18.373 33.9137 18.3771 33.8262C18.3838 33.7652 18.393 33.7041 18.4083 33.6433C18.427 33.5693 18.447 33.4956 18.4678 33.4217C18.508 33.2806 18.55 33.1399 18.5904 32.9985C18.6298 32.8609 18.6635 32.7234 18.6932 32.5848C18.708 32.5165 18.7204 32.4478 18.7318 32.3791C18.7449 32.2985 18.7513 32.2174 18.7559 32.1367C18.7612 32.0418 18.7613 31.947 18.759 31.8532C18.7564 31.7469 18.741 31.6442 18.7236 31.5422C18.7075 31.4499 18.6889 31.3577 18.6695 31.2666C18.6511 31.1831 18.6297 31.1006 18.6135 31.0156C18.6082 30.9767 18.6038 30.937 18.5999 30.8972C18.5982 30.8635 18.595 30.8301 18.5919 30.796C18.5882 30.7352 18.5868 30.6739 18.5883 30.6115C18.59 30.5441 18.5946 30.4762 18.5961 30.4085C18.5977 30.3333 18.5975 30.2587 18.5958 30.184C18.5924 30.0446 18.5828 29.9062 18.5706 29.7685C18.558 29.6287 18.529 29.495 18.5034 29.36C18.4989 29.3383 18.4947 29.317 18.4908 29.2954C18.4783 29.2181 18.4679 29.1409 18.4602 29.0629C18.471 29.0723 18.4824 29.0812 18.4928 29.0909C18.5353 29.1379 18.5728 29.1882 18.6037 29.245C18.6495 29.3468 18.6741 29.4583 18.6956 29.5715C18.708 29.6577 18.7171 29.7438 18.7167 29.8336C18.7159 29.9236 18.7107 30.0141 18.7079 30.1043C18.7055 30.189 18.7036 30.2736 18.6987 30.3584C18.6935 30.4489 18.6863 30.5395 18.6808 30.6296C18.6709 30.8106 18.6698 30.9883 18.6866 31.1637C18.7038 31.3435 18.7266 31.5216 18.752 31.6988C18.7716 31.8327 18.7925 31.9669 18.8033 32.1033C18.815 32.2463 18.8193 32.3893 18.8105 32.536C18.7929 32.7127 18.7675 32.8896 18.7485 33.0665C18.727 33.2641 18.7149 33.4601 18.7071 33.6563C18.6998 33.8447 18.6893 34.0339 18.6939 34.2206C18.6985 34.4082 18.7193 34.5923 18.7408 34.7754C18.7633 34.9673 18.8002 35.1544 18.8369 35.3411C18.871 35.5179 18.9079 35.6928 18.9485 35.8669C18.9891 36.0386 19.0368 36.2072 19.0779 36.3789C19.12 36.5528 19.1589 36.7275 19.1964 36.9033C19.2736 37.2647 19.3573 37.6241 19.4632 37.973C19.5662 38.3139 19.6872 38.6475 19.8471 38.9558C19.8679 38.9958 19.8891 39.0355 19.9102 39.0751C19.7815 38.9881 19.6551 38.8981 19.5322 38.8035ZM18.5178 37.6091C18.4583 37.5209 18.3967 37.435 18.3332 37.3501C18.3736 37.309 18.3916 37.2483 18.3767 37.1964C18.3088 36.9594 18.2468 36.7194 18.2016 36.4725C18.1807 36.3231 18.1582 36.1737 18.1409 36.0233C18.1228 35.8666 18.1105 35.7075 18.1023 35.5483C18.0945 35.3918 18.0906 35.2343 18.0893 35.0766C18.0877 34.927 18.0842 34.7776 18.0855 34.6274C18.0857 34.6141 18.0853 34.6007 18.0855 34.5873C18.0893 34.6232 18.0933 34.6593 18.0971 34.6952C18.1138 34.8423 18.1317 34.9898 18.1583 35.1338C18.1843 35.2715 18.2132 35.4082 18.2376 35.5468C18.236 35.5369 18.2345 35.5279 18.2328 35.5186C18.2348 35.5291 18.2367 35.5402 18.2382 35.5507C18.2564 35.6583 18.2756 35.7666 18.2982 35.873C18.3204 35.9787 18.342 36.085 18.3612 36.1918C18.3831 36.3207 18.406 36.4494 18.429 36.5784C18.4389 36.6413 18.4487 36.7048 18.4556 36.7688C18.4636 36.8402 18.4699 36.9125 18.4799 36.9831C18.4994 37.1191 18.5224 37.2534 18.5427 37.3891C18.5597 37.5056 18.5773 37.6221 18.6023 37.7357C18.574 37.6933 18.5462 37.6509 18.5178 37.6091ZM18.2628 32.7784C18.3219 32.5303 18.3826 32.2828 18.4385 32.0346C18.4367 32.0815 18.4346 32.1277 18.4315 32.1749C18.4051 32.443 18.3359 32.7138 18.2617 32.9797C18.2256 33.1076 18.1904 33.2352 18.1559 33.3632C18.1827 33.1679 18.2167 32.9724 18.2628 32.7784ZM18.2323 29.9577C18.1698 29.8818 18.1014 29.8089 18.0263 29.7476C17.9585 29.6929 17.8778 29.6524 17.7922 29.6298C17.6847 29.6014 17.5729 29.6011 17.4565 29.6199C17.4332 29.6235 17.4105 29.6316 17.3877 29.6397C17.3565 29.651 17.3281 29.6615 17.298 29.6758C17.2691 29.6896 17.2366 29.7118 17.2108 29.7308C17.1912 29.745 17.174 29.7597 17.1563 29.7767C17.1094 29.8214 17.0709 29.8721 17.0343 29.9257C17.03 29.9323 17.0256 29.9389 17.0212 29.9462C17.0072 29.9419 16.9929 29.938 16.9785 29.9355C16.9782 29.9328 16.978 29.931 16.9774 29.9286C16.9697 29.8878 16.9613 29.8475 16.9463 29.8099C16.9384 29.7902 16.9297 29.7708 16.9209 29.7513C16.9214 29.7451 16.9223 29.7389 16.9225 29.7324C16.9262 29.6624 16.9254 29.5951 16.919 29.5267C16.9166 29.5019 16.9133 29.4774 16.9103 29.4525C16.9054 29.4113 16.9061 29.3691 16.9089 29.3267C16.9228 29.2138 16.9412 29.0999 16.973 28.9878C16.9881 28.9457 17.006 28.9056 17.0273 28.8656C17.0912 28.7619 17.1592 28.6611 17.2403 28.5693C17.2757 28.5338 17.3132 28.502 17.3536 28.473C17.3702 28.4628 17.3872 28.4524 17.4039 28.4416C17.4439 28.4173 17.486 28.3982 17.5283 28.3819C17.5641 28.3705 17.599 28.3633 17.6346 28.3584C17.7118 28.3544 17.787 28.3634 17.8617 28.3733C17.9228 28.3863 17.9816 28.4029 18.038 28.4297C18.0756 28.452 18.1106 28.4775 18.1425 28.5076C18.154 28.5212 18.164 28.5357 18.1736 28.551C18.1772 28.5616 18.1802 28.5727 18.1827 28.5838C18.1873 28.6346 18.1849 28.6865 18.1815 28.7387C18.1519 28.7575 18.1281 28.7885 18.1207 28.8256C18.1106 28.8756 18.1349 28.922 18.176 28.9359C18.1758 28.9659 18.1762 28.9954 18.1768 29.0251C18.1798 29.1662 18.1968 29.3047 18.2161 29.4413C18.2348 29.57 18.2549 29.6986 18.2638 29.8307C18.2676 29.8901 18.2708 29.9494 18.2737 30.009C18.2601 29.9917 18.2465 29.9744 18.2323 29.9577ZM17.5079 37.4453C17.5239 37.4806 17.5381 37.5163 17.547 37.5557C17.5501 37.58 17.5519 37.6038 17.5516 37.6285C17.5484 37.6474 17.5444 37.6659 17.5392 37.685C17.5051 37.7824 17.4583 37.8759 17.4087 37.9683C17.3281 38.1012 17.2375 38.2271 17.148 38.3539C17.0581 38.4816 16.9642 38.6043 16.8612 38.7207C16.8166 38.7664 16.7707 38.8088 16.7197 38.8453C16.665 38.8795 16.6094 38.9071 16.5515 38.9299C16.5078 38.9427 16.4658 38.9519 16.4223 38.9576C16.3991 38.9582 16.3772 38.9578 16.3547 38.9564C16.3462 38.9396 16.3375 38.9232 16.329 38.9064C16.3066 38.8604 16.2849 38.8139 16.2643 38.7674C16.2392 38.7105 16.2166 38.6521 16.1936 38.5939C16.1493 38.4805 16.1212 38.3578 16.0944 38.2364C16.0828 38.1657 16.0707 38.0943 16.0661 38.0215C16.0637 37.9747 16.0608 37.9288 16.0605 37.8812C16.0605 37.8387 16.0627 37.7963 16.065 37.7533C16.0707 37.7 16.0778 37.6471 16.0862 37.594C16.0951 37.5376 16.1106 37.4819 16.1257 37.4261C16.1394 37.3852 16.1538 37.3451 16.1697 37.3043C16.1909 37.2476 16.2202 37.1919 16.2503 37.1381C16.2656 37.1138 16.2814 37.0911 16.299 37.0678C16.3313 37.0355 16.3646 37.0053 16.401 36.9773C16.4321 36.9577 16.4634 36.9399 16.4957 36.9242C16.5362 36.9045 16.5768 36.8886 16.6179 36.8727C16.729 36.8341 16.8407 36.7987 16.9535 36.7831C16.9961 36.7816 17.0381 36.7836 17.0793 36.7876C17.158 36.8991 17.2361 37.0111 17.3117 37.1248C17.3805 37.2295 17.4484 37.3336 17.5079 37.4453ZM26.3861 60.0112C26.3556 59.7392 26.3295 59.4652 26.3232 59.1872C26.3195 59.0452 26.3167 58.9029 26.3186 58.7597C26.3198 58.6125 26.3232 58.4655 26.3241 58.3186C26.3285 57.75 26.3162 57.1844 26.3249 56.6151C26.3293 56.3319 26.3392 56.0484 26.3462 55.7654C26.3533 55.4716 26.3653 55.1775 26.3791 54.8829C26.3924 54.6029 26.4001 54.3237 26.414 54.0437C26.4289 53.7461 26.4483 53.4482 26.4707 53.1502C26.4756 53.0859 26.4809 53.0213 26.4862 52.9567L26.486 52.9588L26.4864 52.9556C26.4873 52.9455 26.4877 52.9354 26.4886 52.9253C26.4882 52.9316 26.4879 52.9372 26.4875 52.9434C26.5364 52.3805 26.5986 51.8161 26.6214 51.2558C26.6434 50.708 26.5973 50.1741 26.5966 49.6308C26.5958 49.3378 26.6026 49.0438 26.6097 48.7494C26.6163 48.4785 26.6288 48.2065 26.6365 47.9356C26.6402 47.8035 26.6386 47.672 26.6388 47.5409C26.6389 47.3966 26.6385 47.2533 26.6331 47.1103C26.629 46.9805 26.6166 46.8517 26.6043 46.7238C26.5919 46.5912 26.5804 46.4583 26.5706 46.3249C26.5574 46.1486 26.545 45.9719 26.5335 45.795C26.528 45.7088 26.5224 45.6232 26.5203 45.5366C26.5183 45.4616 26.5208 45.3861 26.5259 45.31C26.5401 45.1831 26.5593 45.0559 26.5713 44.9289C26.5824 44.8027 26.5837 44.6785 26.5814 44.5544C26.5764 44.2722 26.5498 43.9914 26.4789 43.7311C26.4451 43.6055 26.393 43.49 26.3383 43.3761C26.2819 43.2574 26.2144 43.1447 26.1454 43.0352C26.0052 42.8123 25.8595 42.595 25.7142 42.3769C25.6792 42.324 25.6439 42.2715 25.6082 42.2192C25.6069 42.2174 25.6058 42.2158 25.6046 42.214C25.5692 42.1629 25.5291 42.1164 25.4899 42.069C25.4457 42.0157 25.3953 41.9681 25.3469 41.9193C25.3002 41.8725 25.2514 41.8279 25.203 41.783C25.0315 41.6219 24.8576 41.4628 24.6893 41.2979C24.6035 41.2144 24.521 41.1271 24.4287 41.0516C24.3318 40.9717 24.2322 40.8946 24.1288 40.8236C23.9138 40.675 23.6768 40.5577 23.4354 40.4544C23.2182 40.3619 22.9934 40.2856 22.7692 40.2088C22.6656 40.1731 22.5625 40.136 22.4573 40.1048C22.3424 40.0704 22.2259 40.0389 22.1091 40.0092C21.9972 39.9806 21.8851 39.9532 21.772 39.9281C21.6555 39.9019 21.5367 39.8801 21.4235 39.8458C21.3098 39.8115 21.1972 39.7742 21.0867 39.7317C21.0081 39.7018 20.9318 39.6683 20.8559 39.6332C20.8518 39.6029 20.842 39.5736 20.8251 39.5484C20.797 39.5063 20.7659 39.4668 20.7357 39.4269C20.7065 39.3892 20.6772 39.3516 20.6503 39.3119C20.593 39.2277 20.5371 39.1417 20.4833 39.0541C20.3866 38.8962 20.2971 38.7328 20.2134 38.5655C19.9248 37.9429 19.7327 37.2637 19.5735 36.5742C19.5387 36.4244 19.5017 36.276 19.4633 36.1278C19.4248 35.9788 19.38 35.8321 19.3394 35.6839C19.3013 35.5437 19.2663 35.402 19.2337 35.2592C19.2005 35.1125 19.1667 34.9657 19.1378 34.8168C19.094 34.553 19.0591 34.2831 19.0532 34.0087C19.0498 33.8616 19.053 33.7128 19.0539 33.5645C19.0552 33.4265 19.059 33.2885 19.0685 33.1495C19.086 32.9665 19.1101 32.7833 19.1289 32.6008C19.1392 32.4987 19.1446 32.3978 19.1444 32.2973C19.1441 32.2057 19.136 32.1158 19.1276 32.0262C19.1113 31.8491 19.0819 31.6752 19.0599 31.4999C19.0389 31.3306 19.0218 31.1585 19.0119 30.9861C19.0011 30.8042 19.0069 30.6204 19.0154 30.4344C19.0234 30.259 19.0201 30.0864 19.0187 29.9127C19.0177 29.8231 19.014 29.7364 19.0039 29.6497C18.9924 29.5495 18.967 29.4513 18.9379 29.3584C18.9039 29.2509 18.8622 29.148 18.8011 29.0597C18.7817 29.0317 18.7608 29.0055 18.7375 28.9808C18.6939 28.9353 18.6478 28.8924 18.5973 28.8551C18.5571 28.8252 18.5129 28.8017 18.4687 28.7782C18.4628 28.7749 18.4564 28.7725 18.4507 28.7695C18.4517 28.7482 18.4524 28.7265 18.4538 28.7049C18.4554 28.6746 18.4579 28.6447 18.4585 28.6144C18.4617 28.5286 18.4521 28.4449 18.4133 28.3752C18.4068 28.3636 18.3995 28.3523 18.392 28.3415C18.309 28.2215 18.1703 28.155 18.0325 28.1163C17.9659 28.0976 17.8946 28.0888 17.8247 28.0807C17.7906 28.0769 17.7563 28.0738 17.7214 28.0727C17.6354 28.0686 17.5486 28.0831 17.4619 28.1128C17.3117 28.1641 17.1606 28.252 17.0415 28.3726C16.9509 28.4643 16.8712 28.5657 16.7994 28.6741C16.773 28.7141 16.7486 28.7549 16.7241 28.7962C16.6952 28.8457 16.6755 28.9 16.6579 28.9536C16.6374 29.0159 16.6195 29.079 16.6038 29.1422C16.5748 29.2591 16.5525 29.3773 16.5522 29.4938C16.5523 29.4986 16.553 29.5034 16.5532 29.5082C16.5169 29.5409 16.4907 29.5851 16.4814 29.6317C16.4709 29.6841 16.4829 29.7242 16.5052 29.7648C16.5451 29.836 16.5848 29.9078 16.6223 29.981C16.6356 30.0108 16.649 30.0409 16.662 30.071C16.619 30.1153 16.5772 30.162 16.5396 30.2111C16.4602 30.3152 16.3905 30.4281 16.3285 30.5428C16.299 30.5967 16.2724 30.651 16.2501 30.7076C16.228 30.7631 16.2084 30.8192 16.1887 30.8751C16.1467 30.9929 16.1026 31.11 16.0566 31.2267C15.956 31.4826 15.8835 31.7456 15.8108 32.0067C15.7469 32.2344 15.675 32.4602 15.6027 32.6862C15.5404 32.8789 15.4758 33.0705 15.4072 33.2617C15.3683 33.3695 15.3286 33.4771 15.2891 33.5849C15.2498 33.6915 15.2116 33.7982 15.169 33.9038C15.0829 34.1176 14.9971 34.3317 14.9138 34.5457C14.8286 34.7646 14.7561 34.9865 14.6846 35.2084C14.6865 35.2029 14.6882 35.1976 14.6901 35.192C14.6099 35.4409 14.5374 35.6902 14.4851 35.9422C14.4577 36.072 14.4455 36.204 14.4308 36.3333C14.4173 36.4513 14.4063 36.5691 14.3942 36.6868C14.3671 36.9508 14.3302 37.2166 14.3171 37.4794C14.3048 37.7269 14.3002 37.974 14.305 38.2187C14.3079 38.355 14.3135 38.49 14.3207 38.6251C14.3278 38.7598 14.3406 38.893 14.3517 39.0268C14.3617 39.1507 14.3667 39.2749 14.3684 39.4005C14.3704 39.521 14.3629 39.6432 14.3538 39.7652C14.3421 39.8958 14.3293 40.0269 14.3191 40.1573C14.3094 40.2823 14.2976 40.4081 14.2974 40.5324C14.2957 40.7746 14.3088 41.0138 14.333 41.2501C14.3458 41.3742 14.36 41.498 14.3735 41.6223C14.3863 41.738 14.3955 41.8547 14.4083 41.9704C14.4206 42.0816 14.4364 42.1918 14.4522 42.302C14.4707 42.432 14.4946 42.5607 14.5343 42.6818C14.5738 42.8027 14.6261 42.917 14.6893 43.0227C14.7154 43.0664 14.7435 43.1085 14.7744 43.1478C14.8164 43.2016 14.8643 43.2488 14.9123 43.296C15.0744 43.4549 15.2865 43.5523 15.4861 43.6559C15.6933 43.7637 15.9019 43.8689 16.1131 43.9695C16.3193 44.0675 16.5325 44.1512 16.7426 44.2411C16.8312 44.2787 16.9176 44.3206 17.0034 44.364C17.1862 44.4677 17.3622 44.582 17.5422 44.69C17.7341 44.8046 17.9365 44.9024 18.1349 45.0065C18.4201 45.1639 18.7008 45.3291 18.9914 45.4775C19.2843 45.627 19.5743 45.7813 19.866 45.9322C19.9168 45.9599 19.9668 45.9888 20.016 46.0189C20.075 46.0547 20.1294 46.0975 20.1844 46.1397C20.2805 46.2139 20.3687 46.2987 20.4546 46.3856C20.5068 46.4419 20.5576 46.4994 20.6062 46.5597C20.6628 46.6299 20.7112 46.709 20.7608 46.7851C20.8568 46.9337 20.947 47.0852 21.0276 47.2449C21.0747 47.3448 21.1182 47.4456 21.1552 47.5514C21.1972 47.6721 21.2291 47.7979 21.262 47.9229C21.2924 48.0359 21.3179 48.151 21.3417 48.2667C21.3667 48.3871 21.3929 48.507 21.4158 48.6283C21.4507 48.8405 21.473 49.0557 21.4854 49.2742C21.4981 49.4961 21.5087 49.7181 21.5196 49.9405C21.5239 50.0424 21.5296 50.1441 21.5309 50.247C21.5329 50.3548 21.5328 50.4624 21.5377 50.5691C21.5429 50.6859 21.5478 50.8024 21.5504 50.9194C21.5529 51.0301 21.5481 51.1417 21.5416 51.2538C21.5304 51.3737 21.5151 51.4937 21.5068 51.6131C21.4982 51.7411 21.4918 51.8687 21.4869 51.996C21.4817 52.1192 21.4773 52.2421 21.4707 52.3655C21.4645 52.4909 21.4558 52.6166 21.4462 52.7425C21.4135 53.0912 21.3901 53.441 21.3368 53.7911C21.3097 53.97 21.2778 54.148 21.2392 54.327C21.1964 54.525 21.1509 54.723 21.108 54.9216C21.0961 54.9772 21.1314 55.0268 21.1824 55.029C21.2352 55.0315 21.2866 54.9864 21.2987 54.9302C21.3587 54.6545 21.4311 54.3799 21.493 54.104C21.5206 53.9819 21.5424 53.8593 21.5605 53.7365C21.5797 53.6077 21.5988 53.4787 21.6122 53.35C21.6405 53.0802 21.6674 52.8106 21.6905 52.5408C21.7126 52.2856 21.7204 52.0317 21.7358 51.7773C21.7394 51.7141 21.7446 51.6511 21.7496 51.5877C21.7641 51.4581 21.7818 51.3287 21.7923 51.1996C21.8027 51.0725 21.8073 50.947 21.8056 50.8214C21.8039 50.7012 21.7985 50.5817 21.7938 50.4625C21.7893 50.3496 21.7926 50.2359 21.7903 50.1225C21.7877 50.0055 21.7829 49.8884 21.7799 49.7717C21.7772 49.6606 21.7758 49.5499 21.7736 49.4389C21.7714 49.3172 21.7729 49.1947 21.7709 49.0733C21.768 48.9492 21.7612 48.8269 21.7492 48.7047C21.7332 48.538 21.7054 48.3755 21.6764 48.213C21.6383 47.9869 21.598 47.7616 21.5399 47.5433C21.5105 47.4324 21.4799 47.3221 21.4385 47.2175C21.3915 47.0996 21.3363 46.9872 21.2796 46.8756C21.2291 46.7753 21.17 46.6809 21.111 46.5873C21.0494 46.4901 20.9856 46.3948 20.9184 46.3024C20.8498 46.2072 20.7675 46.1232 20.687 46.0397C20.6072 45.9579 20.5238 45.8822 20.4371 45.8087C20.3201 45.7097 20.1883 45.6302 20.0527 45.5582C19.917 45.4868 19.7808 45.4163 19.6455 45.3441C19.6475 45.3454 19.65 45.3467 19.6522 45.3477C19.4449 45.2375 19.2361 45.1304 19.0279 45.022C18.8526 44.9276 18.6799 44.8294 18.5055 44.7333C18.3091 44.6245 18.1061 44.5273 17.9051 44.4263C17.8223 44.3818 17.7401 44.3368 17.6593 44.2886C17.557 44.2275 17.455 44.166 17.3519 44.1061C17.1453 43.9855 16.9239 43.8921 16.7002 43.8031C16.2817 43.6363 15.881 43.4353 15.4853 43.2255C15.4786 43.2219 15.4716 43.2186 15.4649 43.215C15.3922 43.1747 15.3186 43.1336 15.2522 43.0834C15.2153 43.0552 15.1794 43.0261 15.1441 42.9965C15.1215 42.9775 15.1013 42.9566 15.081 42.9357C15.0498 42.8967 15.0204 42.8573 14.9918 42.816C14.9678 42.7822 14.9483 42.7441 14.9289 42.7062C14.9049 42.651 14.8815 42.596 14.8638 42.5378C14.8462 42.4789 14.8324 42.4194 14.8207 42.3585C14.7968 42.1789 14.7795 41.9967 14.7632 41.8151C14.7552 41.7237 14.7487 41.6315 14.738 41.5409C14.7268 41.4419 14.7147 41.3432 14.7027 41.2445C14.6798 41.0572 14.6605 40.8699 14.6475 40.6801C14.6344 40.4919 14.6432 40.3002 14.6571 40.1076C14.6796 39.8589 14.7113 39.6091 14.7216 39.3619C14.7321 39.1204 14.706 38.8866 14.6899 38.6506C14.6731 38.4107 14.664 38.1688 14.6637 37.9253C14.6635 37.688 14.6658 37.4505 14.6826 37.2104C14.6968 37.0592 14.714 36.9078 14.7298 36.7566C14.7465 36.5992 14.7621 36.4423 14.781 36.2851C14.7993 36.1307 14.8227 35.976 14.8615 35.8224C14.8988 35.6734 14.9423 35.5251 14.9884 35.3774C15.0645 35.1447 15.1435 34.9115 15.2374 34.6832C15.3382 34.4383 15.4448 34.1957 15.5461 33.9514C15.6437 33.7156 15.733 33.4761 15.8155 33.2359C15.8998 32.9923 15.9748 32.7473 16.0502 32.5021C16.0991 32.3403 16.1463 32.179 16.1889 32.0163C16.2343 31.8434 16.281 31.6708 16.3331 31.4991C16.3623 31.4136 16.3947 31.329 16.4244 31.2436C16.46 31.143 16.4921 31.042 16.5243 30.9403C16.5457 30.8748 16.5682 30.8092 16.5957 30.7448C16.6209 30.6848 16.6547 30.6273 16.6877 30.57C16.735 30.4932 16.7854 30.4186 16.8405 30.3478C16.8022 30.4527 16.767 30.5583 16.735 30.6641C16.6894 30.8148 16.653 30.9674 16.6191 31.1198C16.584 31.2757 16.5509 31.4323 16.5305 31.5889C16.5093 31.752 16.4943 31.9142 16.4804 32.0765C16.4524 32.3969 16.4044 32.7181 16.3529 33.0394C16.3325 33.1666 16.311 33.2943 16.2773 33.4212C16.2436 33.5471 16.2075 33.672 16.1689 33.7972C16.1181 33.9502 16.0622 34.1018 16.0001 34.2523C15.9352 34.41 15.862 34.565 15.7974 34.723C15.6639 35.0484 15.5735 35.3837 15.5151 35.7201C15.4812 35.915 15.4511 36.1101 15.4254 36.3055C15.3978 36.5126 15.3788 36.7183 15.3618 36.9248C15.3332 37.2511 15.2981 37.578 15.2705 37.9043C15.243 38.2331 15.2406 38.5586 15.2201 38.8867C15.2128 39.0053 15.2044 39.1239 15.196 39.2424C15.1825 39.3931 15.169 39.5438 15.1555 39.6945C15.1408 39.858 15.1291 40.0218 15.1062 40.1855C15.0823 40.3523 15.0587 40.5195 15.0277 40.686C14.9976 40.8499 14.9685 41.0138 14.9279 41.1763C14.9068 41.2612 14.8855 41.3452 14.8639 41.4295C14.851 41.48 14.8864 41.5243 14.9313 41.5267C14.98 41.5288 15.0225 41.4883 15.0359 41.4378C15.0806 41.2645 15.1263 41.0904 15.1616 40.9158C15.1975 40.7382 15.2332 40.5603 15.2675 40.3827C15.3287 40.0639 15.3626 39.7444 15.3998 39.4259C15.4247 39.2103 15.4485 38.9947 15.4667 38.7794C15.4857 38.557 15.5012 38.3347 15.5174 38.1128C15.5461 37.7895 15.5902 37.4657 15.6265 37.1421C15.6451 36.9798 15.6584 36.8175 15.6781 36.6552C15.6983 36.4861 15.7232 36.3169 15.7508 36.1478C15.7764 35.9912 15.8081 35.8348 15.8401 35.6781C15.871 35.5253 15.9123 35.3744 15.9584 35.2238C15.9841 35.1492 16.0109 35.0747 16.0386 35.0008C16.0691 34.9202 16.107 34.8412 16.1426 34.762C16.2117 34.6095 16.2918 34.4608 16.3618 34.3081C16.4344 34.1502 16.4947 33.988 16.5493 33.8253C16.5815 33.7296 16.6113 33.633 16.6403 33.5365C16.6625 33.4639 16.6832 33.3896 16.699 33.3166C16.7246 33.1971 16.743 33.0779 16.7618 32.9584C16.7782 32.8521 16.7951 32.7459 16.8087 32.6395C16.8233 32.5245 16.8377 32.4101 16.8505 32.2957C16.8634 32.1768 16.8726 32.0586 16.8818 31.9398C16.8924 31.8145 16.9053 31.6887 16.9237 31.5627C16.941 31.4395 16.9668 31.3164 16.9941 31.1941C17.0218 31.0684 17.0508 30.9432 17.0827 30.8183C17.111 30.7064 17.1452 30.5947 17.1804 30.4837C17.2214 30.3599 17.2654 30.2366 17.3278 30.1201C17.3453 30.093 17.3639 30.0665 17.384 30.0416C17.3938 30.0323 17.4041 30.0235 17.4148 30.0154C17.4331 30.0047 17.4516 29.9949 17.4708 29.9869C17.5067 29.9764 17.5423 29.9701 17.5781 29.9656C17.6207 29.9641 17.6618 29.9673 17.703 29.9728C17.7365 29.9816 17.7682 29.9932 17.7993 30.0078C17.8858 30.0605 17.9586 30.1315 18.0297 30.2045C18.0943 30.2796 18.1519 30.3582 18.2013 30.4462C18.2244 30.4985 18.2449 30.5509 18.2625 30.6068C18.2655 30.6164 18.268 30.6261 18.271 30.6357C18.2695 30.6776 18.2684 30.7186 18.2686 30.7599C18.2694 30.8188 18.275 30.8762 18.2816 30.9336C18.291 31.0179 18.3061 31.1004 18.3229 31.1824C18.3082 31.3131 18.2901 31.4443 18.2639 31.575C18.2293 31.7432 18.1905 31.9105 18.1499 32.0783C18.1113 32.2367 18.0696 32.3953 18.0269 32.5532C18.0048 32.6345 17.9811 32.7157 17.962 32.7969C17.9418 32.8815 17.9232 32.9657 17.9051 33.0505C17.7661 33.7104 17.742 34.37 17.7463 35.0182C17.7486 35.3284 17.7511 35.6375 17.7811 35.9414C17.7964 36.0949 17.8178 36.2458 17.8417 36.3966C17.8572 36.4934 17.8742 36.5893 17.8961 36.6841C17.9137 36.7595 17.9403 36.8322 17.9646 36.9044C17.9687 36.9165 17.9732 36.9283 17.9772 36.9401C17.9091 36.8714 17.8388 36.8056 17.7629 36.7454C17.6679 36.6698 17.5663 36.5983 17.454 36.5485C17.412 36.5304 17.3702 36.5127 17.326 36.4989C17.265 36.4799 17.1983 36.4711 17.133 36.4664C17.0648 36.4613 16.9926 36.4694 16.9226 36.48C16.8558 36.4908 16.7895 36.5144 16.7236 36.5362C16.5951 36.5793 16.4678 36.6317 16.347 36.7026C16.2369 36.7678 16.1349 36.8545 16.0577 36.9625C16.0236 37.0105 15.9964 37.0639 15.969 37.1156C15.9508 37.1486 15.9358 37.1823 15.9199 37.2164C15.8897 37.2806 15.8664 37.3503 15.8465 37.4165C15.8241 37.4913 15.8052 37.565 15.7904 37.6401C15.7627 37.7833 15.7545 37.9286 15.7591 38.0683C15.7642 38.2154 15.7902 38.357 15.8184 38.4972C15.8299 38.5534 15.8472 38.6087 15.8646 38.6627C15.887 38.7307 15.9118 38.797 15.938 38.8637C15.9598 38.9195 15.9866 38.9734 16.0126 39.0276C16.0435 39.0927 16.0759 39.157 16.1078 39.2213C16.1679 39.3408 16.231 39.4577 16.2948 39.5741C16.3581 39.6898 16.4234 39.8039 16.4877 39.9188C16.546 40.0227 16.6053 40.1258 16.6676 40.2264C16.7399 40.3437 16.8137 40.4594 16.8887 40.5745C16.9174 40.619 16.9466 40.6636 16.9767 40.707C17.0117 40.7583 17.0461 40.8117 17.0851 40.8597C17.1716 40.9664 17.2648 41.0652 17.3651 41.1569C17.457 41.241 17.552 41.322 17.6476 41.4016C17.832 41.5562 18.0208 41.7056 18.1936 41.874C18.2146 41.8943 18.2355 41.9147 18.2562 41.9347C18.4089 42.0982 18.5522 42.271 18.6938 42.4459C18.8409 42.6278 18.9758 42.8211 19.111 43.014C19.2444 43.2051 19.3796 43.3951 19.5053 43.5933C19.575 43.7031 19.6443 43.8138 19.7146 43.9237C19.752 43.9823 19.7891 44.0412 19.825 44.1006C19.8527 44.1459 19.8756 44.1949 19.8998 44.2428C19.9025 44.2482 19.9054 44.2546 19.9083 44.2604C19.9144 44.2729 19.9202 44.2851 19.9262 44.2976C19.9416 44.3191 19.9623 44.3353 19.9874 44.3442C20.0242 44.357 20.0673 44.3531 20.1061 44.3333C20.1865 44.2929 20.2381 44.188 20.2101 44.1082C20.1615 43.9696 20.1019 43.838 20.0303 43.7141C19.9604 43.5918 19.8865 43.4723 19.8124 43.353C19.6835 43.1449 19.5419 42.9465 19.4046 42.7451C19.3283 42.6335 19.2519 42.5216 19.1741 42.4108C19.1025 42.3089 19.0262 42.2109 18.9483 42.1144C18.7848 41.9117 18.6124 41.7152 18.4254 41.5364C18.1094 41.2342 17.7461 40.9891 17.4386 40.6766C17.3308 40.5513 17.2318 40.4175 17.1361 40.2808C17.0371 40.1401 16.9404 39.9966 16.8516 39.8472C16.7167 39.6212 16.5859 39.3928 16.4609 39.1599C16.4928 39.1566 16.5246 39.1516 16.5569 39.1443C16.617 39.1308 16.6795 39.1071 16.7369 39.0768C16.8269 39.0297 16.9085 38.9683 16.9828 38.8939C17.08 38.7966 17.1645 38.6868 17.2466 38.576C17.2827 38.5278 17.3155 38.4779 17.3498 38.4288C17.387 38.3761 17.4248 38.3235 17.4616 38.2703C17.5403 38.1561 17.6166 38.0399 17.6752 37.9149C17.712 37.8373 17.7442 37.76 17.7679 37.6788C17.7842 37.624 17.7858 37.5678 17.7851 37.5137C17.7844 37.464 17.7734 37.4147 17.7579 37.3702C17.7367 37.31 17.7063 37.2547 17.6767 37.1998C17.6557 37.1619 17.6332 37.1248 17.6102 37.0886C17.6491 37.1235 17.6877 37.1587 17.7251 37.1953C17.8027 37.2784 17.8773 37.3641 17.9493 37.4529C18.0292 37.5516 18.101 37.6583 18.1715 37.7655C18.2404 37.8687 18.3057 37.9745 18.3733 38.0788C18.4393 38.181 18.5099 38.2799 18.5812 38.3776C18.6524 38.475 18.7257 38.5695 18.8023 38.6618C18.8486 38.7173 18.8987 38.7685 18.9483 38.8203C18.9901 38.8639 19.0319 38.9075 19.0762 38.948C19.1681 39.0313 19.2603 39.1136 19.3593 39.1874C19.4646 39.2665 19.5719 39.3425 19.6799 39.4179C19.8748 39.5543 20.0781 39.6777 20.2829 39.7994C20.4013 39.8693 20.5192 39.9392 20.6417 40.0023C20.7516 40.0584 20.867 40.1035 20.9832 40.1475C21.0998 40.1912 21.218 40.229 21.3394 40.2607C21.4565 40.2923 21.577 40.315 21.6955 40.3419C21.929 40.3957 22.1618 40.4554 22.3869 40.5305C22.6113 40.6052 22.8348 40.6812 23.0567 40.7615C23.2785 40.8418 23.4918 40.9401 23.6997 41.0473C23.7659 41.0844 23.831 41.123 23.8942 41.1641C23.9713 41.2139 24.0454 41.2677 24.1199 41.3213C24.2567 41.4201 24.3794 41.5372 24.5037 41.6514C24.6246 41.7623 24.7477 41.8708 24.8698 41.9811C24.9888 42.0891 25.1095 42.1957 25.2234 42.3101C25.263 42.3551 25.3033 42.3996 25.3389 42.448C25.3796 42.5037 25.4198 42.5595 25.4596 42.6161C25.5363 42.7239 25.6122 42.832 25.6876 42.9409C25.8367 43.1577 25.9877 43.3734 26.111 43.6107C26.1444 43.684 26.1751 43.7581 26.2007 43.836C26.2237 43.9049 26.239 43.9764 26.2521 44.0493C26.2858 44.3144 26.2912 44.5897 26.2712 44.8662C26.2584 44.9905 26.2372 45.1149 26.2233 45.2392C26.2152 45.3081 26.2086 45.3767 26.2059 45.445C26.2031 45.5207 26.2041 45.5951 26.206 45.6692C26.2097 45.7931 26.2217 45.9153 26.23 46.0382C26.2392 46.1677 26.2497 46.2975 26.2608 46.4268C26.2849 46.6986 26.3221 46.9665 26.3388 47.2406C26.3467 47.3698 26.351 47.4999 26.3547 47.6297C26.3588 47.7664 26.3633 47.9028 26.3629 48.0405C26.3614 48.3164 26.352 48.5931 26.3488 48.8694C26.3446 49.1491 26.3358 49.4296 26.3393 49.7081C26.3429 49.9944 26.3528 50.2791 26.3606 50.5647C26.3681 50.8353 26.3684 51.1077 26.3591 51.3814C26.3488 51.6765 26.3264 51.9731 26.3023 52.2696L26.3023 52.2681C26.2557 52.8359 26.2059 53.4044 26.18 53.9702C26.1669 54.2613 26.159 54.5514 26.1488 54.8421C26.1388 55.1202 26.1261 55.3988 26.1218 55.6761C26.1168 55.9598 26.1082 56.2436 26.1067 56.5264C26.1054 56.8124 26.1089 57.0971 26.1145 57.3816C26.1201 57.6715 26.1292 57.9613 26.1329 58.2523C26.1366 58.5326 26.133 58.8146 26.1455 59.0933C26.1597 59.4145 26.1887 59.7314 26.2248 60.0472C26.2298 60.0917 26.2623 60.1233 26.3086 60.1128C26.3503 60.1038 26.3912 60.0558 26.3861 60.0112Z" fill="#16A4C3"/>
<path d="M37.4707 38.7069C37.5992 38.6079 37.7169 38.4957 37.8304 38.3796C37.9106 38.2919 37.9874 38.2023 38.0608 38.1077C38.0779 38.0861 38.0941 38.0642 38.1112 38.0426C38.1373 37.9661 38.164 37.8895 38.1857 37.8112C38.2086 37.7271 38.2283 37.6432 38.2454 37.557C38.2654 37.424 38.2781 37.2887 38.2925 37.1539C38.308 37.0161 38.3254 36.8793 38.3345 36.74C38.3435 36.6025 38.3554 36.4661 38.3717 36.3309C38.3881 36.1977 38.3995 36.0628 38.4185 35.9304C38.4391 35.7867 38.465 35.6445 38.4865 35.501C38.507 35.3606 38.5253 35.2193 38.5484 35.0797C38.571 34.9445 38.5854 34.8067 38.5956 34.6673C38.6059 34.528 38.6161 34.3886 38.6249 34.249C38.6302 34.1631 38.6305 34.0769 38.6308 33.9897C38.6306 33.9035 38.63 33.817 38.6259 33.7295C38.6191 33.6685 38.6099 33.6074 38.5947 33.5466C38.576 33.4726 38.556 33.3989 38.5351 33.325C38.495 33.1839 38.453 33.0432 38.4125 32.9018C38.3731 32.7643 38.3394 32.6267 38.3097 32.4881C38.2949 32.4198 38.2825 32.3511 38.2712 32.2824C38.258 32.2019 38.2516 32.1207 38.247 32.04C38.2417 31.9451 38.2416 31.8503 38.2439 31.7565C38.2465 31.6502 38.2619 31.5475 38.2794 31.4455C38.2955 31.3532 38.3141 31.261 38.3334 31.1699C38.3518 31.0864 38.3732 31.0039 38.3894 30.9189C38.3948 30.88 38.3992 30.8403 38.403 30.8005C38.4048 30.7668 38.4079 30.7334 38.411 30.6993C38.4147 30.6385 38.4162 30.5772 38.4146 30.5148C38.4129 30.4474 38.4084 30.3795 38.4069 30.3118C38.4053 30.2366 38.4054 30.162 38.4072 30.0873C38.4105 29.9479 38.4201 29.8095 38.4323 29.6718C38.4449 29.5321 38.4739 29.3983 38.4995 29.2633C38.504 29.2417 38.5082 29.2203 38.5121 29.1987C38.5247 29.1214 38.535 29.0442 38.5427 28.9662C38.532 28.9757 38.5205 28.9845 38.5101 28.9943C38.4676 29.0412 38.4302 29.0915 38.3993 29.1483C38.3535 29.2501 38.3289 29.3616 38.3073 29.4748C38.2949 29.561 38.2858 29.6471 38.2863 29.7369C38.287 29.8269 38.2923 29.9174 38.295 30.0076C38.2974 30.0923 38.2993 30.1769 38.3042 30.2617C38.3095 30.3522 38.3167 30.4428 38.3221 30.533C38.332 30.7139 38.3331 30.8916 38.3163 31.067C38.2991 31.2468 38.2763 31.4249 38.2509 31.6021C38.2313 31.736 38.2104 31.8702 38.1996 32.0066C38.1879 32.1496 38.1836 32.2926 38.1925 32.4393C38.2101 32.616 38.2354 32.7929 38.2544 32.9698C38.2759 33.1674 38.2881 33.3634 38.2958 33.5596C38.3032 33.748 38.3136 33.9372 38.3091 34.1239C38.3044 34.3115 38.2836 34.4956 38.2621 34.6787C38.2396 34.8707 38.2027 35.0577 38.166 35.2444C38.132 35.4212 38.095 35.5961 38.0544 35.7702C38.0139 35.9419 37.9661 36.1105 37.925 36.2823C37.8829 36.4562 37.8441 36.6308 37.8065 36.8066C37.7293 37.168 37.6456 37.5274 37.5398 37.8763C37.4367 38.2173 37.3157 38.5508 37.1558 38.8591C37.135 38.8991 37.1138 38.9388 37.0927 38.9785C37.2214 38.8914 37.3479 38.8014 37.4707 38.7069ZM38.4851 37.5124C38.5446 37.4242 38.6063 37.3383 38.6697 37.2534C38.6293 37.2123 38.6114 37.1516 38.6263 37.0997C38.6941 36.8627 38.7561 36.6227 38.8014 36.3758C38.8222 36.2264 38.8447 36.077 38.8621 35.9266C38.8801 35.7699 38.8924 35.6108 38.9006 35.4516C38.9085 35.2951 38.9123 35.1376 38.9136 34.98C38.9152 34.8303 38.9187 34.6809 38.9175 34.5308C38.9173 34.5174 38.9176 34.504 38.9174 34.4906C38.9136 34.5265 38.9096 34.5627 38.9058 34.5985C38.8892 34.7456 38.8712 34.8931 38.8446 35.0371C38.8187 35.1748 38.7898 35.3115 38.7654 35.4501C38.7669 35.4402 38.7684 35.4312 38.7701 35.4219C38.7681 35.4324 38.7662 35.4435 38.7648 35.454C38.7465 35.5616 38.7273 35.6699 38.7047 35.7763C38.6825 35.882 38.661 35.9883 38.6417 36.0951C38.6198 36.224 38.597 36.3527 38.5739 36.4817C38.564 36.5446 38.5542 36.6081 38.5473 36.6721C38.5394 36.7435 38.533 36.8158 38.523 36.8865C38.5036 37.0224 38.4805 37.1567 38.4602 37.2924C38.4432 37.4089 38.4256 37.5254 38.4006 37.639C38.4289 37.5966 38.4567 37.5543 38.4851 37.5124ZM38.7401 32.6817C38.681 32.4336 38.6203 32.1861 38.5645 31.9379C38.5662 31.9848 38.5683 32.0311 38.5715 32.0782C38.5978 32.3463 38.667 32.6171 38.7412 32.883C38.7773 33.0109 38.8126 33.1385 38.847 33.2665C38.8202 33.0712 38.7862 32.8757 38.7401 32.6817ZM38.7706 29.861C38.8332 29.7851 38.9015 29.7122 38.9766 29.6509C39.0445 29.5962 39.1251 29.5557 39.2107 29.5331C39.3182 29.5048 39.43 29.5044 39.5464 29.5232C39.5697 29.5268 39.5925 29.5349 39.6153 29.543C39.6464 29.5543 39.6749 29.5648 39.7049 29.5792C39.7338 29.5929 39.7663 29.6151 39.7921 29.6341C39.8117 29.6483 39.8289 29.663 39.8466 29.68C39.8935 29.7247 39.932 29.7755 39.9686 29.829C39.9729 29.8356 39.9773 29.8423 39.9818 29.8495C39.9958 29.8452 40.0101 29.8413 40.0244 29.8388C40.0247 29.8361 40.0249 29.8343 40.0255 29.8319C40.0333 29.7911 40.0417 29.7508 40.0567 29.7132C40.0645 29.6935 40.0733 29.6741 40.082 29.6546C40.0816 29.6484 40.0806 29.6422 40.0804 29.6357C40.0768 29.5657 40.0776 29.4984 40.0839 29.43C40.0863 29.4052 40.0897 29.3807 40.0927 29.3559C40.0976 29.3146 40.0968 29.2724 40.094 29.23C40.0802 29.1171 40.0617 29.0032 40.0299 28.8911C40.0148 28.849 39.9969 28.8089 39.9757 28.7689C39.9117 28.6652 39.8437 28.5644 39.7626 28.4726C39.7272 28.4371 39.6898 28.4053 39.6493 28.3763C39.6327 28.3661 39.6158 28.3557 39.599 28.3449C39.559 28.3206 39.517 28.3016 39.4747 28.2852C39.4389 28.2738 39.4039 28.2666 39.3683 28.2618C39.2911 28.2577 39.216 28.2667 39.1413 28.2766C39.0801 28.2896 39.0214 28.3062 38.9649 28.333C38.9274 28.3553 38.8923 28.3808 38.8605 28.4109C38.8489 28.4245 38.8389 28.439 38.8293 28.4543C38.8257 28.4649 38.8227 28.476 38.8203 28.4871C38.8156 28.5379 38.8181 28.5898 38.8214 28.642C38.851 28.6608 38.8748 28.6918 38.8822 28.7289C38.8923 28.7789 38.8681 28.8253 38.8269 28.8392C38.8271 28.8692 38.8267 28.8987 38.8261 28.9284C38.8231 29.0695 38.8061 29.208 38.7868 29.3446C38.7681 29.4733 38.748 29.6019 38.7391 29.734C38.7354 29.7934 38.7321 29.8527 38.7293 29.9123C38.7428 29.895 38.7564 29.8777 38.7706 29.861ZM39.4951 37.3486C39.4791 37.3839 39.4648 37.4196 39.4559 37.459C39.4528 37.4833 39.451 37.5071 39.4513 37.5318C39.4546 37.5507 39.4585 37.5692 39.4638 37.5883C39.4979 37.6857 39.5446 37.7792 39.5943 37.8716C39.6748 38.0045 39.7654 38.1304 39.8549 38.2572C39.9448 38.3849 40.0387 38.5076 40.1418 38.624C40.1864 38.6697 40.2323 38.7121 40.2833 38.7486C40.338 38.7828 40.3935 38.8104 40.4514 38.8332C40.4952 38.846 40.5371 38.8553 40.5806 38.8609C40.6038 38.8616 40.6257 38.8611 40.6482 38.8597C40.6567 38.8429 40.6655 38.8265 40.6739 38.8097C40.6963 38.7637 40.718 38.7172 40.7386 38.6707C40.7638 38.6139 40.7864 38.5554 40.8093 38.4972C40.8536 38.3838 40.8818 38.2611 40.9085 38.1397C40.9201 38.069 40.9322 37.9976 40.9368 37.9248C40.9393 37.878 40.9421 37.8321 40.9425 37.7845C40.9424 37.742 40.9403 37.6996 40.9379 37.6566C40.9322 37.6033 40.9252 37.5504 40.9167 37.4973C40.9079 37.441 40.8923 37.3852 40.8772 37.3294C40.8635 37.2885 40.8492 37.2484 40.8333 37.2076C40.812 37.1509 40.7827 37.0952 40.7527 37.0414C40.7374 37.0171 40.7215 36.9944 40.7039 36.9712C40.6716 36.9388 40.6384 36.9086 40.602 36.8806C40.5708 36.861 40.5395 36.8432 40.5072 36.8275C40.4667 36.8078 40.4262 36.7919 40.3851 36.776C40.274 36.7374 40.1622 36.702 40.0494 36.6864C40.0068 36.6849 39.9649 36.6869 39.9237 36.691C39.8449 36.8024 39.7668 36.9144 39.6912 37.0281C39.6224 37.1328 39.5545 37.2369 39.4951 37.3486ZM30.6168 59.9145C30.6474 59.6425 30.6735 59.3685 30.6798 59.0905C30.6834 58.9485 30.6862 58.8062 30.6844 58.663C30.6831 58.5158 30.6797 58.3688 30.6789 58.222C30.6744 57.6533 30.6867 57.0877 30.678 56.5184C30.6737 56.2352 30.6637 55.9517 30.6567 55.6687C30.6497 55.3749 30.6376 55.0808 30.6238 54.7862C30.6105 54.5062 30.6029 54.227 30.589 53.947C30.5741 53.6495 30.5547 53.3515 30.5322 53.0535C30.5273 52.9892 30.522 52.9246 30.5168 52.8601L30.5169 52.8621L30.5165 52.8589C30.5156 52.8488 30.5152 52.8387 30.5143 52.8286C30.5147 52.8349 30.515 52.8405 30.5155 52.8467C30.4665 52.2838 30.4044 51.7195 30.3815 51.1591C30.3595 50.6113 30.4057 50.0774 30.4063 49.5341C30.4071 49.2411 30.4003 48.9471 30.3932 48.6527C30.3866 48.3819 30.3741 48.1098 30.3664 47.839C30.3627 47.7068 30.3644 47.5753 30.3642 47.4442C30.3641 47.3 30.3644 47.1566 30.3698 47.0136C30.374 46.8838 30.3863 46.755 30.3986 46.6271C30.411 46.4945 30.4225 46.3616 30.4323 46.2282C30.4455 46.0519 30.4579 45.8752 30.4694 45.6983C30.4749 45.6121 30.4805 45.5265 30.4827 45.4399C30.4846 45.3649 30.4821 45.2895 30.477 45.2133C30.4628 45.0864 30.4436 44.9592 30.4316 44.8322C30.4206 44.706 30.4193 44.5818 30.4216 44.4577C30.4265 44.1756 30.4531 43.8948 30.524 43.6344C30.5579 43.5088 30.61 43.3933 30.6646 43.2794C30.721 43.1607 30.7885 43.048 30.8575 42.9385C30.9977 42.7156 31.1434 42.4983 31.2887 42.2802C31.3237 42.2273 31.3591 42.1748 31.3947 42.1225C31.396 42.1207 31.3971 42.1191 31.3984 42.1173C31.4337 42.0662 31.4739 42.0197 31.513 41.9723C31.5572 41.919 31.6076 41.8714 31.6561 41.8226C31.7027 41.7758 31.7515 41.7312 31.7999 41.6864C31.9715 41.5252 32.1453 41.3661 32.3137 41.2012C32.3994 41.1177 32.4819 41.0305 32.5742 40.9549C32.6711 40.875 32.7708 40.7979 32.8741 40.7269C33.0891 40.5783 33.3261 40.461 33.5675 40.3577C33.7847 40.2652 34.0096 40.1889 34.2338 40.1121C34.3374 40.0764 34.4404 40.0393 34.5457 40.0081C34.6605 39.9737 34.777 39.9422 34.8939 39.9125C35.0057 39.8839 35.1179 39.8565 35.231 39.8314C35.3475 39.8052 35.4662 39.7834 35.5794 39.7491C35.6931 39.7148 35.8057 39.6775 35.9162 39.635C35.9948 39.6051 36.0711 39.5717 36.147 39.5365C36.1511 39.5062 36.1609 39.4769 36.1778 39.4517C36.2059 39.4096 36.237 39.3701 36.2672 39.3302C36.2965 39.2926 36.3257 39.2549 36.3527 39.2152C36.4099 39.131 36.4658 39.045 36.5196 38.9574C36.6163 38.7996 36.7058 38.6361 36.7895 38.4689C37.0781 37.8462 37.2702 37.167 37.4294 36.4775C37.4642 36.3277 37.5012 36.1793 37.5396 36.0312C37.5781 35.8821 37.6229 35.7354 37.6635 35.5872C37.7016 35.447 37.7366 35.3053 37.7692 35.1625C37.8025 35.0158 37.8362 34.869 37.8651 34.7201C37.9089 34.4563 37.9438 34.1864 37.9497 33.912C37.9532 33.7649 37.95 33.6161 37.949 33.4678C37.9477 33.3299 37.9439 33.1918 37.9345 33.0528C37.917 32.8698 37.8929 32.6866 37.8741 32.5041C37.8638 32.402 37.8584 32.3011 37.8585 32.2006C37.8588 32.109 37.8669 32.0191 37.8753 31.9295C37.8917 31.7524 37.9211 31.5785 37.943 31.4032C37.964 31.2339 37.9811 31.0618 37.9911 30.8894C38.0018 30.7075 37.996 30.5237 37.9875 30.3377C37.9795 30.1623 37.9828 29.9897 37.9842 29.816C37.9852 29.7264 37.989 29.6397 37.999 29.553C38.0105 29.4528 38.0359 29.3547 38.0651 29.2617C38.099 29.1542 38.1407 29.0513 38.2019 28.963C38.2213 28.9351 38.2421 28.9088 38.2655 28.8842C38.3091 28.8386 38.3551 28.7957 38.4056 28.7584C38.4458 28.7285 38.49 28.705 38.5342 28.6815C38.5401 28.6782 38.5465 28.6758 38.5522 28.6729C38.5513 28.6515 38.5505 28.6298 38.5492 28.6082C38.5475 28.5779 38.5451 28.548 38.5445 28.5177C38.5413 28.4319 38.5508 28.3482 38.5896 28.2785C38.5961 28.2669 38.6034 28.2556 38.6109 28.2448C38.694 28.1248 38.8326 28.0584 38.9704 28.0196C39.037 28.0009 39.1084 27.9921 39.1782 27.984C39.2123 27.9802 39.2466 27.9771 39.2816 27.976C39.3676 27.9719 39.4543 27.9864 39.541 28.0161C39.6912 28.0674 39.8424 28.1553 39.9614 28.2759C40.0521 28.3676 40.1318 28.469 40.2035 28.5774C40.23 28.6174 40.2544 28.6582 40.2789 28.6995C40.3077 28.749 40.3274 28.8033 40.3451 28.8569C40.3655 28.9192 40.3834 28.9823 40.3991 29.0455C40.4281 29.1624 40.4504 29.2806 40.4507 29.3971C40.4506 29.4019 40.4499 29.4067 40.4498 29.4115C40.486 29.4442 40.5122 29.4884 40.5215 29.535C40.5321 29.5874 40.5201 29.6275 40.4977 29.6681C40.4579 29.7394 40.4181 29.8112 40.3806 29.8843C40.3674 29.9141 40.3539 29.9442 40.341 29.9743C40.3839 30.0186 40.4257 30.0653 40.4633 30.1144C40.5427 30.2185 40.6124 30.3314 40.6744 30.4461C40.7039 30.5 40.7305 30.5543 40.7529 30.6109C40.775 30.6664 40.7945 30.7225 40.8142 30.7784C40.8563 30.8962 40.9004 31.0133 40.9463 31.13C41.0469 31.3859 41.1194 31.6489 41.1922 31.91C41.256 32.1377 41.328 32.3635 41.4003 32.5895C41.4626 32.7822 41.5271 32.9738 41.5957 33.165C41.6347 33.2729 41.6744 33.3804 41.7139 33.4882C41.7531 33.5948 41.7913 33.7015 41.8339 33.8071C41.92 34.0209 42.0058 34.235 42.0891 34.449C42.1743 34.6679 42.2469 34.8898 42.3183 35.1117C42.3164 35.1062 42.3148 35.1009 42.3128 35.0953C42.393 35.3442 42.4656 35.5935 42.5178 35.8455C42.5452 35.9753 42.5574 36.1073 42.5721 36.2366C42.5856 36.3546 42.5966 36.4724 42.6087 36.5902C42.6358 36.8541 42.6727 37.1199 42.6859 37.3828C42.6982 37.6302 42.7027 37.8773 42.6979 38.122C42.6951 38.2583 42.6895 38.3933 42.6822 38.5284C42.6752 38.6631 42.6623 38.7963 42.6513 38.9301C42.6412 39.054 42.6362 39.1782 42.6345 39.3038C42.6326 39.4243 42.64 39.5465 42.6492 39.6685C42.6608 39.7991 42.6736 39.9302 42.6839 40.0606C42.6936 40.1856 42.7053 40.3114 42.7056 40.4357C42.7072 40.678 42.6942 40.9171 42.6699 41.1535C42.6571 41.2775 42.643 41.4013 42.6294 41.5256C42.6167 41.6413 42.6074 41.758 42.5946 41.8737C42.5823 41.9849 42.5665 42.0951 42.5507 42.2053C42.5322 42.3353 42.5083 42.464 42.4686 42.5851C42.4291 42.706 42.3768 42.8203 42.3136 42.926C42.2875 42.9698 42.2594 43.0118 42.2285 43.0511C42.1866 43.1049 42.1386 43.1521 42.0907 43.1993C41.9286 43.3582 41.7165 43.4556 41.5169 43.5592C41.3096 43.667 41.101 43.7722 40.8898 43.8728C40.6836 43.9708 40.4704 44.0545 40.2604 44.1444C40.1717 44.182 40.0854 44.2239 39.9995 44.2673C39.8167 44.371 39.6407 44.4853 39.4607 44.5933C39.2688 44.7079 39.0664 44.8057 38.868 44.9098C38.5828 45.0672 38.3021 45.2324 38.0115 45.3809C37.7186 45.5303 37.4287 45.6846 37.1369 45.8355C37.0861 45.8632 37.0361 45.8921 36.9869 45.9222C36.9279 45.958 36.8736 46.0008 36.8185 46.043C36.7224 46.1172 36.6342 46.2021 36.5483 46.2889C36.4961 46.3452 36.4453 46.4027 36.3967 46.463C36.3402 46.5332 36.2917 46.6123 36.2422 46.6884C36.1461 46.837 36.0559 46.9885 35.9753 47.1483C35.9283 47.2481 35.8847 47.3489 35.8477 47.4547C35.8057 47.5754 35.7738 47.7013 35.7409 47.8263C35.7106 47.9392 35.685 48.0543 35.6613 48.17C35.6362 48.2904 35.61 48.4103 35.5871 48.5316C35.5522 48.7438 35.53 48.959 35.5175 49.1775C35.5049 49.3994 35.4942 49.6214 35.4833 49.8438C35.479 49.9457 35.4733 50.0474 35.472 50.1503C35.47 50.2581 35.4702 50.3657 35.4652 50.4724C35.4601 50.5892 35.4551 50.7057 35.4525 50.8227C35.45 50.9334 35.4548 51.045 35.4614 51.1571C35.4725 51.277 35.4878 51.397 35.4961 51.5164C35.5048 51.6445 35.5111 51.772 35.5161 51.8993C35.5213 52.0225 35.5256 52.1454 35.5322 52.2688C35.5384 52.3943 35.5472 52.5199 35.5568 52.6458C35.5894 52.9945 35.6129 53.3443 35.6661 53.6944C35.6932 53.8733 35.7251 54.0514 35.7637 54.2303C35.8065 54.4283 35.852 54.6263 35.8949 54.8249C35.9069 54.8805 35.8715 54.9301 35.8205 54.9323C35.7677 54.9348 35.7164 54.8897 35.7043 54.8335C35.6443 54.5578 35.5718 54.2833 35.5099 54.0073C35.4824 53.8853 35.4605 53.7626 35.4424 53.6398C35.4232 53.5111 35.4042 53.382 35.3907 53.2533C35.3624 52.9835 35.3355 52.7139 35.3124 52.4441C35.2903 52.1889 35.2825 51.935 35.2672 51.6806C35.2636 51.6174 35.2583 51.5544 35.2533 51.491C35.2388 51.3614 35.2211 51.232 35.2106 51.1029C35.2002 50.9758 35.1956 50.8503 35.1973 50.7247C35.1991 50.6045 35.2045 50.485 35.2091 50.3658C35.2137 50.2529 35.2104 50.1392 35.2126 50.0258C35.2152 49.9088 35.22 49.7917 35.223 49.675C35.2257 49.5639 35.2271 49.4532 35.2293 49.3422C35.2315 49.2205 35.2301 49.098 35.2321 48.9766C35.2349 48.8525 35.2417 48.7302 35.2537 48.608C35.2697 48.4413 35.2976 48.2788 35.3265 48.1163C35.3647 47.8902 35.4049 47.665 35.463 47.4466C35.4925 47.3357 35.5231 47.2254 35.5645 47.1208C35.6114 47.0029 35.6666 46.8905 35.7234 46.7789C35.7739 46.6786 35.833 46.5842 35.892 46.4907C35.9535 46.3934 36.0174 46.2982 36.0845 46.2057C36.1531 46.1105 36.2354 46.0265 36.3159 45.943C36.3957 45.8612 36.4792 45.7855 36.5658 45.712C36.6828 45.613 36.8147 45.5335 36.9503 45.4615C37.086 45.3902 37.2221 45.3197 37.3574 45.2474C37.3555 45.2487 37.353 45.25 37.3507 45.251C37.558 45.1408 37.7668 45.0338 37.975 44.9253C38.1504 44.8309 38.323 44.7327 38.4975 44.6366C38.6938 44.5278 38.8969 44.4306 39.0978 44.3296C39.1807 44.2851 39.2629 44.2401 39.3436 44.1919C39.4459 44.1308 39.5479 44.0694 39.651 44.0094C39.8576 43.8888 40.079 43.7954 40.3027 43.7064C40.7213 43.5396 41.122 43.3386 41.5176 43.1288C41.5243 43.1253 41.5313 43.1219 41.538 43.1183C41.6107 43.078 41.6844 43.0369 41.7507 42.9868C41.7876 42.9585 41.8235 42.9294 41.8588 42.8998C41.8814 42.8808 41.9017 42.8599 41.9219 42.839C41.9531 42.8001 41.9826 42.7606 42.0111 42.7193C42.0351 42.6855 42.0546 42.6474 42.074 42.6096C42.0981 42.5543 42.1214 42.4993 42.1391 42.4411C42.1567 42.3822 42.1706 42.3227 42.1823 42.2618C42.2061 42.0822 42.2234 41.9 42.2397 41.7184C42.2478 41.627 42.2543 41.5348 42.2649 41.4442C42.2761 41.3452 42.2882 41.2465 42.3003 41.1478C42.3231 40.9606 42.3424 40.7732 42.3554 40.5834C42.3685 40.3952 42.3597 40.2035 42.3458 40.0109C42.3234 39.7622 42.2917 39.5124 42.2813 39.2652C42.2708 39.0237 42.297 38.7899 42.3131 38.5539C42.3298 38.314 42.3389 38.0721 42.3393 37.8286C42.3394 37.5913 42.3371 37.3538 42.3203 37.1138C42.3061 36.9625 42.2889 36.8111 42.2732 36.6599C42.2564 36.5025 42.2409 36.3456 42.222 36.1884C42.2036 36.034 42.1803 35.8793 42.1415 35.7257C42.1042 35.5767 42.0606 35.4284 42.0145 35.2807C41.9384 35.048 41.8595 34.8148 41.7656 34.5865C41.6648 34.3416 41.5581 34.099 41.4569 33.8547C41.3593 33.6189 41.27 33.3794 41.1874 33.1392C41.1031 32.8956 41.0281 32.6506 40.9528 32.4054C40.9038 32.2436 40.8566 32.0823 40.8141 31.9196C40.7686 31.7467 40.7219 31.5741 40.6699 31.4024C40.6406 31.3169 40.6083 31.2323 40.5785 31.1469C40.5429 31.0463 40.5108 30.9453 40.4786 30.8436C40.4572 30.7781 40.4347 30.7125 40.4072 30.6482C40.382 30.5881 40.3482 30.5306 40.3153 30.4733C40.268 30.3965 40.2175 30.3219 40.1624 30.2511C40.2008 30.356 40.236 30.4617 40.2679 30.5675C40.3135 30.7181 40.3499 30.8707 40.3838 31.0231C40.4189 31.179 40.452 31.3356 40.4725 31.4922C40.4937 31.6553 40.5086 31.8175 40.5225 31.9798C40.5505 32.3002 40.5985 32.6214 40.6501 32.9427C40.6704 33.0699 40.6919 33.1976 40.7256 33.3245C40.7594 33.4504 40.7954 33.5754 40.834 33.7005C40.8848 33.8535 40.9408 34.0052 41.0028 34.1556C41.0677 34.3133 41.1409 34.4683 41.2056 34.6263C41.339 34.9517 41.4294 35.287 41.4878 35.6234C41.5217 35.8184 41.5518 36.0135 41.5776 36.2088C41.6051 36.4159 41.6241 36.6216 41.6411 36.8281C41.6698 37.1544 41.7049 37.4813 41.7324 37.8076C41.7599 38.1364 41.7623 38.4619 41.7829 38.79C41.7902 38.9086 41.7986 39.0272 41.807 39.1457C41.8205 39.2964 41.8339 39.4471 41.8474 39.5978C41.8621 39.7613 41.8738 39.9251 41.8968 40.0888C41.9206 40.2556 41.9443 40.4228 41.9752 40.5893C42.0054 40.7532 42.0344 40.9171 42.075 41.0796C42.0962 41.1645 42.1174 41.2485 42.139 41.3328C42.1519 41.3833 42.1165 41.4276 42.0717 41.43C42.0229 41.4321 41.9804 41.3916 41.967 41.3411C41.9223 41.1678 41.8767 40.9937 41.8413 40.8191C41.8054 40.6415 41.7697 40.4636 41.7355 40.286C41.6742 39.9672 41.6403 39.6477 41.6031 39.3292C41.5782 39.1136 41.5545 38.898 41.5363 38.6827C41.5172 38.4603 41.5017 38.238 41.4855 38.0161C41.4569 37.6928 41.4128 37.369 41.3764 37.0454C41.3579 36.8831 41.3445 36.7208 41.3249 36.5585C41.3047 36.3894 41.2798 36.2202 41.2522 36.0511C41.2265 35.8945 41.1948 35.7381 41.1629 35.5814C41.1319 35.4286 41.0906 35.2778 41.0445 35.1271C41.0188 35.0526 40.992 34.978 40.9643 34.9041C40.9338 34.8235 40.896 34.7445 40.8603 34.6653C40.7912 34.5128 40.7111 34.3642 40.6412 34.2114C40.5685 34.0535 40.5082 33.8913 40.4536 33.7286C40.4215 33.633 40.3916 33.5363 40.3627 33.4398C40.3404 33.3672 40.3197 33.2929 40.304 33.2199C40.2783 33.1005 40.2599 32.9812 40.2411 32.8617C40.2248 32.7554 40.2078 32.6492 40.1942 32.5428C40.1796 32.4278 40.1652 32.3135 40.1524 32.199C40.1395 32.0801 40.1304 31.9619 40.1211 31.8431C40.1105 31.7178 40.0976 31.5921 40.0792 31.466C40.0619 31.3428 40.0361 31.2198 40.0088 31.0974C39.9811 30.9717 39.9521 30.8465 39.9202 30.7216C39.892 30.6097 39.8578 30.4981 39.8226 30.3871C39.7815 30.2633 39.7375 30.1399 39.6751 30.0234C39.6576 29.9963 39.6391 29.9698 39.619 29.9449C39.6091 29.9356 39.5989 29.9268 39.5882 29.9187C39.5698 29.908 39.5513 29.8982 39.5322 29.8902C39.4963 29.8798 39.4606 29.8734 39.4248 29.8689C39.3822 29.8674 39.3411 29.8706 39.2999 29.8762C39.2665 29.8849 39.2347 29.8965 39.2036 29.9111C39.1172 29.9638 39.0443 30.0348 38.9732 30.1078C38.9086 30.1829 38.851 30.2615 38.8016 30.3495C38.7786 30.4018 38.7581 30.4542 38.7404 30.5101C38.7374 30.5197 38.7349 30.5294 38.7319 30.539C38.7335 30.5809 38.7345 30.6219 38.7343 30.6632C38.7335 30.7221 38.728 30.7795 38.7214 30.8369C38.7119 30.9212 38.6969 31.0037 38.6801 31.0857C38.6948 31.2164 38.7128 31.3476 38.7391 31.4783C38.7736 31.6465 38.8124 31.8138 38.853 31.9816C38.8917 32.14 38.9334 32.2986 38.976 32.4565C38.9981 32.5378 39.0219 32.619 39.0409 32.7002C39.0612 32.7849 39.0797 32.869 39.0978 32.9538C39.2369 33.6137 39.261 34.2733 39.2567 34.9215C39.2543 35.2317 39.2518 35.5408 39.2218 35.8447C39.2065 35.9982 39.1851 36.1491 39.1612 36.2999C39.1457 36.3967 39.1287 36.4926 39.1068 36.5874C39.0893 36.6629 39.0626 36.7355 39.0384 36.8077C39.0342 36.8198 39.0297 36.8317 39.0257 36.8434C39.0938 36.7747 39.1642 36.7089 39.24 36.6487C39.335 36.5731 39.4366 36.5016 39.5489 36.4518C39.5909 36.4337 39.6327 36.416 39.6769 36.4022C39.738 36.3832 39.8046 36.3744 39.8699 36.3697C39.9381 36.3646 40.0104 36.3728 40.0804 36.3834C40.1471 36.3941 40.2134 36.4177 40.2793 36.4395C40.4078 36.4826 40.5351 36.5351 40.6559 36.6059C40.766 36.6711 40.868 36.7578 40.9452 36.8658C40.9793 36.9139 41.0065 36.9673 41.0339 37.0189C41.0521 37.0519 41.0671 37.0856 41.083 37.1197C41.1132 37.1839 41.1365 37.2536 41.1564 37.3198C41.1788 37.3946 41.1978 37.4683 41.2126 37.5434C41.2402 37.6866 41.2485 37.8319 41.2438 37.9716C41.2387 38.1187 41.2127 38.2603 41.1845 38.4006C41.173 38.4567 41.1558 38.512 41.1383 38.566C41.116 38.634 41.0911 38.7003 41.0649 38.767C41.0431 38.8228 41.0163 38.8767 40.9903 38.9309C40.9594 38.996 40.927 39.0603 40.8951 39.1246C40.835 39.2441 40.7719 39.361 40.7082 39.4774C40.6448 39.5932 40.5795 39.7072 40.5152 39.8221C40.4569 39.9261 40.3976 40.0291 40.3354 40.1297C40.263 40.2471 40.1892 40.3627 40.1143 40.4778C40.0855 40.5224 40.0563 40.5669 40.0262 40.6103C39.9912 40.6616 39.9569 40.715 39.9178 40.763C39.8313 40.8698 39.7382 40.9685 39.6379 41.0602C39.5459 41.1443 39.4509 41.2253 39.3553 41.3049C39.1709 41.4595 38.9822 41.609 38.8093 41.7773C38.7884 41.7976 38.7674 41.818 38.7467 41.838C38.5941 42.0015 38.4507 42.1743 38.3091 42.3492C38.162 42.5311 38.0272 42.7244 37.8919 42.9174C37.7586 43.1085 37.6233 43.2985 37.4976 43.4966C37.4279 43.6064 37.3586 43.7171 37.2883 43.827C37.2509 43.8856 37.2138 43.9445 37.1779 44.0039C37.1502 44.0492 37.1273 44.0982 37.1031 44.1461C37.1004 44.1516 37.0975 44.1579 37.0946 44.1637C37.0886 44.1762 37.0828 44.1884 37.0768 44.2009C37.0613 44.2224 37.0406 44.2386 37.0155 44.2475C36.9788 44.2603 36.9357 44.2564 36.8968 44.2366C36.8164 44.1962 36.7649 44.0913 36.7928 44.0115C36.8414 43.8729 36.901 43.7413 36.9726 43.6174C37.0426 43.4951 37.1164 43.3756 37.1906 43.2563C37.3194 43.0482 37.461 42.8498 37.5984 42.6484C37.6746 42.5368 37.7511 42.4249 37.8289 42.3141C37.9005 42.2122 37.9767 42.1143 38.0546 42.0177C38.2181 41.815 38.3905 41.6185 38.5775 41.4397C38.8936 41.1375 39.2569 40.8924 39.5643 40.5799C39.6721 40.4546 39.7711 40.3208 39.8668 40.1841C39.9658 40.0434 40.0626 39.8999 40.1513 39.7505C40.2862 39.5245 40.4171 39.2961 40.5421 39.0632C40.5101 39.06 40.4783 39.0549 40.446 39.0476C40.3859 39.0341 40.3234 39.0104 40.266 38.9802C40.176 38.9331 40.0944 38.8716 40.0202 38.7973C39.9229 38.7 39.8385 38.5901 39.7563 38.4793C39.7203 38.4311 39.6875 38.3813 39.6531 38.3321C39.6159 38.2794 39.5782 38.2269 39.5414 38.1736C39.4627 38.0594 39.3863 37.9432 39.3277 37.8182C39.291 37.7406 39.2587 37.6633 39.235 37.5821C39.2188 37.5273 39.2171 37.4711 39.2178 37.417C39.2185 37.3673 39.2295 37.318 39.2451 37.2735C39.2662 37.2133 39.2966 37.1581 39.3263 37.1031C39.3472 37.0652 39.3697 37.0281 39.3927 36.9919C39.3538 37.0268 39.3153 37.062 39.2778 37.0986C39.2003 37.1817 39.1257 37.2674 39.0536 37.3562C38.9737 37.455 38.9019 37.5616 38.8314 37.6688C38.7625 37.772 38.6972 37.8778 38.6297 37.9821C38.5636 38.0843 38.4931 38.1832 38.4217 38.2809C38.3506 38.3783 38.2772 38.4728 38.2007 38.5652C38.1544 38.6206 38.1042 38.6718 38.0547 38.7236C38.0129 38.7672 37.9711 38.8109 37.9267 38.8514C37.8349 38.9346 37.7426 39.017 37.6436 39.0907C37.5383 39.1698 37.431 39.2458 37.323 39.3212C37.1281 39.4576 36.9248 39.581 36.72 39.7027C36.6016 39.7726 36.4838 39.8425 36.3612 39.9056C36.2513 39.9617 36.1359 40.0068 36.0197 40.0508C35.9031 40.0945 35.7849 40.1323 35.6635 40.1641C35.5464 40.1956 35.426 40.2183 35.3074 40.2452C35.0739 40.299 34.8411 40.3587 34.616 40.4338C34.3917 40.5086 34.1681 40.5845 33.9462 40.6648C33.7244 40.7451 33.5111 40.8434 33.3032 40.9507C33.237 40.9877 33.1719 41.0263 33.1087 41.0674C33.0316 41.1172 32.9575 41.171 32.8831 41.2246C32.7462 41.3234 32.6236 41.4405 32.4992 41.5548C32.3783 41.6656 32.2553 41.7741 32.1331 41.8844C32.0141 41.9924 31.8934 42.099 31.7795 42.2134C31.7399 42.2584 31.6997 42.3029 31.6641 42.3513C31.6233 42.4071 31.5831 42.4628 31.5434 42.5195C31.4666 42.6272 31.3908 42.7353 31.3153 42.8442C31.1662 43.061 31.0153 43.2768 30.892 43.5141C30.8586 43.5873 30.8278 43.6614 30.8022 43.7393C30.7793 43.8082 30.7639 43.8797 30.7508 43.9526C30.7172 44.2177 30.7117 44.493 30.7317 44.7695C30.7446 44.8938 30.7657 45.0183 30.7796 45.1425C30.7877 45.2114 30.7943 45.28 30.797 45.3483C30.7999 45.424 30.7989 45.4984 30.797 45.5725C30.7933 45.6964 30.7812 45.8186 30.7729 45.9415C30.7637 46.071 30.7533 46.2009 30.7421 46.3302C30.7181 46.6019 30.6809 46.8698 30.6642 47.1439C30.6563 47.2731 30.6519 47.4032 30.6483 47.533C30.6441 47.6697 30.6396 47.8061 30.64 47.9438C30.6415 48.2197 30.6509 48.4964 30.6541 48.7728C30.6583 49.0524 30.6671 49.3329 30.6636 49.6114C30.6601 49.8977 30.6502 50.1824 30.6423 50.468C30.6348 50.7386 30.6345 51.011 30.6439 51.2847C30.6542 51.5798 30.6766 51.8764 30.7006 52.1729L30.7006 52.1714C30.7472 52.7392 30.797 53.3077 30.8229 53.8735C30.836 54.1646 30.8439 54.4548 30.8542 54.7454C30.8641 55.0235 30.8769 55.3021 30.8811 55.5794C30.8861 55.8631 30.8947 56.147 30.8962 56.4297C30.8976 56.7157 30.894 57.0004 30.8884 57.285C30.8829 57.5749 30.8737 57.8646 30.87 58.1556C30.8663 58.4359 30.8699 58.7179 30.8574 58.9966C30.8433 59.3178 30.8143 59.6347 30.7782 59.9505C30.7731 59.995 30.7407 60.0266 30.6943 60.0161C30.6527 60.0071 30.6117 59.9591 30.6168 59.9145Z" fill="#16A4C3"/>
<ellipse cx="26.9597" cy="32.5204" rx="3.2126" ry="3.55795" fill="#FA6900"/>
<ellipse cx="30.1721" cy="32.5204" rx="3.2126" ry="3.55795" fill="#FA6900"/>
<ellipse cx="28.5661" cy="28.9622" rx="3.2126" ry="3.55795" fill="#FA6900"/>
<ellipse cx="0.967929" cy="2.12725" rx="0.967929" ry="2.12725" transform="matrix(0.976573 -0.215187 0.176818 0.984244 22.1958 22.1353)" fill="#FA6900"/>
<ellipse cx="0.967929" cy="2.12725" rx="0.967929" ry="2.12725" transform="matrix(0.976573 -0.215187 0.176818 0.984244 24.6558 19.4165)" fill="#FA6900"/>
<ellipse cx="0.968848" cy="2.12558" rx="0.968848" ry="2.12558" transform="matrix(-0.971349 -0.237656 -0.19562 0.98068 35.0669 22.2358)" fill="#FA6900"/>
<ellipse cx="0.968848" cy="2.12558" rx="0.968848" ry="2.12558" transform="matrix(-0.971349 -0.237656 -0.19562 0.98068 32.6597 19.4604)" fill="#FA6900"/>
<path d="M52.3134 49.189C51.9534 49.189 51.6744 49.09 51.4764 48.892C51.2964 48.676 51.2064 48.388 51.2064 48.028V31.099C51.2064 30.721 51.3054 30.442 51.5034 30.262C51.7014 30.064 51.9804 29.965 52.3404 29.965H58.7394C60.7734 29.965 62.3394 30.469 63.4374 31.477C64.5354 32.467 65.0844 33.871 65.0844 35.689C65.0844 37.489 64.5354 38.893 63.4374 39.901C62.3394 40.909 60.7734 41.413 58.7394 41.413H53.4204V48.028C53.4204 48.388 53.3304 48.676 53.1504 48.892C52.9704 49.09 52.6914 49.189 52.3134 49.189ZM53.4204 39.55H58.4694C59.9274 39.55 61.0254 39.226 61.7634 38.578C62.5194 37.912 62.8974 36.949 62.8974 35.689C62.8974 34.411 62.5194 33.448 61.7634 32.8C61.0254 32.134 59.9274 31.801 58.4694 31.801H53.4204V39.55ZM69.5074 49C69.1114 49 68.8054 48.901 68.5894 48.703C68.3914 48.487 68.2924 48.181 68.2924 47.785V31.18C68.2924 30.784 68.3914 30.487 68.5894 30.289C68.8054 30.073 69.1114 29.965 69.5074 29.965H79.5514C79.8574 29.965 80.0914 30.046 80.2534 30.208C80.4154 30.37 80.4964 30.595 80.4964 30.883C80.4964 31.189 80.4154 31.423 80.2534 31.585C80.0914 31.747 79.8574 31.828 79.5514 31.828H70.4524V38.416H78.9844C79.2904 38.416 79.5244 38.497 79.6864 38.659C79.8484 38.803 79.9294 39.028 79.9294 39.334C79.9294 39.64 79.8484 39.874 79.6864 40.036C79.5244 40.198 79.2904 40.279 78.9844 40.279H70.4524V47.137H79.5514C79.8574 47.137 80.0914 47.218 80.2534 47.38C80.4154 47.542 80.4964 47.767 80.4964 48.055C80.4964 48.361 80.4154 48.595 80.2534 48.757C80.0914 48.919 79.8574 49 79.5514 49H69.5074ZM89.4688 49.189C89.1268 49.189 88.8568 49.09 88.6588 48.892C88.4608 48.676 88.3618 48.388 88.3618 48.028V31.882H82.2868C81.9628 31.882 81.7108 31.792 81.5308 31.612C81.3508 31.432 81.2608 31.198 81.2608 30.91C81.2608 30.604 81.3508 30.37 81.5308 30.208C81.7108 30.046 81.9628 29.965 82.2868 29.965H96.6778C97.0018 29.965 97.2538 30.046 97.4338 30.208C97.6138 30.37 97.7038 30.604 97.7038 30.91C97.7038 31.216 97.6138 31.459 97.4338 31.639C97.2538 31.801 97.0018 31.882 96.6778 31.882H90.6028V48.028C90.6028 48.388 90.5038 48.676 90.3058 48.892C90.1258 49.09 89.8468 49.189 89.4688 49.189Z" fill="#FA6900"/>
<path d="M101.04 49.189C100.68 49.189 100.401 49.09 100.203 48.892C100.023 48.676 99.933 48.388 99.933 48.028V31.099C99.933 30.721 100.032 30.442 100.23 30.262C100.428 30.064 100.707 29.965 101.067 29.965H107.466C109.5 29.965 111.066 30.442 112.164 31.396C113.262 32.35 113.811 33.709 113.811 35.473C113.811 36.589 113.559 37.561 113.055 38.389C112.569 39.199 111.849 39.82 110.895 40.252C109.941 40.666 108.798 40.873 107.466 40.873L107.736 40.522H108.276C108.978 40.522 109.59 40.702 110.112 41.062C110.634 41.422 111.111 41.998 111.543 42.79L114.135 47.623C114.279 47.875 114.342 48.127 114.324 48.379C114.324 48.613 114.243 48.811 114.081 48.973C113.919 49.117 113.685 49.189 113.379 49.189C113.073 49.189 112.821 49.117 112.623 48.973C112.425 48.829 112.254 48.622 112.11 48.352L109.167 42.898C108.753 42.124 108.276 41.611 107.736 41.359C107.196 41.089 106.485 40.954 105.603 40.954H102.147V48.028C102.147 48.388 102.057 48.676 101.877 48.892C101.697 49.09 101.418 49.189 101.04 49.189ZM102.147 39.199H107.142C108.618 39.199 109.734 38.893 110.49 38.281C111.246 37.651 111.624 36.715 111.624 35.473C111.624 34.267 111.246 33.358 110.49 32.746C109.734 32.116 108.618 31.801 107.142 31.801H102.147V39.199ZM119.102 49.189C118.742 49.189 118.463 49.09 118.265 48.892C118.085 48.676 117.995 48.388 117.995 48.028V30.937C117.995 30.559 118.085 30.271 118.265 30.073C118.463 29.875 118.742 29.776 119.102 29.776C119.462 29.776 119.732 29.875 119.912 30.073C120.11 30.271 120.209 30.559 120.209 30.937V48.028C120.209 48.388 120.119 48.676 119.939 48.892C119.759 49.09 119.48 49.189 119.102 49.189ZM124.686 49.189C124.38 49.189 124.128 49.108 123.93 48.946C123.75 48.784 123.642 48.586 123.606 48.352C123.588 48.118 123.678 47.884 123.876 47.65L130.41 38.848V39.685L124.254 31.369C124.056 31.099 123.966 30.847 123.984 30.613C124.002 30.379 124.101 30.181 124.281 30.019C124.479 29.857 124.713 29.776 124.983 29.776C125.235 29.776 125.451 29.83 125.631 29.938C125.811 30.046 126 30.235 126.198 30.505L131.733 38.092H131.031L136.539 30.505C136.719 30.235 136.899 30.046 137.079 29.938C137.259 29.83 137.475 29.776 137.727 29.776C138.015 29.776 138.249 29.857 138.429 30.019C138.627 30.163 138.735 30.361 138.753 30.613C138.771 30.847 138.681 31.099 138.483 31.369L132.327 39.685V38.848L138.861 47.65C139.041 47.884 139.113 48.118 139.077 48.352C139.059 48.586 138.96 48.784 138.78 48.946C138.6 49.108 138.357 49.189 138.051 49.189C137.817 49.189 137.601 49.126 137.403 49C137.223 48.892 137.034 48.712 136.836 48.46L130.923 40.387H131.787L125.874 48.46C125.694 48.712 125.505 48.892 125.307 49C125.109 49.126 124.902 49.189 124.686 49.189Z" fill="#16A4C3"/>
</svg>
