<svg width="102" height="65" viewBox="0 0 102 65" fill="none" xmlns="http://www.w3.org/2000/svg">
<path d="M39.9063 21.8917C39.7402 21.7823 39.5881 21.6584 39.4414 21.53C39.3377 21.433 39.2384 21.3339 39.1436 21.2294C39.1215 21.2055 39.1005 21.1813 39.0784 21.1574C39.0446 21.0728 39.0101 20.9882 38.9822 20.9016C38.9525 20.8087 38.927 20.7159 38.905 20.6207C38.8791 20.4736 38.8627 20.3241 38.844 20.175C38.824 20.0227 38.8016 19.8715 38.7897 19.7175C38.7782 19.5655 38.7628 19.4147 38.7417 19.2652C38.7205 19.1181 38.7058 18.9689 38.6812 18.8226C38.6545 18.6637 38.6211 18.5065 38.5933 18.3479C38.5668 18.1926 38.5431 18.0365 38.5133 17.8821C38.4841 17.7326 38.4654 17.5803 38.4522 17.4263C38.439 17.2722 38.4258 17.1181 38.4144 16.9638C38.4076 16.8689 38.4072 16.7735 38.4067 16.6772C38.4071 16.5819 38.4078 16.4863 38.4131 16.3895C38.4218 16.3222 38.4338 16.2546 38.4535 16.1874C38.4776 16.1055 38.5035 16.0241 38.5305 15.9424C38.5824 15.7864 38.6366 15.6309 38.6889 15.4746C38.7399 15.3225 38.7834 15.1705 38.8218 15.0173C38.8409 14.9418 38.857 14.8659 38.8716 14.7899C38.8886 14.7008 38.8969 14.6111 38.9029 14.5219C38.9097 14.417 38.9098 14.3122 38.9068 14.2085C38.9035 14.091 38.8836 13.9775 38.861 13.8648C38.8402 13.7627 38.8162 13.6607 38.7912 13.5601C38.7674 13.4678 38.7397 13.3765 38.7188 13.2827C38.7118 13.2396 38.7062 13.1957 38.7012 13.1518C38.6989 13.1145 38.6948 13.0775 38.6909 13.0399C38.6861 12.9726 38.6842 12.9048 38.6862 12.8359C38.6884 12.7614 38.6943 12.6863 38.6962 12.6115C38.6983 12.5284 38.6981 12.4459 38.6959 12.3633C38.6915 12.2093 38.6791 12.0562 38.6633 11.904C38.647 11.7495 38.6096 11.6017 38.5764 11.4524C38.5707 11.4285 38.5652 11.4049 38.5601 11.3811C38.544 11.2956 38.5306 11.2102 38.5206 11.124C38.5345 11.1345 38.5493 11.1443 38.5627 11.155C38.6177 11.2069 38.6661 11.2625 38.7061 11.3253C38.7653 11.4379 38.7971 11.5611 38.8249 11.6862C38.8409 11.7815 38.8527 11.8767 38.8521 11.9759C38.8511 12.0755 38.8444 12.1755 38.8408 12.2753C38.8377 12.3688 38.8353 12.4624 38.8289 12.5561C38.8221 12.6561 38.8128 12.7563 38.8058 12.856C38.793 13.0559 38.7916 13.2525 38.8132 13.4463C38.8355 13.6451 38.865 13.8419 38.8978 14.0379C38.9231 14.1858 38.9501 14.3342 38.9641 14.485C38.9792 14.6431 38.9848 14.8011 38.9733 14.9634C38.9506 15.1587 38.9179 15.3542 38.8933 15.5498C38.8655 15.7682 38.8498 15.9848 38.8397 16.2017C38.8303 16.41 38.8167 16.6192 38.8226 16.8255C38.8287 17.0329 38.8555 17.2365 38.8833 17.4388C38.9124 17.651 38.9601 17.8578 39.0076 18.0642C39.0516 18.2596 39.0993 18.4529 39.1518 18.6454C39.2042 18.8353 39.266 19.0216 39.3191 19.2115C39.3734 19.4037 39.4237 19.5968 39.4722 19.7911C39.572 20.1906 39.6802 20.5879 39.817 20.9736C39.9502 21.3505 40.1066 21.7192 40.3133 22.0601C40.3402 22.1042 40.3676 22.1481 40.3949 22.192C40.2286 22.0957 40.0651 21.9962 39.9063 21.8917ZM38.5951 20.5714C38.5181 20.4739 38.4385 20.3789 38.3564 20.2851C38.4087 20.2396 38.4319 20.1725 38.4126 20.1151C38.3249 19.8532 38.2448 19.5879 38.1863 19.3149C38.1593 19.1498 38.1302 18.9845 38.1078 18.8183C38.0845 18.6451 38.0686 18.4692 38.058 18.2932C38.0478 18.1202 38.0429 17.9461 38.0412 17.7719C38.0391 17.6064 38.0346 17.4412 38.0362 17.2753C38.0365 17.2605 38.036 17.2457 38.0363 17.2309C38.0412 17.2706 38.0464 17.3106 38.0513 17.3502C38.0728 17.5128 38.096 17.6758 38.1304 17.835C38.1639 17.9873 38.2013 18.1384 38.2328 18.2916C38.2308 18.2806 38.2289 18.2707 38.2266 18.2604C38.2292 18.272 38.2317 18.2843 38.2336 18.2959C38.2572 18.4149 38.282 18.5346 38.3113 18.6521C38.3399 18.769 38.3678 18.8865 38.3927 19.0046C38.421 19.1471 38.4505 19.2893 38.4803 19.4319C38.4931 19.5015 38.5057 19.5717 38.5147 19.6424C38.5249 19.7214 38.5332 19.8013 38.5461 19.8794C38.5712 20.0297 38.601 20.1782 38.6273 20.3281C38.6493 20.4569 38.672 20.5857 38.7043 20.7113C38.6677 20.6644 38.6318 20.6176 38.5951 20.5714ZM38.2654 15.2313C38.3419 14.957 38.4203 14.6835 38.4925 14.409C38.4903 14.4609 38.4875 14.512 38.4834 14.5641C38.4494 14.8605 38.36 15.1599 38.264 15.4538C38.2174 15.5952 38.1718 15.7363 38.1272 15.8777C38.1619 15.6619 38.2059 15.4458 38.2654 15.2313ZM38.226 12.1131C38.1452 12.0292 38.0568 11.9487 37.9598 11.8809C37.872 11.8204 37.7678 11.7757 37.6572 11.7507C37.5182 11.7193 37.3737 11.719 37.2232 11.7397C37.1932 11.7437 37.1637 11.7527 37.1342 11.7617C37.094 11.7741 37.0572 11.7858 37.0183 11.8016C36.981 11.8168 36.939 11.8414 36.9057 11.8624C36.8803 11.8781 36.8581 11.8942 36.8352 11.913C36.7746 11.9625 36.7248 12.0186 36.6775 12.0778C36.6719 12.0851 36.6663 12.0924 36.6605 12.1004C36.6424 12.0957 36.6239 12.0913 36.6054 12.0886C36.605 12.0856 36.6048 12.0836 36.604 12.081C36.5939 12.0359 36.5831 11.9914 36.5637 11.9498C36.5535 11.928 36.5422 11.9065 36.531 11.885C36.5315 11.8781 36.5328 11.8713 36.533 11.8641C36.5377 11.7867 36.5367 11.7123 36.5285 11.6367C36.5253 11.6093 36.521 11.5822 36.5172 11.5547C36.5108 11.5091 36.5118 11.4625 36.5154 11.4156C36.5333 11.2908 36.5572 11.1649 36.5983 11.041C36.6177 10.9945 36.6409 10.9501 36.6684 10.9059C36.751 10.7913 36.839 10.6798 36.9438 10.5783C36.9896 10.5391 37.038 10.504 37.0902 10.472C37.1117 10.4607 37.1336 10.4491 37.1552 10.4372C37.207 10.4104 37.2613 10.3893 37.316 10.3712C37.3623 10.3586 37.4075 10.3506 37.4535 10.3453C37.5533 10.3409 37.6504 10.3508 37.7469 10.3617C37.8259 10.3761 37.9019 10.3944 37.9749 10.424C38.0234 10.4487 38.0687 10.4769 38.1099 10.5101C38.1248 10.5252 38.1378 10.5412 38.1501 10.5581C38.1548 10.5698 38.1587 10.5821 38.1619 10.5944C38.1679 10.6506 38.1647 10.708 38.1604 10.7656C38.1221 10.7864 38.0914 10.8206 38.0817 10.8617C38.0688 10.917 38.1001 10.9683 38.1533 10.9836C38.153 11.0168 38.1535 11.0494 38.1543 11.0823C38.1582 11.2382 38.1802 11.3913 38.2051 11.5423C38.2293 11.6846 38.2552 11.8267 38.2668 11.9728C38.2716 12.0384 38.2758 12.104 38.2795 12.1699C38.262 12.1508 38.2444 12.1316 38.226 12.1131ZM37.2896 20.3903C37.3103 20.4292 37.3287 20.4688 37.3402 20.5123C37.3442 20.5391 37.3465 20.5655 37.3462 20.5928C37.342 20.6136 37.3368 20.6341 37.3301 20.6552C37.286 20.7629 37.2255 20.8662 37.1614 20.9684C37.0573 21.1153 36.9401 21.2545 36.8245 21.3947C36.7082 21.5358 36.5869 21.6715 36.4537 21.8001C36.396 21.8506 36.3367 21.8975 36.2708 21.9378C36.2001 21.9757 36.1283 22.0062 36.0535 22.0314C35.9969 22.0455 35.9426 22.0558 35.8865 22.062C35.8564 22.0627 35.8282 22.0622 35.799 22.0607C35.7881 22.0422 35.7768 22.0239 35.7658 22.0054C35.7369 21.9546 35.7088 21.9031 35.6822 21.8517C35.6497 21.7889 35.6205 21.7243 35.5908 21.6599C35.5335 21.5346 35.4972 21.399 35.4626 21.2648C35.4476 21.1866 35.432 21.1077 35.426 21.0273C35.4229 20.9755 35.4191 20.9248 35.4187 20.8721C35.4187 20.8251 35.4216 20.7782 35.4245 20.7307C35.432 20.6718 35.4411 20.6134 35.452 20.5547C35.4634 20.4923 35.4836 20.4307 35.503 20.3691C35.5207 20.3238 35.5393 20.2795 35.5598 20.2343C35.5873 20.1717 35.6252 20.1102 35.664 20.0506C35.6838 20.0238 35.7043 19.9987 35.727 19.973C35.7688 19.9373 35.8118 19.9039 35.8588 19.8729C35.8991 19.8513 35.9396 19.8316 35.9813 19.8142C36.0337 19.7924 36.0861 19.7748 36.1392 19.7573C36.2828 19.7146 36.4273 19.6755 36.5731 19.6582C36.6282 19.6565 36.6823 19.6588 36.7356 19.6633C36.8374 19.7865 36.9384 19.9103 37.036 20.0359C37.125 20.1517 37.2128 20.2668 37.2896 20.3903ZM48.7657 45.3356C48.7262 45.0348 48.6925 44.732 48.6843 44.4247C48.6796 44.2677 48.676 44.1104 48.6784 43.952C48.6799 43.7894 48.6843 43.6269 48.6855 43.4645C48.6913 42.8359 48.6753 42.2107 48.6866 41.5814C48.6922 41.2683 48.705 40.9549 48.7141 40.6421C48.7232 40.3173 48.7388 39.9922 48.7566 39.6665C48.7738 39.357 48.7837 39.0484 48.8017 38.7388C48.8209 38.4099 48.846 38.0806 48.875 37.7511C48.8814 37.68 48.8882 37.6086 48.895 37.5373L48.8948 37.5396L48.8953 37.536C48.8965 37.5248 48.897 37.5137 48.8982 37.5026C48.8976 37.5094 48.8972 37.5157 48.8967 37.5225C48.96 36.9003 49.0403 36.2764 49.0698 35.657C49.0983 35.0514 49.0386 34.4612 49.0378 33.8606C49.0367 33.5368 49.0455 33.2117 49.0547 32.8863C49.0632 32.5869 49.0794 32.2861 49.0893 31.9867C49.0941 31.8407 49.092 31.6953 49.0923 31.5503C49.0924 31.3909 49.0919 31.2324 49.085 31.0744C49.0796 30.9308 49.0636 30.7885 49.0477 30.6472C49.0317 30.5005 49.0168 30.3537 49.0042 30.2062C48.9871 30.0112 48.9711 29.816 48.9562 29.6204C48.9491 29.5251 48.9418 29.4305 48.9391 29.3347C48.9365 29.2518 48.9398 29.1684 48.9464 29.0842C48.9647 28.9439 48.9896 28.8033 49.0051 28.6629C49.0193 28.5235 49.021 28.3861 49.0181 28.2489C49.0117 27.9371 48.9773 27.6266 48.8857 27.3389C48.8419 27.2 48.7745 27.0723 48.7039 26.9464C48.631 26.8152 48.5437 26.6906 48.4545 26.5696C48.2733 26.3232 48.085 26.083 47.8972 25.8418C47.8519 25.7834 47.8062 25.7253 47.7601 25.6675C47.7585 25.6655 47.7571 25.6638 47.7554 25.6618C47.7097 25.6053 47.6579 25.5539 47.6073 25.5015C47.5501 25.4426 47.485 25.3899 47.4223 25.3361C47.362 25.2843 47.299 25.235 47.2364 25.1854C47.0146 25.0073 46.7899 24.8313 46.5723 24.6491C46.4615 24.5568 46.3548 24.4603 46.2355 24.3768C46.1103 24.2885 45.9815 24.2033 45.8478 24.1248C45.5699 23.9605 45.2636 23.8308 44.9516 23.7167C44.6708 23.6144 44.3802 23.5301 44.0904 23.4451C43.9565 23.4057 43.8233 23.3647 43.6872 23.3302C43.5388 23.2922 43.3882 23.2573 43.2371 23.2245C43.0925 23.1929 42.9476 23.1626 42.8014 23.1348C42.6508 23.1059 42.4974 23.0818 42.351 23.0439C42.204 23.006 42.0585 22.9648 41.9157 22.9178C41.8141 22.8847 41.7155 22.8477 41.6173 22.8088C41.612 22.7754 41.5994 22.743 41.5775 22.7151C41.5412 22.6686 41.501 22.6249 41.462 22.5809C41.4241 22.5392 41.3863 22.4975 41.3515 22.4537C41.2775 22.3606 41.2053 22.2655 41.1357 22.1687C41.0107 21.9942 40.895 21.8136 40.7868 21.6286C40.4137 20.9403 40.1655 20.1895 39.9597 19.4273C39.9147 19.2617 39.8669 19.0977 39.8172 18.9339C39.7674 18.7691 39.7096 18.607 39.6571 18.4431C39.6079 18.2882 39.5626 18.1315 39.5204 17.9736C39.4775 17.8114 39.4339 17.6492 39.3965 17.4846C39.3399 17.193 39.2948 16.8947 39.2872 16.5913C39.2827 16.4287 39.2868 16.2642 39.288 16.1002C39.2897 15.9478 39.2946 15.7951 39.3069 15.6415C39.3295 15.4392 39.3606 15.2367 39.3849 15.0349C39.3982 14.9221 39.4052 14.8106 39.405 14.6995C39.4046 14.5982 39.3942 14.4988 39.3834 14.3998C39.3622 14.204 39.3242 14.0118 39.2958 13.818C39.2686 13.6308 39.2465 13.4405 39.2337 13.25C39.2198 13.0489 39.2273 12.8458 39.2383 12.6401C39.2486 12.4463 39.2444 12.2554 39.2425 12.0634C39.2413 11.9644 39.2364 11.8685 39.2234 11.7727C39.2085 11.6619 39.1757 11.5534 39.1381 11.4506C39.0942 11.3318 39.0402 11.2181 38.9612 11.1205C38.9361 11.0896 38.9092 11.0605 38.879 11.0333C38.8226 10.983 38.7631 10.9355 38.6978 10.8943C38.6459 10.8613 38.5888 10.8353 38.5316 10.8092C38.524 10.8056 38.5157 10.803 38.5083 10.7997C38.5096 10.7761 38.5106 10.7522 38.5123 10.7282C38.5145 10.6948 38.5176 10.6617 38.5184 10.6282C38.5225 10.5334 38.5101 10.4408 38.46 10.3638C38.4516 10.351 38.4422 10.3384 38.4325 10.3265C38.3251 10.1939 38.1459 10.1204 37.9677 10.0776C37.8817 10.0569 37.7895 10.0472 37.6992 10.0382C37.6551 10.0341 37.6108 10.0306 37.5656 10.0294C37.4544 10.0248 37.3423 10.0409 37.2302 10.0737C37.0361 10.1305 36.8407 10.2276 36.6868 10.361C36.5696 10.4623 36.4666 10.5744 36.3739 10.6942C36.3397 10.7384 36.3082 10.7835 36.2765 10.8292C36.2391 10.8839 36.2137 10.9439 36.1909 11.0032C36.1644 11.0721 36.1413 11.1418 36.121 11.2116C36.0836 11.3409 36.0547 11.4715 36.0543 11.6004C36.0545 11.6056 36.0554 11.6109 36.0556 11.6162C36.0087 11.6524 35.9749 11.7013 35.9628 11.7527C35.9492 11.8107 35.9647 11.8551 35.9936 11.9C36.0451 11.9787 36.0964 12.058 36.1449 12.1389C36.1621 12.1719 36.1795 12.2051 36.1962 12.2384C36.1407 12.2873 36.0866 12.339 36.038 12.3932C35.9354 12.5083 35.8454 12.6331 35.7651 12.76C35.727 12.8195 35.6927 12.8796 35.6638 12.9422C35.6352 13.0034 35.61 13.0655 35.5845 13.1273C35.5301 13.2575 35.4731 13.3869 35.4137 13.516C35.2837 13.7989 35.19 14.0895 35.0959 14.3782C35.0134 14.6299 34.9204 14.8795 34.827 15.1294C34.7464 15.3424 34.663 15.5542 34.5743 15.7655C34.524 15.8848 34.4726 16.0036 34.4216 16.1228C34.3708 16.2407 34.3215 16.3586 34.2664 16.4753C34.1552 16.7117 34.0442 16.9484 33.9365 17.1849C33.8264 17.4269 33.7326 17.6722 33.6403 17.9175C33.6428 17.9114 33.6448 17.9055 33.6474 17.8994C33.5437 18.1745 33.4499 18.4501 33.3824 18.7287C33.347 18.8722 33.3312 19.0181 33.3122 19.161C33.2948 19.2914 33.2806 19.4217 33.2649 19.5518C33.2298 19.8436 33.1822 20.1375 33.1652 20.428C33.1493 20.7015 33.1434 20.9748 33.1496 21.2452C33.1533 21.3959 33.1605 21.5451 33.1699 21.6944C33.179 21.8434 33.1956 21.9907 33.2099 22.1385C33.2229 22.2755 33.2294 22.4128 33.2316 22.5516C33.2341 22.6849 33.2244 22.8199 33.2126 22.9548C33.1976 23.0992 33.181 23.2441 33.1678 23.3882C33.1552 23.5264 33.14 23.6655 33.1397 23.8029C33.1376 24.0707 33.1544 24.335 33.1858 24.5963C33.2023 24.7334 33.2206 24.8702 33.2381 25.0077C33.2546 25.1356 33.2666 25.2646 33.2831 25.3925C33.299 25.5155 33.3195 25.6373 33.3399 25.7591C33.3637 25.9027 33.3946 26.045 33.446 26.179C33.497 26.3125 33.5647 26.4389 33.6463 26.5557C33.6801 26.6041 33.7164 26.6507 33.7563 26.694C33.8106 26.7535 33.8725 26.8057 33.9345 26.8579C34.1441 27.0335 34.4182 27.1411 34.6762 27.2557C34.9441 27.3749 35.2138 27.4912 35.4868 27.6024C35.7533 27.7107 36.0289 27.8033 36.3004 27.9026C36.4149 27.9441 36.5266 27.9905 36.6375 28.0385C36.8738 28.1531 37.1013 28.2795 37.334 28.3989C37.5821 28.5255 37.8437 28.6336 38.1001 28.7487C38.4688 28.9227 38.8316 29.1054 39.2073 29.2694C39.5858 29.4346 39.9607 29.6053 40.3378 29.7721C40.4034 29.8027 40.468 29.8346 40.5316 29.8678C40.6079 29.9075 40.6782 29.9547 40.7493 30.0014C40.8735 30.0834 40.9876 30.1772 41.0986 30.2732C41.166 30.3355 41.2318 30.399 41.2946 30.4657C41.3677 30.5433 41.4303 30.6307 41.4943 30.7149C41.6185 30.8791 41.7351 31.0467 41.8393 31.2232C41.9001 31.3335 41.9563 31.445 42.0042 31.562C42.0585 31.6954 42.0997 31.8345 42.1422 31.9727C42.1815 32.0976 42.2145 32.2248 42.2452 32.3527C42.2776 32.4858 42.3114 32.6184 42.3411 32.7524C42.3862 32.987 42.4149 33.2248 42.431 33.4665C42.4474 33.7117 42.4612 33.9572 42.4752 34.203C42.4808 34.3156 42.4881 34.428 42.4898 34.5418C42.4924 34.6609 42.4922 34.7799 42.4986 34.8978C42.5053 35.027 42.5117 35.1558 42.515 35.2851C42.5183 35.4075 42.5121 35.5308 42.5036 35.6547C42.4892 35.7873 42.4694 35.9199 42.4587 36.052C42.4475 36.1935 42.4393 36.3345 42.4329 36.4753C42.4262 36.6114 42.4206 36.7473 42.412 36.8836C42.404 37.0224 42.3927 37.1613 42.3803 37.3005C42.3381 37.6859 42.3078 38.0726 42.239 38.4596C42.2039 38.6573 42.1627 38.8542 42.1127 39.052C42.0575 39.2709 41.9987 39.4897 41.9432 39.7093C41.9277 39.7708 41.9735 39.8256 42.0393 39.828C42.1076 39.8308 42.174 39.781 42.1896 39.7188C42.2672 39.414 42.3608 39.1105 42.4409 38.8055C42.4765 38.6706 42.5047 38.535 42.5281 38.3992C42.5529 38.2569 42.5775 38.1143 42.5949 37.972C42.6315 37.6737 42.6663 37.3757 42.6961 37.0775C42.7247 36.7953 42.7348 36.5147 42.7546 36.2335C42.7593 36.1636 42.766 36.0939 42.7725 36.0238C42.7912 35.8806 42.8141 35.7376 42.8277 35.5948C42.8412 35.4544 42.8471 35.3156 42.8449 35.1768C42.8427 35.0439 42.8357 34.9118 42.8296 34.78C42.8238 34.6552 42.828 34.5295 42.8251 34.4041C42.8217 34.2748 42.8155 34.1454 42.8117 34.0163C42.8082 33.8936 42.8064 33.7712 42.8035 33.6485C42.8007 33.5139 42.8026 33.3786 42.8 33.2444C42.7963 33.1071 42.7875 32.972 42.772 32.8369C42.7513 32.6526 42.7153 32.473 42.6779 32.2933C42.6286 32.0434 42.5766 31.7944 42.5014 31.553C42.4634 31.4304 42.4238 31.3085 42.3703 31.1929C42.3096 31.0625 42.2383 30.9383 42.1649 30.8149C42.0996 30.7041 42.0233 30.5997 41.947 30.4963C41.8675 30.3888 41.7849 30.2835 41.6981 30.1813C41.6095 30.076 41.503 29.9832 41.399 29.8908C41.2958 29.8004 41.188 29.7168 41.076 29.6356C40.9248 29.5261 40.7543 29.4382 40.579 29.3586C40.4036 29.2797 40.2276 29.2018 40.0528 29.1219C40.0553 29.1233 40.0585 29.1248 40.0614 29.1259C39.7934 29.0041 39.5236 28.8857 39.2544 28.7658C39.0278 28.6615 38.8046 28.553 38.5791 28.4467C38.3253 28.3264 38.0628 28.219 37.8031 28.1073C37.696 28.0582 37.5898 28.0084 37.4854 27.9551C37.3531 27.8876 37.2213 27.8197 37.0881 27.7533C36.821 27.62 36.5348 27.5168 36.2456 27.4184C35.7046 27.234 35.1867 27.0118 34.6753 26.78C34.6666 26.776 34.6575 26.7723 34.6489 26.7684C34.5549 26.7237 34.4597 26.6784 34.374 26.6229C34.3263 26.5917 34.2798 26.5595 34.2342 26.5267C34.205 26.5058 34.1788 26.4827 34.1527 26.4596C34.1123 26.4165 34.0743 26.3729 34.0374 26.3273C34.0064 26.2899 33.9811 26.2477 33.9561 26.2059C33.925 26.1448 33.8948 26.0841 33.8719 26.0197C33.8492 25.9547 33.8312 25.8888 33.8161 25.8215C33.7853 25.623 33.7629 25.4215 33.7419 25.2208C33.7315 25.1198 33.7231 25.0179 33.7093 24.9177C33.6948 24.8083 33.6792 24.6992 33.6636 24.5901C33.634 24.3831 33.6091 24.1759 33.5923 23.9662C33.5754 23.7581 33.5868 23.5462 33.6048 23.3333C33.6337 23.0583 33.6747 22.7823 33.6881 22.509C33.7017 22.242 33.6679 21.9835 33.647 21.7227C33.6254 21.4575 33.6136 21.1901 33.6132 20.9208C33.613 20.6585 33.616 20.396 33.6377 20.1306C33.656 19.9634 33.6782 19.796 33.6986 19.6289C33.7203 19.4549 33.7404 19.2815 33.7648 19.1077C33.7885 18.9371 33.8187 18.7661 33.8689 18.5962C33.9171 18.4316 33.9733 18.2675 34.033 18.1043C34.1313 17.8471 34.2334 17.5893 34.3548 17.3369C34.4851 17.0662 34.6229 16.7981 34.7538 16.528C34.88 16.2673 34.9954 16.0025 35.1021 15.737C35.2111 15.4677 35.308 15.1969 35.4054 14.9258C35.4687 14.747 35.5297 14.5687 35.5847 14.3889C35.6434 14.1977 35.7038 14.0069 35.7711 13.817C35.8088 13.7226 35.8507 13.629 35.8892 13.5346C35.9352 13.4234 35.9767 13.3117 36.0183 13.1994C36.046 13.1269 36.075 13.0545 36.1106 12.9833C36.1432 12.9169 36.1869 12.8533 36.2294 12.79C36.2906 12.7051 36.3557 12.6226 36.427 12.5444C36.3774 12.6604 36.3319 12.7771 36.2906 12.8941C36.2316 13.0606 36.1846 13.2293 36.1408 13.3977C36.0954 13.5701 36.0526 13.7432 36.0262 13.9163C35.9988 14.0966 35.9795 14.276 35.9615 14.4554C35.9253 14.8095 35.8633 15.1646 35.7966 15.5198C35.7704 15.6604 35.7426 15.8016 35.699 15.9418C35.6554 16.081 35.6087 16.2192 35.5589 16.3575C35.4932 16.5267 35.4209 16.6943 35.3407 16.8606C35.2568 17.0349 35.1622 17.2062 35.0786 17.381C34.9061 17.7407 34.7893 18.1112 34.7137 18.4832C34.6699 18.6987 34.631 18.9143 34.5978 19.1302C34.5622 19.3592 34.5376 19.5866 34.5156 19.8148C34.4786 20.1756 34.4332 20.5369 34.3976 20.8977C34.362 21.2611 34.3589 21.6209 34.3324 21.9837C34.3229 22.1148 34.3121 22.2458 34.3012 22.3769C34.2838 22.5435 34.2664 22.7101 34.249 22.8767C34.23 23.0573 34.2148 23.2385 34.1852 23.4194C34.1543 23.6038 34.1238 23.7886 34.0838 23.9727C34.0448 24.1538 34.0072 24.335 33.9548 24.5147C33.9274 24.6085 33.9 24.7014 33.8721 24.7946C33.8554 24.8504 33.9011 24.8993 33.9591 24.9021C34.0221 24.9043 34.077 24.8596 34.0944 24.8038C34.1521 24.6122 34.2111 24.4197 34.2568 24.2267C34.3032 24.0304 34.3494 23.8337 34.3937 23.6374C34.4728 23.285 34.5166 22.9318 34.5648 22.5797C34.5969 22.3414 34.6276 22.103 34.6511 21.865C34.6758 21.6192 34.6958 21.3735 34.7168 21.1281C34.7538 20.7707 34.8108 20.4128 34.8578 20.0551C34.8818 19.8757 34.899 19.6962 34.9244 19.5168C34.9505 19.3299 34.9827 19.1428 35.0184 18.956C35.0516 18.7828 35.0925 18.6099 35.1338 18.4368C35.1738 18.2678 35.2272 18.1011 35.2868 17.9346C35.32 17.8521 35.3546 17.7697 35.3905 17.688C35.4299 17.5989 35.4788 17.5115 35.5249 17.424C35.6142 17.2555 35.7178 17.0911 35.8082 16.9223C35.9021 16.7477 35.98 16.5685 36.0506 16.3886C36.0921 16.2828 36.1307 16.1759 36.1682 16.0693C36.197 15.989 36.2237 15.907 36.244 15.8263C36.2771 15.6942 36.301 15.5624 36.3252 15.4302C36.3464 15.3128 36.3683 15.1953 36.3859 15.0777C36.4047 14.9506 36.4234 14.8242 36.44 14.6977C36.4566 14.5662 36.4684 14.4355 36.4804 14.3042C36.4941 14.1657 36.5107 14.0267 36.5346 13.8874C36.5569 13.7512 36.5903 13.6152 36.6256 13.4799C36.6613 13.341 36.6988 13.2025 36.7401 13.0645C36.7766 12.9408 36.8208 12.8174 36.8663 12.6947C36.9194 12.5578 36.9762 12.4214 37.0569 12.2926C37.0795 12.2627 37.1035 12.2334 37.1295 12.2059C37.1422 12.1956 37.1555 12.1859 37.1693 12.177C37.193 12.1651 37.2169 12.1543 37.2417 12.1454C37.2881 12.1339 37.3341 12.1269 37.3804 12.1219C37.4355 12.1202 37.4886 12.1238 37.5419 12.1299C37.5851 12.1396 37.6261 12.1524 37.6664 12.1686C37.7781 12.2268 37.8723 12.3053 37.9642 12.386C38.0477 12.469 38.1221 12.5559 38.186 12.6532C38.2157 12.711 38.2423 12.7689 38.2651 12.8307C38.269 12.8413 38.2722 12.852 38.276 12.8627C38.2741 12.9089 38.2727 12.9543 38.273 13C38.274 13.0651 38.2812 13.1285 38.2897 13.192C38.3019 13.2852 38.3214 13.3764 38.3431 13.467C38.3241 13.6115 38.3007 13.7565 38.2668 13.901C38.2221 14.0869 38.172 14.2719 38.1196 14.4574C38.0696 14.6325 38.0157 14.8078 37.9605 14.9823C37.932 15.0722 37.9013 15.162 37.8767 15.2517C37.8505 15.3453 37.8265 15.4383 37.8031 15.532C37.6234 16.2616 37.5922 16.9907 37.5978 17.7072C37.6008 18.0502 37.6041 18.3918 37.6428 18.7277C37.6626 18.8975 37.6903 19.0643 37.7211 19.231C37.7411 19.338 37.7631 19.444 37.7915 19.5488C37.8142 19.6322 37.8486 19.7125 37.8799 19.7924C37.8853 19.8057 37.8911 19.8188 37.8963 19.8318C37.8082 19.7559 37.7173 19.6831 37.6193 19.6166C37.4965 19.533 37.3651 19.4539 37.22 19.3989C37.1657 19.3789 37.1117 19.3593 37.0545 19.3441C36.9756 19.3231 36.8895 19.3133 36.8051 19.3082C36.7169 19.3026 36.6235 19.3115 36.533 19.3232C36.4468 19.3351 36.3611 19.3612 36.2759 19.3853C36.1098 19.433 35.9453 19.4909 35.7891 19.5693C35.6468 19.6413 35.5149 19.7371 35.4151 19.8566C35.3711 19.9097 35.3359 19.9687 35.3005 20.0257C35.277 20.0623 35.2576 20.0996 35.237 20.1372C35.198 20.2082 35.1679 20.2852 35.1421 20.3584C35.1132 20.4411 35.0887 20.5226 35.0696 20.6056C35.0339 20.7639 35.0232 20.9245 35.0292 21.0789C35.0358 21.2416 35.0694 21.3981 35.1058 21.5531C35.1207 21.6152 35.143 21.6763 35.1655 21.7361C35.1944 21.8112 35.2266 21.8845 35.2604 21.9582C35.2886 22.0199 35.3233 22.0795 35.3568 22.1394C35.3968 22.2114 35.4387 22.2825 35.4799 22.3535C35.5576 22.4856 35.6391 22.6149 35.7216 22.7435C35.8034 22.8715 35.8878 22.9976 35.971 23.1246C36.0463 23.2395 36.1229 23.3534 36.2034 23.4646C36.2969 23.5943 36.3923 23.7222 36.4893 23.8495C36.5264 23.8987 36.5642 23.9479 36.603 23.9958C36.6483 24.0526 36.6927 24.1116 36.7431 24.1647C36.855 24.2827 36.9754 24.3919 37.105 24.4932C37.2239 24.5862 37.3467 24.6758 37.4703 24.7637C37.7087 24.9346 37.9526 25.0998 38.1761 25.2859C38.2031 25.3084 38.2301 25.3309 38.2569 25.353C38.4543 25.5337 38.6396 25.7248 38.8226 25.9181C39.0127 26.1192 39.187 26.3329 39.3618 26.5462C39.5342 26.7574 39.7091 26.9675 39.8715 27.1865C39.9616 27.3079 40.0512 27.4303 40.1421 27.5517C40.1904 27.6165 40.2384 27.6816 40.2848 27.7473C40.3206 27.7974 40.3502 27.8516 40.3814 27.9045C40.385 27.9105 40.3887 27.9176 40.3925 27.924C40.4003 27.9378 40.4078 27.9512 40.4155 27.965C40.4355 27.9889 40.4622 28.0067 40.4947 28.0166C40.5422 28.0308 40.5979 28.0265 40.6481 28.0046C40.752 27.9599 40.8187 27.844 40.7826 27.7557C40.7198 27.6025 40.6427 27.457 40.5502 27.3201C40.4597 27.1849 40.3643 27.0527 40.2684 26.9209C40.1018 26.6908 39.9189 26.4716 39.7413 26.2489C39.6427 26.1255 39.5439 26.0018 39.4434 25.8793C39.3508 25.7667 39.2522 25.6584 39.1516 25.5517C38.9402 25.3277 38.7174 25.1104 38.4757 24.9127C38.0671 24.5786 37.5975 24.3078 37.2001 23.9623C37.0607 23.8238 36.9328 23.6758 36.8091 23.5248C36.6811 23.3692 36.5561 23.2106 36.4414 23.0454C36.267 22.7956 36.0979 22.5431 35.9363 22.2856C35.9776 22.2821 36.0187 22.2765 36.0604 22.2684C36.1381 22.2535 36.2188 22.2273 36.2931 22.1938C36.4094 22.1418 36.5149 22.0738 36.6109 21.9917C36.7366 21.8841 36.8457 21.7627 36.9519 21.6402C36.9985 21.5869 37.0409 21.5318 37.0853 21.4774C37.1334 21.4193 37.1822 21.3611 37.2298 21.3023C37.3315 21.176 37.4302 21.0476 37.506 20.9094C37.5534 20.8235 37.5951 20.7382 37.6258 20.6484C37.6468 20.5878 37.6489 20.5257 37.648 20.4659C37.6471 20.4109 37.6329 20.3564 37.6128 20.3073C37.5854 20.2407 37.5461 20.1796 37.5078 20.1189C37.4807 20.077 37.4516 20.036 37.4219 19.996C37.4722 20.0346 37.522 20.0734 37.5704 20.1139C37.6707 20.2058 37.7671 20.3005 37.8602 20.3987C37.9635 20.5078 38.0563 20.6257 38.1475 20.7442C38.2365 20.8583 38.3209 20.9752 38.4082 21.0906C38.4936 21.2036 38.5848 21.3129 38.677 21.4209C38.769 21.5285 38.8638 21.633 38.9628 21.7351C39.0226 21.7964 39.0875 21.853 39.1515 21.9102C39.2055 21.9584 39.2595 22.0067 39.3169 22.0515C39.4356 22.1435 39.5549 22.2345 39.6828 22.3161C39.8189 22.4035 39.9576 22.4875 40.0972 22.5708C40.3492 22.7216 40.6119 22.858 40.8766 22.9926C41.0297 23.0699 41.182 23.1472 41.3404 23.2168C41.4825 23.2789 41.6317 23.3288 41.7819 23.3774C41.9325 23.4257 42.0854 23.4675 42.2423 23.5026C42.3936 23.5374 42.5493 23.5626 42.7026 23.5923C43.0044 23.6517 43.3054 23.7177 43.5963 23.8008C43.8863 23.8834 44.1753 23.9673 44.462 24.0561C44.7488 24.1448 45.0245 24.2535 45.2933 24.3721C45.3788 24.4131 45.463 24.4557 45.5446 24.5012C45.6443 24.5562 45.7401 24.6157 45.8363 24.6749C46.0132 24.7841 46.1717 24.9136 46.3325 25.0399C46.4888 25.1624 46.6478 25.2824 46.8057 25.4043C46.9595 25.5237 47.1155 25.6416 47.2627 25.768C47.3139 25.8178 47.366 25.8669 47.412 25.9204C47.4647 25.9821 47.5166 26.0437 47.568 26.1063C47.6672 26.2255 47.7653 26.3449 47.8628 26.4653C48.0555 26.705 48.2507 26.9435 48.41 27.2058C48.4532 27.2868 48.4929 27.3687 48.526 27.4548C48.5557 27.531 48.5755 27.6101 48.5925 27.6906C48.636 27.9837 48.643 28.288 48.6171 28.5936C48.6005 28.731 48.5732 28.8686 48.5552 29.0059C48.5448 29.0821 48.5362 29.158 48.5327 29.2335C48.5291 29.3171 48.5304 29.3994 48.5328 29.4813C48.5376 29.6183 48.5531 29.7533 48.5639 29.8892C48.5758 30.0324 48.5893 30.1759 48.6037 30.3188C48.6348 30.6193 48.6829 30.9154 48.7045 31.2184C48.7147 31.3612 48.7203 31.5051 48.725 31.6486C48.7304 31.7997 48.7362 31.9505 48.7357 32.1026C48.7337 32.4076 48.7216 32.7135 48.7174 33.019C48.712 33.3281 48.7007 33.6383 48.7052 33.9461C48.7098 34.2625 48.7226 34.5773 48.7327 34.893C48.7424 35.1922 48.7428 35.4933 48.7307 35.7959C48.7174 36.1221 48.6884 36.4499 48.6573 36.7777L48.6574 36.776C48.5971 37.4037 48.5327 38.0321 48.4993 38.6576C48.4824 38.9794 48.4721 39.3001 48.4589 39.6214C48.446 39.9289 48.4295 40.2368 48.424 40.5433C48.4176 40.857 48.4064 41.1707 48.4045 41.4833C48.4028 41.7994 48.4074 42.1142 48.4146 42.4287C48.4218 42.7492 48.4336 43.0695 48.4384 43.3912C48.4432 43.7011 48.4385 44.0128 48.4547 44.3208C48.473 44.6759 48.5105 45.0263 48.5571 45.3753C48.5637 45.4246 48.6056 45.4595 48.6655 45.4478C48.7193 45.4379 48.7723 45.3848 48.7657 45.3356Z" fill="#16A4C3"/>
<path d="M63.0937 21.7848C63.2598 21.6754 63.4119 21.5514 63.5586 21.4231C63.6623 21.3261 63.7616 21.227 63.8564 21.1225C63.8785 21.0986 63.8995 21.0744 63.9216 21.0504C63.9554 20.9659 63.9899 20.8813 64.0178 20.7947C64.0475 20.7017 64.073 20.609 64.095 20.5137C64.1209 20.3667 64.1373 20.2171 64.156 20.0681C64.176 19.9157 64.1984 19.7646 64.2103 19.6106C64.2218 19.4586 64.2372 19.3077 64.2583 19.1583C64.2795 19.0111 64.2942 18.8619 64.3188 18.7156C64.3455 18.5567 64.3789 18.3995 64.4067 18.2409C64.4332 18.0857 64.4569 17.9296 64.4867 17.7751C64.5159 17.6257 64.5346 17.4734 64.5478 17.3193C64.561 17.1653 64.5742 17.0112 64.5856 16.8569C64.5924 16.762 64.5928 16.6666 64.5933 16.5703C64.5929 16.475 64.5922 16.3793 64.5869 16.2826C64.5782 16.2152 64.5662 16.1477 64.5465 16.0805C64.5224 15.9986 64.4965 15.9172 64.4695 15.8355C64.4176 15.6795 64.3634 15.5239 64.3111 15.3677C64.2601 15.2156 64.2166 15.0636 64.1782 14.9103C64.1591 14.8348 64.143 14.7589 64.1284 14.6829C64.1114 14.5939 64.1031 14.5042 64.0971 14.415C64.0903 14.3101 64.0902 14.2052 64.0932 14.1016C64.0965 13.9841 64.1164 13.8705 64.139 13.7578C64.1598 13.6557 64.1838 13.5538 64.2088 13.4532C64.2326 13.3608 64.2603 13.2696 64.2812 13.1757C64.2882 13.1327 64.2938 13.0887 64.2988 13.0448C64.3011 13.0076 64.3052 12.9706 64.3091 12.933C64.3139 12.8657 64.3158 12.7979 64.3138 12.729C64.3116 12.6544 64.3057 12.5794 64.3038 12.5045C64.3017 12.4215 64.3019 12.3389 64.3041 12.2563C64.3085 12.1023 64.3209 11.9493 64.3367 11.7971C64.353 11.6426 64.3904 11.4948 64.4236 11.3455C64.4293 11.3216 64.4348 11.298 64.4399 11.2741C64.456 11.1887 64.4694 11.1033 64.4794 11.0171C64.4655 11.0275 64.4507 11.0373 64.4373 11.0481C64.3823 11.1 64.3339 11.1556 64.2939 11.2184C64.2347 11.3309 64.2029 11.4542 64.1751 11.5793C64.1591 11.6746 64.1473 11.7697 64.1479 11.869C64.1489 11.9686 64.1556 12.0685 64.1592 12.1683C64.1623 12.2619 64.1647 12.3555 64.1711 12.4492C64.1779 12.5492 64.1872 12.6494 64.1942 12.749C64.207 12.949 64.2084 13.1455 64.1868 13.3394C64.1645 13.5382 64.135 13.735 64.1022 13.9309C64.0769 14.0789 64.0499 14.2273 64.0359 14.3781C64.0208 14.5362 64.0152 14.6942 64.0267 14.8564C64.0494 15.0517 64.0821 15.2473 64.1067 15.4428C64.1345 15.6613 64.1502 15.8779 64.1603 16.0948C64.1697 16.3031 64.1833 16.5123 64.1774 16.7186C64.1713 16.926 64.1445 17.1295 64.1167 17.3319C64.0876 17.5441 64.0399 17.7509 63.9924 17.9573C63.9484 18.1527 63.9007 18.346 63.8482 18.5385C63.7958 18.7283 63.734 18.9146 63.6809 19.1045C63.6266 19.2968 63.5763 19.4898 63.5278 19.6841C63.428 20.0837 63.3198 20.481 63.183 20.8666C63.0498 21.2436 62.8934 21.6123 62.6867 21.9531C62.6598 21.9973 62.6324 22.0412 62.6051 22.085C62.7714 21.9888 62.9349 21.8893 63.0937 21.7848ZM64.4049 20.4644C64.4819 20.3669 64.5615 20.2719 64.6436 20.1781C64.5913 20.1326 64.5681 20.0655 64.5874 20.0082C64.6751 19.7462 64.7552 19.4809 64.8137 19.208C64.8407 19.0428 64.8698 18.8776 64.8922 18.7113C64.9155 18.5381 64.9314 18.3623 64.942 18.1863C64.9522 18.0133 64.9571 17.8392 64.9588 17.6649C64.9609 17.4995 64.9654 17.3343 64.9638 17.1684C64.9635 17.1536 64.964 17.1388 64.9637 17.124C64.9588 17.1636 64.9536 17.2036 64.9487 17.2433C64.9272 17.4059 64.904 17.5689 64.8696 17.7281C64.8361 17.8804 64.7987 18.0315 64.7672 18.1846C64.7692 18.1737 64.7711 18.1638 64.7734 18.1535C64.7708 18.1651 64.7683 18.1774 64.7664 18.1889C64.7428 18.3079 64.718 18.4276 64.6887 18.5452C64.6601 18.6621 64.6322 18.7796 64.6073 18.8977C64.579 19.0402 64.5495 19.1824 64.5197 19.325C64.5069 19.3945 64.4943 19.4647 64.4853 19.5355C64.4751 19.6145 64.4668 19.6943 64.4539 19.7724C64.4288 19.9227 64.399 20.0712 64.3727 20.2212C64.3507 20.35 64.328 20.4788 64.2957 20.6044C64.3323 20.5575 64.3682 20.5107 64.4049 20.4644ZM64.7346 15.1243C64.6581 14.8501 64.5797 14.5765 64.5075 14.3021C64.5097 14.3539 64.5125 14.4051 64.5166 14.4572C64.5506 14.7536 64.64 15.053 64.736 15.3468C64.7826 15.4882 64.8282 15.6293 64.8728 15.7708C64.8381 15.555 64.7941 15.3388 64.7346 15.1243ZM64.774 12.0062C64.8548 11.9223 64.9432 11.8417 65.0402 11.774C65.128 11.7135 65.2322 11.6687 65.3428 11.6438C65.4818 11.6124 65.6263 11.612 65.7768 11.6328C65.8068 11.6368 65.8363 11.6458 65.8658 11.6547C65.906 11.6672 65.9428 11.6788 65.9817 11.6947C66.019 11.7099 66.061 11.7344 66.0943 11.7554C66.1197 11.7711 66.1419 11.7873 66.1648 11.8061C66.2254 11.8555 66.2752 11.9116 66.3225 11.9708C66.3281 11.9782 66.3337 11.9855 66.3395 11.9935C66.3576 11.9888 66.3761 11.9844 66.3946 11.9817C66.395 11.9787 66.3952 11.9767 66.396 11.974C66.4061 11.9289 66.4169 11.8844 66.4363 11.8429C66.4465 11.8211 66.4578 11.7996 66.469 11.7781C66.4685 11.7712 66.4672 11.7643 66.467 11.7571C66.4623 11.6797 66.4633 11.6054 66.4715 11.5298C66.4747 11.5024 66.479 11.4752 66.4828 11.4478C66.4892 11.4022 66.4882 11.3555 66.4846 11.3087C66.4667 11.1839 66.4428 11.058 66.4017 10.9341C66.3823 10.8876 66.3591 10.8432 66.3316 10.7989C66.249 10.6843 66.161 10.5729 66.0562 10.4714C66.0104 10.4322 65.962 10.397 65.9098 10.365C65.8883 10.3537 65.8664 10.3422 65.8448 10.3302C65.793 10.3034 65.7387 10.2823 65.684 10.2642C65.6377 10.2517 65.5925 10.2437 65.5465 10.2383C65.4467 10.2339 65.3496 10.2438 65.2531 10.2547C65.1741 10.2692 65.0981 10.2874 65.0251 10.3171C64.9766 10.3418 64.9313 10.3699 64.8901 10.4032C64.8752 10.4183 64.8622 10.4342 64.8499 10.4512C64.8452 10.4629 64.8413 10.4752 64.8381 10.4875C64.8321 10.5436 64.8353 10.601 64.8396 10.6587C64.8779 10.6795 64.9086 10.7137 64.9183 10.7547C64.9312 10.8101 64.8999 10.8613 64.8467 10.8767C64.847 10.9099 64.8465 10.9424 64.8457 10.9753C64.8418 11.1313 64.8198 11.2844 64.7949 11.4353C64.7707 11.5777 64.7448 11.7198 64.7332 11.8659C64.7284 11.9315 64.7242 11.9971 64.7205 12.063C64.738 12.0438 64.7556 12.0247 64.774 12.0062ZM65.7104 20.2833C65.6897 20.3223 65.6713 20.3619 65.6598 20.4054C65.6558 20.4322 65.6535 20.4586 65.6538 20.4858C65.658 20.5067 65.6632 20.5272 65.6699 20.5483C65.714 20.6559 65.7745 20.7593 65.8386 20.8615C65.9427 21.0084 66.0599 21.1475 66.1755 21.2877C66.2918 21.4289 66.4131 21.5646 66.5463 21.6932C66.604 21.7437 66.6633 21.7906 66.7292 21.8309C66.7999 21.8688 66.8717 21.8993 66.9465 21.9245C67.0031 21.9386 67.0574 21.9488 67.1135 21.9551C67.1436 21.9558 67.1718 21.9553 67.201 21.9538C67.2119 21.9352 67.2232 21.917 67.2342 21.8985C67.2631 21.8477 67.2912 21.7962 67.3178 21.7448C67.3503 21.682 67.3795 21.6173 67.4092 21.553C67.4665 21.4277 67.5028 21.2921 67.5374 21.1579C67.5524 21.0797 67.568 21.0008 67.574 20.9203C67.5771 20.8686 67.5809 20.8178 67.5813 20.7652C67.5813 20.7182 67.5784 20.6713 67.5755 20.6238C67.568 20.5649 67.5589 20.5064 67.548 20.4477C67.5366 20.3854 67.5164 20.3238 67.497 20.2621C67.4793 20.2169 67.4607 20.1726 67.4402 20.1274C67.4127 20.0648 67.3748 20.0032 67.336 19.9437C67.3162 19.9169 67.2957 19.8918 67.273 19.8661C67.2312 19.8303 67.1882 19.7969 67.1412 19.766C67.1009 19.7443 67.0604 19.7246 67.0187 19.7073C66.9663 19.6855 66.9139 19.6679 66.8608 19.6504C66.7172 19.6077 66.5727 19.5686 66.4269 19.5513C66.3718 19.5496 66.3177 19.5518 66.2644 19.5563C66.1626 19.6795 66.0616 19.8034 65.964 19.929C65.875 20.0448 65.7872 20.1598 65.7104 20.2833ZM54.2343 45.2287C54.2738 44.9279 54.3075 44.6251 54.3157 44.3177C54.3204 44.1607 54.324 44.0035 54.3216 43.8451C54.3201 43.6825 54.3157 43.5199 54.3145 43.3576C54.3087 42.729 54.3247 42.1038 54.3134 41.4744C54.3078 41.1614 54.295 40.848 54.2859 40.5351C54.2768 40.2104 54.2612 39.8853 54.2434 39.5596C54.2262 39.25 54.2163 38.9414 54.1983 38.6319C54.1791 38.303 54.154 37.9736 54.125 37.6442C54.1186 37.5731 54.1118 37.5017 54.105 37.4303L54.1052 37.4326L54.1047 37.429C54.1035 37.4179 54.103 37.4067 54.1018 37.3956C54.1024 37.4025 54.1028 37.4087 54.1033 37.4156C54.04 36.7933 53.9597 36.1695 53.9302 35.5501C53.9017 34.9444 53.9614 34.3542 53.9622 33.7536C53.9633 33.4298 53.9545 33.1048 53.9453 32.7794C53.9368 32.4799 53.9206 32.1792 53.9107 31.8798C53.9059 31.7337 53.908 31.5883 53.9077 31.4434C53.9076 31.284 53.9081 31.1255 53.915 30.9674C53.9204 30.8239 53.9364 30.6816 53.9523 30.5402C53.9683 30.3936 53.9832 30.2467 53.9958 30.0993C54.0129 29.9043 54.0289 29.709 54.0438 29.5135C54.0509 29.4182 54.0582 29.3236 54.0609 29.2278C54.0635 29.1448 54.0602 29.0615 54.0536 28.9773C54.0353 28.837 54.0104 28.6964 53.9949 28.556C53.9807 28.4165 53.979 28.2792 53.9819 28.142C53.9883 27.8301 54.0227 27.5197 54.1143 27.2319C54.1581 27.093 54.2255 26.9653 54.2961 26.8395C54.369 26.7083 54.4563 26.5837 54.5455 26.4627C54.7267 26.2162 54.915 25.976 55.1028 25.7349C55.1481 25.6765 55.1938 25.6184 55.2399 25.5606C55.2415 25.5586 55.2429 25.5569 55.2446 25.5548C55.2903 25.4984 55.3421 25.4469 55.3927 25.3945C55.4499 25.3356 55.515 25.283 55.5777 25.2291C55.638 25.1773 55.701 25.128 55.7636 25.0785C55.9854 24.9003 56.2101 24.7244 56.4277 24.5422C56.5385 24.4498 56.6452 24.3534 56.7645 24.2699C56.8897 24.1816 57.0185 24.0964 57.1522 24.0179C57.4301 23.8536 57.7364 23.7239 58.0484 23.6098C58.3292 23.5074 58.6198 23.4231 58.9096 23.3382C59.0435 23.2988 59.1767 23.2578 59.3128 23.2232C59.4612 23.1852 59.6118 23.1504 59.7629 23.1175C59.9075 23.0859 60.0524 23.0556 60.1986 23.0279C60.3492 22.999 60.5026 22.9749 60.649 22.937C60.796 22.899 60.9415 22.8578 61.0843 22.8109C61.1859 22.7777 61.2845 22.7408 61.3827 22.7019C61.388 22.6685 61.4006 22.6361 61.4225 22.6082C61.4588 22.5617 61.499 22.5179 61.538 22.4739C61.5759 22.4323 61.6137 22.3906 61.6485 22.3468C61.7225 22.2536 61.7947 22.1586 61.8643 22.0617C61.9893 21.8873 62.105 21.7066 62.2132 21.5217C62.5863 20.8334 62.8345 20.0826 63.0403 19.3203C63.0853 19.1548 63.1331 18.9907 63.1828 18.827C63.2326 18.6622 63.2904 18.5001 63.3429 18.3362C63.3921 18.1813 63.4374 18.0246 63.4796 17.8667C63.5225 17.7045 63.5661 17.5423 63.6035 17.3777C63.6601 17.0861 63.7052 16.7877 63.7128 16.4844C63.7173 16.3218 63.7132 16.1573 63.712 15.9933C63.7103 15.8408 63.7054 15.6882 63.6931 15.5345C63.6705 15.3323 63.6394 15.1298 63.6151 14.928C63.6018 14.8151 63.5948 14.7037 63.595 14.5925C63.5954 14.4913 63.6058 14.3919 63.6166 14.2928C63.6378 14.097 63.6758 13.9048 63.7042 13.711C63.7314 13.5238 63.7535 13.3336 63.7663 13.1431C63.7802 12.942 63.7727 12.7388 63.7617 12.5332C63.7514 12.3393 63.7556 12.1485 63.7575 11.9565C63.7587 11.8575 63.7636 11.7616 63.7766 11.6657C63.7915 11.555 63.8243 11.4465 63.8619 11.3437C63.9058 11.2249 63.9598 11.1112 64.0388 11.0136C64.0639 10.9826 64.0908 10.9536 64.121 10.9264C64.1774 10.876 64.2369 10.8286 64.3022 10.7874C64.3541 10.7544 64.4112 10.7283 64.4684 10.7023C64.476 10.6987 64.4843 10.6961 64.4917 10.6928C64.4904 10.6692 64.4894 10.6452 64.4877 10.6213C64.4855 10.5879 64.4824 10.5548 64.4816 10.5213C64.4775 10.4265 64.4899 10.3339 64.54 10.2569C64.5484 10.2441 64.5578 10.2315 64.5675 10.2196C64.6749 10.087 64.8541 10.0135 65.0323 9.97064C65.1183 9.94999 65.2105 9.94027 65.3008 9.93128C65.3449 9.92716 65.3892 9.92369 65.4344 9.92248C65.5456 9.91789 65.6577 9.93397 65.7698 9.96681C65.9639 10.0236 66.1593 10.1207 66.3132 10.254C66.4304 10.3554 66.5334 10.4675 66.6261 10.5872C66.6603 10.6315 66.6918 10.6766 66.7235 10.7223C66.7609 10.7769 66.7863 10.837 66.8091 10.8962C66.8356 10.9652 66.8587 11.0349 66.879 11.1047C66.9164 11.234 66.9453 11.3646 66.9457 11.4934C66.9455 11.4987 66.9446 11.504 66.9444 11.5093C66.9913 11.5455 67.0251 11.5944 67.0372 11.6458C67.0508 11.7038 67.0353 11.7481 67.0064 11.793C66.9549 11.8717 66.9036 11.9511 66.8551 12.032C66.8379 12.0649 66.8205 12.0982 66.8038 12.1314C66.8593 12.1804 66.9134 12.2321 66.962 12.2863C67.0646 12.4014 67.1546 12.5262 67.2349 12.653C67.273 12.7126 67.3073 12.7727 67.3362 12.8352C67.3648 12.8965 67.39 12.9586 67.4155 13.0203C67.4699 13.1505 67.5269 13.28 67.5863 13.409C67.7163 13.692 67.81 13.9826 67.9041 14.2713C67.9866 14.523 68.0796 14.7726 68.173 15.0225C68.2536 15.2354 68.337 15.4473 68.4257 15.6586C68.476 15.7778 68.5274 15.8967 68.5784 16.0159C68.6292 16.1337 68.6785 16.2517 68.7336 16.3684C68.8448 16.6048 68.9558 16.8415 69.0635 17.078C69.1736 17.3199 69.2674 17.5652 69.3597 17.8106C69.3572 17.8044 69.3552 17.7986 69.3526 17.7925C69.4563 18.0676 69.5501 18.3431 69.6176 18.6217C69.653 18.7652 69.6688 18.9112 69.6878 19.054C69.7052 19.1845 69.7194 19.3147 69.7351 19.4449C69.7702 19.7367 69.8178 20.0305 69.8348 20.3211C69.8507 20.5946 69.8566 20.8678 69.8504 21.1383C69.8467 21.289 69.8395 21.4382 69.8301 21.5875C69.821 21.7364 69.8044 21.8837 69.7901 22.0316C69.7771 22.1685 69.7706 22.3059 69.7684 22.4447C69.7659 22.5779 69.7756 22.7129 69.7874 22.8479C69.8024 22.9922 69.819 23.1372 69.8322 23.2813C69.8448 23.4195 69.86 23.5585 69.8603 23.6959C69.8624 23.9637 69.8456 24.2281 69.8142 24.4894C69.7977 24.6265 69.7794 24.7633 69.7619 24.9008C69.7454 25.0287 69.7334 25.1577 69.7169 25.2856C69.701 25.4085 69.6805 25.5303 69.6601 25.6521C69.6363 25.7958 69.6054 25.9381 69.554 26.072C69.503 26.2056 69.4353 26.332 69.3537 26.4488C69.3199 26.4972 69.2836 26.5437 69.2437 26.5871C69.1894 26.6465 69.1275 26.6987 69.0655 26.7509C68.8559 26.9266 68.5818 27.0342 68.3238 27.1487C68.0559 27.268 67.7862 27.3843 67.5132 27.4955C67.2467 27.6038 66.9711 27.6964 66.6996 27.7957C66.5851 27.8372 66.4734 27.8836 66.3625 27.9315C66.1262 28.0462 65.8987 28.1726 65.666 28.292C65.4179 28.4186 65.1563 28.5267 64.8999 28.6418C64.5312 28.8158 64.1684 28.9984 63.7927 29.1625C63.4142 29.3277 63.0393 29.4983 62.6622 29.6651C62.5966 29.6958 62.532 29.7277 62.4684 29.7609C62.3921 29.8005 62.3218 29.8478 62.2507 29.8945C62.1265 29.9765 62.0124 30.0703 61.9014 30.1663C61.834 30.2286 61.7682 30.2921 61.7054 30.3588C61.6323 30.4364 61.5697 30.5238 61.5057 30.608C61.3815 30.7722 61.2649 30.9397 61.1607 31.1163C61.0999 31.2266 61.0437 31.3381 60.9958 31.4551C60.9415 31.5885 60.9003 31.7276 60.8578 31.8658C60.8185 31.9906 60.7855 32.1179 60.7548 32.2457C60.7224 32.3789 60.6886 32.5114 60.6589 32.6455C60.6138 32.8801 60.5851 33.1179 60.569 33.3595C60.5526 33.6048 60.5388 33.8502 60.5248 34.096C60.5192 34.2087 60.5119 34.3211 60.5102 34.4349C60.5076 34.554 60.5078 34.673 60.5014 34.7909C60.4947 34.92 60.4883 35.0488 60.485 35.1782C60.4817 35.3006 60.4879 35.4239 60.4964 35.5478C60.5108 35.6803 60.5306 35.813 60.5413 35.945C60.5525 36.0866 60.5607 36.2276 60.5671 36.3683C60.5738 36.5045 60.5794 36.6403 60.588 36.7767C60.596 36.9154 60.6073 37.0543 60.6197 37.1935C60.6619 37.579 60.6922 37.9656 60.761 38.3527C60.7961 38.5504 60.8373 38.7472 60.8873 38.945C60.9425 39.164 61.0013 39.3828 61.0568 39.6024C61.0723 39.6639 61.0265 39.7187 60.9607 39.7211C60.8924 39.7239 60.826 39.674 60.8104 39.6119C60.7328 39.3071 60.6392 39.0036 60.5591 38.6986C60.5235 38.5636 60.4953 38.4281 60.4719 38.2923C60.4471 38.15 60.4225 38.0073 60.4051 37.8651C60.3685 37.5668 60.3337 37.2688 60.3039 36.9706C60.2753 36.6884 60.2652 36.4077 60.2454 36.1265C60.2407 36.0567 60.234 35.987 60.2275 35.9169C60.2088 35.7737 60.1859 35.6307 60.1723 35.4879C60.1588 35.3474 60.1529 35.2086 60.1551 35.0698C60.1573 34.9369 60.1643 34.8048 60.1704 34.6731C60.1762 34.5483 60.172 34.4225 60.1749 34.2972C60.1783 34.1679 60.1845 34.0384 60.1883 33.9094C60.1918 33.7867 60.1936 33.6643 60.1965 33.5416C60.1993 33.407 60.1974 33.2717 60.2 33.1374C60.2037 33.0002 60.2125 32.8651 60.228 32.73C60.2487 32.5457 60.2847 32.3661 60.3221 32.1864C60.3714 31.9365 60.4234 31.6875 60.4986 31.446C60.5366 31.3235 60.5762 31.2016 60.6297 31.0859C60.6904 30.9556 60.7617 30.8313 60.8351 30.708C60.9004 30.5971 60.9767 30.4927 61.053 30.3893C61.1325 30.2818 61.2151 30.1765 61.3019 30.0743C61.3905 29.9691 61.497 29.8763 61.601 29.7839C61.7042 29.6935 61.812 29.6098 61.924 29.5286C62.0752 29.4192 62.2457 29.3313 62.421 29.2517C62.5964 29.1728 62.7724 29.0949 62.9472 29.015C62.9447 29.0164 62.9415 29.0179 62.9386 29.019C63.2066 28.8971 63.4764 28.7788 63.7456 28.6589C63.9722 28.5545 64.1954 28.4461 64.4209 28.3398C64.6747 28.2195 64.9372 28.112 65.1969 28.0004C65.304 27.9512 65.4102 27.9015 65.5146 27.8482C65.6469 27.7806 65.7787 27.7127 65.9119 27.6464C66.179 27.5131 66.4652 27.4099 66.7544 27.3115C67.2954 27.1271 67.8133 26.9049 68.3247 26.6731C68.3334 26.6691 68.3425 26.6654 68.3511 26.6614C68.4451 26.6168 68.5403 26.5715 68.626 26.516C68.6737 26.4848 68.7202 26.4526 68.7658 26.4198C68.795 26.3989 68.8212 26.3758 68.8473 26.3527C68.8877 26.3096 68.9257 26.2659 68.9626 26.2204C68.9936 26.1829 69.0189 26.1408 69.0439 26.099C69.075 26.0379 69.1052 25.9771 69.1281 25.9128C69.1508 25.8477 69.1688 25.7819 69.1839 25.7145C69.2147 25.516 69.2371 25.3146 69.2581 25.1139C69.2685 25.0129 69.2769 24.9109 69.2907 24.8108C69.3052 24.7014 69.3208 24.5923 69.3364 24.4831C69.366 24.2761 69.3909 24.069 69.4077 23.8592C69.4246 23.6511 69.4132 23.4392 69.3952 23.2263C69.3663 22.9514 69.3253 22.6753 69.3119 22.4021C69.2983 22.1351 69.3321 21.8766 69.353 21.6157C69.3746 21.3506 69.3864 21.0831 69.3868 20.8139C69.387 20.5516 69.384 20.2891 69.3623 20.0237C69.344 19.8565 69.3218 19.6891 69.3014 19.522C69.2797 19.348 69.2596 19.1746 69.2352 19.0007C69.2115 18.8301 69.1813 18.6591 69.1311 18.4893C69.0829 18.3246 69.0267 18.1606 68.967 17.9974C68.8687 17.7401 68.7666 17.4824 68.6452 17.23C68.5149 16.9593 68.3771 16.6911 68.2462 16.4211C68.12 16.1604 68.0046 15.8956 67.8979 15.6301C67.7889 15.3608 67.692 15.09 67.5946 14.8189C67.5313 14.64 67.4703 14.4618 67.4153 14.2819C67.3566 14.0907 67.2962 13.9 67.2289 13.7101C67.1912 13.6157 67.1493 13.5221 67.1108 13.4277C67.0648 13.3165 67.0233 13.2048 66.9817 13.0925C66.954 13.02 66.925 12.9475 66.8894 12.8764C66.8568 12.81 66.8131 12.7464 66.7706 12.6831C66.7094 12.5982 66.6443 12.5157 66.573 12.4375C66.6226 12.5534 66.6681 12.6702 66.7094 12.7872C66.7684 12.9537 66.8154 13.1223 66.8592 13.2908C66.9046 13.4632 66.9474 13.6363 66.9738 13.8094C67.0012 13.9897 67.0205 14.169 67.0385 14.3484C67.0747 14.7026 67.1367 15.0577 67.2034 15.4129C67.2296 15.5535 67.2574 15.6947 67.301 15.8349C67.3446 15.9741 67.3913 16.1122 67.4411 16.2505C67.5068 16.4197 67.5791 16.5873 67.6593 16.7536C67.7432 16.928 67.8378 17.0993 67.9214 17.274C68.0939 17.6337 68.2107 18.0043 68.2863 18.3763C68.3301 18.5917 68.369 18.8074 68.4022 19.0233C68.4378 19.2523 68.4624 19.4797 68.4844 19.7079C68.5214 20.0686 68.5668 20.43 68.6024 20.7908C68.638 21.1542 68.6411 21.514 68.6676 21.8768C68.6771 22.0079 68.6879 22.1389 68.6988 22.2699C68.7162 22.4365 68.7336 22.6031 68.751 22.7697C68.77 22.9504 68.7852 23.1315 68.8148 23.3124C68.8457 23.4969 68.8762 23.6817 68.9162 23.8657C68.9552 24.0469 68.9928 24.2281 69.0452 24.4077C69.0726 24.5016 69.1 24.5945 69.1279 24.6877C69.1446 24.7435 69.0989 24.7924 69.0409 24.7951C68.9779 24.7974 68.923 24.7527 68.9056 24.6968C68.8479 24.5053 68.7889 24.3128 68.7432 24.1197C68.6968 23.9234 68.6506 23.7268 68.6063 23.5304C68.5272 23.178 68.4834 22.8248 68.4352 22.4728C68.4031 22.2345 68.3724 21.9961 68.3489 21.7581C68.3242 21.5123 68.3042 21.2666 68.2832 21.0212C68.2462 20.6638 68.1892 20.3059 68.1422 19.9482C68.1182 19.7687 68.101 19.5893 68.0756 19.4099C68.0495 19.2229 68.0173 19.0359 67.9816 18.849C67.9484 18.6759 67.9075 18.503 67.8662 18.3298C67.8262 18.1609 67.7728 17.9941 67.7132 17.8276C67.68 17.7452 67.6454 17.6628 67.6095 17.5811C67.5701 17.492 67.5212 17.4046 67.4751 17.3171C67.3858 17.1485 67.2822 16.9842 67.1918 16.8154C67.0979 16.6407 67.02 16.4615 66.9494 16.2817C66.9079 16.1759 66.8693 16.069 66.8318 15.9624C66.803 15.8821 66.7763 15.8 66.756 15.7193C66.7229 15.5873 66.699 15.4554 66.6748 15.3233C66.6536 15.2058 66.6317 15.0884 66.6141 14.9708C66.5953 14.8437 66.5766 14.7173 66.56 14.5907C66.5434 14.4593 66.5316 14.3286 66.5196 14.1973C66.5059 14.0588 66.4893 13.9198 66.4654 13.7804C66.4431 13.6443 66.4097 13.5082 66.3744 13.373C66.3387 13.2341 66.3012 13.0956 66.2599 12.9576C66.2234 12.8339 66.1792 12.7104 66.1337 12.5877C66.0806 12.4509 66.0238 12.3145 65.9431 12.1857C65.9205 12.1557 65.8965 12.1265 65.8705 12.099C65.8578 12.0886 65.8445 12.079 65.8307 12.07C65.807 12.0582 65.7831 12.0473 65.7583 12.0385C65.7119 12.0269 65.6659 12.02 65.6196 12.015C65.5645 12.0133 65.5114 12.0168 65.4581 12.023C65.4149 12.0326 65.3739 12.0455 65.3336 12.0616C65.2219 12.1198 65.1277 12.1983 65.0358 12.2791C64.9523 12.362 64.8779 12.4489 64.814 12.5463C64.7843 12.604 64.7577 12.662 64.7349 12.7237C64.731 12.7344 64.7278 12.7451 64.724 12.7557C64.7259 12.802 64.7273 12.8473 64.727 12.893C64.726 12.9581 64.7188 13.0216 64.7103 13.085C64.6981 13.1782 64.6786 13.2694 64.6569 13.3601C64.6759 13.5046 64.6993 13.6496 64.7332 13.7941C64.7779 13.98 64.828 14.1649 64.8804 14.3504C64.9304 14.5256 64.9843 14.7008 65.0395 14.8754C65.068 14.9653 65.0987 15.0551 65.1233 15.1448C65.1495 15.2384 65.1735 15.3314 65.1969 15.4251C65.3766 16.1547 65.4078 16.8838 65.4022 17.6003C65.3992 17.9432 65.3959 18.2849 65.3572 18.6208C65.3374 18.7906 65.3097 18.9574 65.2789 19.124C65.2589 19.231 65.2369 19.3371 65.2085 19.4418C65.1858 19.5253 65.1514 19.6056 65.1201 19.6854C65.1147 19.6988 65.1089 19.7119 65.1037 19.7249C65.1918 19.649 65.2827 19.5762 65.3807 19.5097C65.5035 19.426 65.6349 19.347 65.78 19.292C65.8343 19.272 65.8883 19.2524 65.9455 19.2372C66.0244 19.2162 66.1105 19.2064 66.1949 19.2012C66.2831 19.1956 66.3765 19.2046 66.467 19.2163C66.5532 19.2282 66.6389 19.2542 66.7241 19.2783C66.8902 19.326 67.0547 19.384 67.2109 19.4624C67.3532 19.5344 67.4851 19.6302 67.5849 19.7497C67.6289 19.8027 67.6641 19.8618 67.6995 19.9188C67.723 19.9553 67.7424 19.9926 67.763 20.0303C67.802 20.1013 67.8321 20.1783 67.8579 20.2515C67.8868 20.3341 67.9113 20.4156 67.9304 20.4987C67.9661 20.6569 67.9768 20.8176 67.9708 20.972C67.9642 21.1346 67.9306 21.2912 67.8942 21.4462C67.8793 21.5083 67.857 21.5694 67.8345 21.6291C67.8056 21.7043 67.7734 21.7776 67.7396 21.8513C67.7114 21.913 67.6767 21.9726 67.6432 22.0325C67.6032 22.1045 67.5613 22.1756 67.5201 22.2466C67.4424 22.3787 67.3609 22.5079 67.2784 22.6366C67.1966 22.7646 67.1122 22.8906 67.029 23.0177C66.9537 23.1326 66.8771 23.2465 66.7966 23.3576C66.7031 23.4874 66.6077 23.6153 66.5107 23.7425C66.4736 23.7917 66.4358 23.8409 66.397 23.8889C66.3517 23.9457 66.3073 24.0047 66.2569 24.0577C66.145 24.1758 66.0246 24.2849 65.895 24.3863C65.7761 24.4793 65.6533 24.5688 65.5297 24.6568C65.2913 24.8277 65.0474 24.9929 64.8239 25.179C64.7969 25.2015 64.7699 25.2239 64.7431 25.2461C64.5457 25.4268 64.3604 25.6179 64.1774 25.8112C63.9873 26.0123 63.813 26.2259 63.6382 26.4393C63.4658 26.6505 63.2909 26.8605 63.1285 27.0796C63.0384 27.201 62.9488 27.3234 62.8579 27.4448C62.8096 27.5096 62.7616 27.5747 62.7152 27.6404C62.6794 27.6905 62.6498 27.7446 62.6186 27.7975C62.615 27.8036 62.6113 27.8106 62.6075 27.8171C62.5997 27.8308 62.5922 27.8443 62.5845 27.8581C62.5645 27.8819 62.5378 27.8998 62.5053 27.9097C62.4578 27.9238 62.4021 27.9195 62.3519 27.8976C62.248 27.8529 62.1813 27.737 62.2174 27.6488C62.2802 27.4956 62.3573 27.3501 62.4498 27.2131C62.5403 27.0779 62.6357 26.9458 62.7316 26.814C62.8982 26.5839 63.0811 26.3646 63.2587 26.142C63.3573 26.0186 63.4561 25.8949 63.5566 25.7724C63.6492 25.6597 63.7478 25.5515 63.8484 25.4448C64.0598 25.2207 64.2826 25.0034 64.5243 24.8058C64.9329 24.4717 65.4025 24.2008 65.7999 23.8554C65.9393 23.7168 66.0672 23.5689 66.1909 23.4178C66.3189 23.2623 66.4439 23.1036 66.5586 22.9385C66.733 22.6887 66.9021 22.4362 67.0637 22.1787C67.0224 22.1751 66.9813 22.1696 66.9396 22.1615C66.8619 22.1466 66.7812 22.1203 66.7069 22.0869C66.5906 22.0348 66.4851 21.9669 66.3891 21.8847C66.2634 21.7772 66.1543 21.6558 66.0481 21.5333C66.0015 21.48 65.9591 21.4249 65.9147 21.3705C65.8666 21.3123 65.8178 21.2542 65.7702 21.1953C65.6685 21.069 65.5698 20.9406 65.494 20.8024C65.4466 20.7166 65.4049 20.6312 65.3742 20.5414C65.3532 20.4808 65.3511 20.4188 65.352 20.3589C65.3529 20.304 65.3671 20.2495 65.3872 20.2004C65.4146 20.1338 65.4539 20.0727 65.4922 20.0119C65.5193 19.9701 65.5484 19.9291 65.5781 19.8891C65.5278 19.9276 65.478 19.9665 65.4296 20.007C65.3293 20.0989 65.2329 20.1936 65.1398 20.2918C65.0365 20.4009 64.9437 20.5188 64.8525 20.6373C64.7635 20.7514 64.6791 20.8683 64.5918 20.9837C64.5064 21.0966 64.4152 21.2059 64.323 21.3139C64.231 21.4216 64.1362 21.5261 64.0372 21.6282C63.9774 21.6895 63.9125 21.7461 63.8485 21.8033C63.7945 21.8515 63.7405 21.8998 63.6831 21.9445C63.5644 22.0365 63.4451 22.1276 63.3172 22.2091C63.1811 22.2966 63.0424 22.3806 62.9028 22.4639C62.6508 22.6147 62.3881 22.7511 62.1234 22.8856C61.9703 22.9629 61.818 23.0402 61.6596 23.1099C61.5175 23.172 61.3683 23.2219 61.2181 23.2705C61.0675 23.3188 60.9146 23.3606 60.7577 23.3956C60.6064 23.4305 60.4507 23.4557 60.2974 23.4853C59.9956 23.5448 59.6946 23.6108 59.4037 23.6938C59.1137 23.7765 58.8247 23.8604 58.538 23.9492C58.2512 24.0379 57.9755 24.1466 57.7067 24.2652C57.6212 24.3062 57.537 24.3488 57.4554 24.3942C57.3557 24.4493 57.2599 24.5088 57.1637 24.568C56.9868 24.6772 56.8283 24.8067 56.6675 24.933C56.5112 25.0555 56.3522 25.1754 56.1943 25.2973C56.0405 25.4168 55.8845 25.5347 55.7373 25.661C55.6861 25.7108 55.634 25.76 55.588 25.8135C55.5353 25.8752 55.4834 25.9368 55.432 25.9994C55.3328 26.1185 55.2347 26.238 55.1372 26.3584C54.9445 26.5981 54.7493 26.8366 54.59 27.0989C54.5468 27.1799 54.5071 27.2617 54.474 27.3479C54.4443 27.4241 54.4245 27.5031 54.4075 27.5837C54.364 27.8767 54.357 28.1811 54.3829 28.4867C54.3995 28.6241 54.4268 28.7617 54.4448 28.899C54.4552 28.9752 54.4638 29.0511 54.4673 29.1265C54.4709 29.2102 54.4696 29.2924 54.4672 29.3744C54.4624 29.5113 54.4469 29.6464 54.4361 29.7823C54.4242 29.9254 54.4107 30.069 54.3963 30.2119C54.3652 30.5123 54.3171 30.8085 54.2955 31.1115C54.2853 31.2542 54.2797 31.3981 54.275 31.5416C54.2696 31.6927 54.2638 31.8435 54.2643 31.9957C54.2663 32.3007 54.2784 32.6065 54.2826 32.9121C54.288 33.2212 54.2993 33.5313 54.2948 33.8392C54.2902 34.1556 54.2774 34.4704 54.2673 34.786C54.2576 35.0852 54.2572 35.3863 54.2693 35.6889C54.2826 36.0151 54.3116 36.343 54.3427 36.6707L54.3426 36.6691C54.4029 37.2967 54.4673 37.9252 54.5007 38.5507C54.5176 38.8725 54.5279 39.1932 54.5411 39.5144C54.554 39.8219 54.5705 40.1299 54.576 40.4364C54.5824 40.75 54.5936 41.0638 54.5955 41.3763C54.5972 41.6925 54.5926 42.0073 54.5854 42.3218C54.5782 42.6423 54.5664 42.9626 54.5616 43.2843C54.5568 43.5941 54.5615 43.9059 54.5453 44.2139C54.527 44.569 54.4895 44.9193 54.4429 45.2684C54.4363 45.3176 54.3944 45.3525 54.3345 45.3409C54.2807 45.3309 54.2277 45.2779 54.2343 45.2287Z" fill="#16A4C3"/>
<ellipse cx="49.5076" cy="14.9458" rx="4.15262" ry="3.9331" fill="#FA6900"/>
<ellipse cx="53.6599" cy="14.9458" rx="4.15262" ry="3.9331" fill="#FA6900"/>
<ellipse cx="51.5833" cy="11.0127" rx="4.15262" ry="3.9331" fill="#FA6900"/>
<ellipse cx="1.24334" cy="2.36502" rx="1.24334" ry="2.36502" transform="matrix(0.982704 -0.185184 0.205578 0.978641 43.3491 3.46582)" fill="#FA6900"/>
<ellipse cx="1.24334" cy="2.36502" rx="1.24334" ry="2.36502" transform="matrix(0.982704 -0.185184 0.205578 0.978641 46.5283 0.460449)" fill="#FA6900"/>
<ellipse cx="1.2428" cy="2.36616" rx="1.2428" ry="2.36616" transform="matrix(-0.978803 -0.204804 -0.22715 0.97386 59.9863 3.57666)" fill="#FA6900"/>
<ellipse cx="1.2428" cy="2.36616" rx="1.2428" ry="2.36616" transform="matrix(-0.978803 -0.204804 -0.22715 0.97386 56.875 0.508789)" fill="#FA6900"/>
<path d="M3.84 56.9956C3.44 56.9956 3.13 56.8856 2.91 56.6656C2.71 56.4256 2.61 56.1056 2.61 55.7056V36.8956C2.61 36.4756 2.72 36.1656 2.94 35.9656C3.16 35.7456 3.47 35.6356 3.87 35.6356H10.98C13.24 35.6356 14.98 36.1956 16.2 37.3156C17.42 38.4156 18.03 39.9756 18.03 41.9956C18.03 43.9956 17.42 45.5556 16.2 46.6756C14.98 47.7956 13.24 48.3556 10.98 48.3556H5.07V55.7056C5.07 56.1056 4.97 56.4256 4.77 56.6656C4.57 56.8856 4.26 56.9956 3.84 56.9956ZM5.07 46.2856H10.68C12.3 46.2856 13.52 45.9256 14.34 45.2056C15.18 44.4656 15.6 43.3956 15.6 41.9956C15.6 40.5756 15.18 39.5056 14.34 38.7856C13.52 38.0456 12.3 37.6756 10.68 37.6756H5.07V46.2856ZM22.9444 56.7856C22.5044 56.7856 22.1644 56.6756 21.9244 56.4556C21.7044 56.2156 21.5944 55.8756 21.5944 55.4356V36.9856C21.5944 36.5456 21.7044 36.2156 21.9244 35.9956C22.1644 35.7556 22.5044 35.6356 22.9444 35.6356H34.1044C34.4444 35.6356 34.7044 35.7256 34.8844 35.9056C35.0644 36.0856 35.1544 36.3356 35.1544 36.6556C35.1544 36.9956 35.0644 37.2556 34.8844 37.4356C34.7044 37.6156 34.4444 37.7056 34.1044 37.7056H23.9944V45.0256H33.4744C33.8144 45.0256 34.0744 45.1156 34.2544 45.2956C34.4344 45.4556 34.5244 45.7056 34.5244 46.0456C34.5244 46.3856 34.4344 46.6456 34.2544 46.8256C34.0744 47.0056 33.8144 47.0956 33.4744 47.0956H23.9944V54.7156H34.1044C34.4444 54.7156 34.7044 54.8056 34.8844 54.9856C35.0644 55.1656 35.1544 55.4156 35.1544 55.7356C35.1544 56.0756 35.0644 56.3356 34.8844 56.5156C34.7044 56.6956 34.4444 56.7856 34.1044 56.7856H22.9444ZM45.1238 56.9956C44.7438 56.9956 44.4438 56.8856 44.2238 56.6656C44.0038 56.4256 43.8938 56.1056 43.8938 55.7056V37.7656H37.1438C36.7838 37.7656 36.5038 37.6656 36.3038 37.4656C36.1038 37.2656 36.0037 37.0056 36.0037 36.6856C36.0037 36.3456 36.1038 36.0856 36.3038 35.9056C36.5038 35.7256 36.7838 35.6356 37.1438 35.6356H53.1338C53.4938 35.6356 53.7738 35.7256 53.9738 35.9056C54.1738 36.0856 54.2738 36.3456 54.2738 36.6856C54.2738 37.0256 54.1738 37.2956 53.9738 37.4956C53.7738 37.6756 53.4938 37.7656 53.1338 37.7656H46.3838V55.7056C46.3838 56.1056 46.2738 56.4256 46.0538 56.6656C45.8538 56.8856 45.5438 56.9956 45.1238 56.9956Z" fill="#FA6900"/>
<path d="M57.9806 56.9956C57.5806 56.9956 57.2706 56.8856 57.0506 56.6656C56.8506 56.4256 56.7506 56.1056 56.7506 55.7056V36.8956C56.7506 36.4756 56.8606 36.1656 57.0806 35.9656C57.3006 35.7456 57.6106 35.6356 58.0106 35.6356H65.1206C67.3806 35.6356 69.1206 36.1656 70.3406 37.2256C71.5606 38.2856 72.1706 39.7956 72.1706 41.7556C72.1706 42.9956 71.8906 44.0756 71.3306 44.9956C70.7906 45.8956 69.9906 46.5856 68.9306 47.0656C67.8706 47.5256 66.6006 47.7556 65.1206 47.7556L65.4206 47.3656H66.0206C66.8006 47.3656 67.4806 47.5656 68.0606 47.9656C68.6406 48.3656 69.1706 49.0056 69.6506 49.8856L72.5306 55.2556C72.6906 55.5356 72.7606 55.8156 72.7406 56.0956C72.7406 56.3556 72.6506 56.5756 72.4706 56.7556C72.2906 56.9156 72.0306 56.9956 71.6906 56.9956C71.3506 56.9956 71.0706 56.9156 70.8506 56.7556C70.6306 56.5956 70.4406 56.3656 70.2806 56.0656L67.0106 50.0056C66.5506 49.1456 66.0206 48.5756 65.4206 48.2956C64.8206 47.9956 64.0306 47.8456 63.0506 47.8456H59.2106V55.7056C59.2106 56.1056 59.1106 56.4256 58.9106 56.6656C58.7106 56.8856 58.4006 56.9956 57.9806 56.9956ZM59.2106 45.8956H64.7606C66.4006 45.8956 67.6406 45.5556 68.4806 44.8756C69.3206 44.1756 69.7406 43.1356 69.7406 41.7556C69.7406 40.4156 69.3206 39.4056 68.4806 38.7256C67.6406 38.0256 66.4006 37.6756 64.7606 37.6756H59.2106V45.8956ZM78.049 56.9956C77.649 56.9956 77.339 56.8856 77.119 56.6656C76.919 56.4256 76.819 56.1056 76.819 55.7056V36.7156C76.819 36.2956 76.919 35.9756 77.119 35.7556C77.339 35.5356 77.649 35.4256 78.049 35.4256C78.449 35.4256 78.749 35.5356 78.949 35.7556C79.169 35.9756 79.279 36.2956 79.279 36.7156V55.7056C79.279 56.1056 79.179 56.4256 78.979 56.6656C78.779 56.8856 78.469 56.9956 78.049 56.9956ZM84.2541 56.9956C83.9141 56.9956 83.6341 56.9056 83.4141 56.7256C83.2141 56.5456 83.0941 56.3256 83.0541 56.0656C83.0341 55.8056 83.1341 55.5456 83.3541 55.2856L90.6141 45.5056V46.4356L83.7741 37.1956C83.5541 36.8956 83.4541 36.6156 83.4741 36.3556C83.4941 36.0956 83.6041 35.8756 83.8041 35.6956C84.0241 35.5156 84.2841 35.4256 84.5841 35.4256C84.8641 35.4256 85.1041 35.4856 85.3041 35.6056C85.5041 35.7256 85.7141 35.9356 85.9341 36.2356L92.0841 44.6656H91.3041L97.4241 36.2356C97.6241 35.9356 97.8241 35.7256 98.0241 35.6056C98.2241 35.4856 98.4641 35.4256 98.7441 35.4256C99.0641 35.4256 99.3241 35.5156 99.5241 35.6956C99.7441 35.8556 99.8641 36.0756 99.8841 36.3556C99.9041 36.6156 99.8041 36.8956 99.5841 37.1956L92.7441 46.4356V45.5056L100.004 55.2856C100.204 55.5456 100.284 55.8056 100.244 56.0656C100.224 56.3256 100.114 56.5456 99.9141 56.7256C99.7141 56.9056 99.4441 56.9956 99.1041 56.9956C98.8441 56.9956 98.6041 56.9256 98.3841 56.7856C98.1841 56.6656 97.9741 56.4656 97.7541 56.1856L91.1841 47.2156H92.1441L85.5741 56.1856C85.3741 56.4656 85.1641 56.6656 84.9441 56.7856C84.7241 56.9256 84.4941 56.9956 84.2541 56.9956Z" fill="#16A4C3"/>
</svg>
