<svg width="1363" height="163" viewBox="0 0 1363 163" fill="none" xmlns="http://www.w3.org/2000/svg">
<path d="M0 15C0 6.71573 6.71573 0 15 0H37V163H15C6.71573 163 0 156.284 0 148V15Z" fill="#16A4C3"/>
<rect width="1097" height="163" transform="translate(37)" fill="#F0F0F0"/>
<path d="M101.906 53.9219L94.3945 51.2383V48.0859L104.602 52.375V54.6367L101.906 53.9219ZM94.3945 56.1719L101.918 53.4297L104.602 52.7852V55.0352L94.3945 59.3242V56.1719ZM119.543 54.918H115.195V52.1758H119.543C120.215 52.1758 120.762 52.0664 121.184 51.8477C121.605 51.6211 121.914 51.3086 122.109 50.9102C122.305 50.5117 122.402 50.0625 122.402 49.5625C122.402 49.0547 122.305 48.582 122.109 48.1445C121.914 47.707 121.605 47.3555 121.184 47.0898C120.762 46.8242 120.215 46.6914 119.543 46.6914H116.414V61H112.898V43.9375H119.543C120.879 43.9375 122.023 44.1797 122.977 44.6641C123.938 45.1406 124.672 45.8008 125.18 46.6445C125.688 47.4883 125.941 48.4531 125.941 49.5391C125.941 50.6406 125.688 51.5938 125.18 52.3984C124.672 53.2031 123.938 53.8242 122.977 54.2617C122.023 54.6992 120.879 54.918 119.543 54.918ZM139.816 58.2578V61H130.734V58.2578H139.816ZM131.883 43.9375V61H128.367V43.9375H131.883ZM138.633 50.8867V53.5586H130.734V50.8867H138.633ZM139.805 43.9375V46.6914H130.734V43.9375H139.805ZM149.73 43.9375V61H146.227V43.9375H149.73ZM154.98 43.9375V46.6914H141.059V43.9375H154.98ZM156.984 43.9375H163.348C164.652 43.9375 165.773 44.1328 166.711 44.5234C167.656 44.9141 168.383 45.4922 168.891 46.2578C169.398 47.0234 169.652 47.9648 169.652 49.082C169.652 49.9961 169.496 50.7812 169.184 51.4375C168.879 52.0859 168.445 52.6289 167.883 53.0664C167.328 53.4961 166.676 53.8398 165.926 54.0977L164.812 54.6836H159.281L159.258 51.9414H163.371C163.988 51.9414 164.5 51.832 164.906 51.6133C165.312 51.3945 165.617 51.0898 165.82 50.6992C166.031 50.3086 166.137 49.8555 166.137 49.3398C166.137 48.793 166.035 48.3203 165.832 47.9219C165.629 47.5234 165.32 47.2188 164.906 47.0078C164.492 46.7969 163.973 46.6914 163.348 46.6914H160.5V61H156.984V43.9375ZM166.523 61L162.633 53.3945L166.348 53.3711L170.285 60.8359V61H166.523ZM176.098 43.9375V61H172.594V43.9375H176.098ZM182.496 43.9375L185.707 49.8906L188.918 43.9375H192.938L187.98 52.3984L193.066 61H189.012L185.707 54.9297L182.402 61H178.324L183.422 52.3984L178.453 43.9375H182.496Z" fill="#888888"/>
<path d="M124.477 101.258V102.641C124.477 105.25 124.109 107.594 123.375 109.672C122.656 111.734 121.633 113.5 120.305 114.969C118.977 116.422 117.406 117.539 115.594 118.32C113.781 119.086 111.781 119.469 109.594 119.469C107.391 119.469 105.375 119.086 103.547 118.32C101.734 117.539 100.156 116.422 98.8125 114.969C97.4844 113.5 96.4531 111.734 95.7188 109.672C95 107.594 94.6406 105.25 94.6406 102.641V101.258C94.6406 98.6484 95 96.3047 95.7188 94.2266C96.4531 92.1484 97.4766 90.3828 98.7891 88.9297C100.117 87.4609 101.688 86.3438 103.5 85.5781C105.328 84.7969 107.344 84.4062 109.547 84.4062C111.734 84.4062 113.734 84.7969 115.547 85.5781C117.375 86.3438 118.953 87.4609 120.281 88.9297C121.609 90.3828 122.641 92.1484 123.375 94.2266C124.109 96.3047 124.477 98.6484 124.477 101.258ZM116.133 102.641V101.211C116.133 99.5234 115.984 98.0391 115.688 96.7578C115.406 95.4609 114.984 94.375 114.422 93.5C113.859 92.625 113.164 91.9688 112.336 91.5312C111.523 91.0781 110.594 90.8516 109.547 90.8516C108.453 90.8516 107.5 91.0781 106.688 91.5312C105.875 91.9688 105.195 92.625 104.648 93.5C104.102 94.375 103.688 95.4609 103.406 96.7578C103.141 98.0391 103.008 99.5234 103.008 101.211V102.641C103.008 104.312 103.141 105.797 103.406 107.094C103.688 108.375 104.102 109.461 104.648 110.352C105.211 111.242 105.898 111.914 106.711 112.367C107.539 112.82 108.5 113.047 109.594 113.047C110.641 113.047 111.57 112.82 112.383 112.367C113.195 111.914 113.875 111.242 114.422 110.352C114.984 109.461 115.406 108.375 115.688 107.094C115.984 105.797 116.133 104.312 116.133 102.641ZM136.336 98.5156V128.75H128.438V93.6406H135.797L136.336 98.5156ZM151.898 106.016V106.508C151.898 108.352 151.688 110.062 151.266 111.641C150.844 113.219 150.219 114.594 149.391 115.766C148.562 116.938 147.531 117.852 146.297 118.508C145.078 119.148 143.664 119.469 142.055 119.469C140.539 119.469 139.234 119.133 138.141 118.461C137.047 117.789 136.133 116.859 135.398 115.672C134.664 114.484 134.07 113.125 133.617 111.594C133.164 110.062 132.805 108.445 132.539 106.742V106.109C132.805 104.281 133.164 102.586 133.617 101.023C134.07 99.4453 134.664 98.0703 135.398 96.8984C136.133 95.7266 137.039 94.8125 138.117 94.1562C139.211 93.5 140.516 93.1719 142.031 93.1719C143.641 93.1719 145.055 93.4766 146.273 94.0859C147.508 94.6953 148.539 95.5703 149.367 96.7109C150.211 97.8359 150.844 99.1875 151.266 100.766C151.688 102.344 151.898 104.094 151.898 106.016ZM144 106.508V106.016C144 105.031 143.93 104.133 143.789 103.32C143.648 102.492 143.422 101.773 143.109 101.164C142.812 100.555 142.414 100.086 141.914 99.7578C141.414 99.4297 140.797 99.2656 140.062 99.2656C139.219 99.2656 138.508 99.3984 137.93 99.6641C137.367 99.9141 136.914 100.305 136.57 100.836C136.242 101.352 136.008 102 135.867 102.781C135.742 103.547 135.688 104.445 135.703 105.477V107.398C135.672 108.586 135.789 109.633 136.055 110.539C136.32 111.43 136.781 112.125 137.438 112.625C138.094 113.125 138.984 113.375 140.109 113.375C140.859 113.375 141.484 113.203 141.984 112.859C142.484 112.5 142.883 112.008 143.18 111.383C143.477 110.742 143.688 110.008 143.812 109.18C143.938 108.352 144 107.461 144 106.508ZM167.695 119.469C165.633 119.469 163.789 119.148 162.164 118.508C160.539 117.852 159.164 116.953 158.039 115.812C156.93 114.672 156.078 113.359 155.484 111.875C154.906 110.391 154.617 108.82 154.617 107.164V106.273C154.617 104.414 154.875 102.695 155.391 101.117C155.906 99.5234 156.672 98.1328 157.688 96.9453C158.703 95.7578 159.977 94.8359 161.508 94.1797C163.039 93.5078 164.82 93.1719 166.852 93.1719C168.648 93.1719 170.258 93.4609 171.68 94.0391C173.102 94.6172 174.305 95.4453 175.289 96.5234C176.289 97.6016 177.047 98.9062 177.562 100.438C178.094 101.969 178.359 103.688 178.359 105.594V108.805H157.641V103.859H170.648V103.25C170.664 102.406 170.516 101.688 170.203 101.094C169.906 100.5 169.469 100.047 168.891 99.7344C168.312 99.4219 167.609 99.2656 166.781 99.2656C165.922 99.2656 165.211 99.4531 164.648 99.8281C164.102 100.203 163.672 100.719 163.359 101.375C163.062 102.016 162.852 102.758 162.727 103.602C162.602 104.445 162.539 105.336 162.539 106.273V107.164C162.539 108.102 162.664 108.953 162.914 109.719C163.18 110.484 163.555 111.141 164.039 111.688C164.539 112.219 165.133 112.633 165.82 112.93C166.523 113.227 167.32 113.375 168.211 113.375C169.289 113.375 170.352 113.172 171.398 112.766C172.445 112.359 173.344 111.688 174.094 110.75L177.68 115.016C177.164 115.75 176.43 116.461 175.477 117.148C174.539 117.836 173.414 118.398 172.102 118.836C170.789 119.258 169.32 119.469 167.695 119.469ZM189.328 99.0547V119H181.43V93.6406H188.836L189.328 99.0547ZM188.391 105.453L186.539 105.5C186.539 103.562 186.773 101.836 187.242 100.32C187.711 98.7891 188.375 97.4922 189.234 96.4297C190.094 95.3672 191.117 94.5625 192.305 94.0156C193.508 93.4531 194.844 93.1719 196.312 93.1719C197.484 93.1719 198.555 93.3438 199.523 93.6875C200.508 94.0312 201.352 94.5859 202.055 95.3516C202.773 96.1172 203.32 97.1328 203.695 98.3984C204.086 99.6484 204.281 101.195 204.281 103.039V119H196.336V103.016C196.336 102 196.195 101.227 195.914 100.695C195.633 100.148 195.227 99.7734 194.695 99.5703C194.164 99.3672 193.516 99.2656 192.75 99.2656C191.938 99.2656 191.25 99.4219 190.688 99.7344C190.125 100.047 189.672 100.484 189.328 101.047C189 101.594 188.758 102.242 188.602 102.992C188.461 103.742 188.391 104.562 188.391 105.453ZM223.5 92.0469L215.18 119H206.344L218.883 84.875H224.484L223.5 92.0469ZM230.391 119L222.047 92.0469L220.969 84.875H226.641L239.25 119H230.391ZM230.062 106.273V112.625H212.555V106.273H230.062ZM250.5 84.875V119H242.297V84.875H250.5Z" fill="black"/>
<path d="M1134 0H1348C1356.28 0 1363 6.71573 1363 15V148C1363 156.284 1356.28 163 1348 163H1134V0Z" fill="#16A4C3"/>
<path d="M1242.88 25.5003C1231.13 25.5003 1220.69 33.3891 1217.05 45.0328C1213.31 45.8354 1209.78 47.458 1206.7 49.7926C1203.61 52.1272 1201.04 55.1204 1199.15 58.5728C1193.25 69.1925 1194.6 82.5429 1202.5 91.6453C1200.06 99.2693 1200.89 107.612 1204.79 114.516C1210.65 125.173 1222.43 130.635 1233.97 128.094C1236.49 131.065 1239.6 133.441 1243.07 135.063C1246.55 136.685 1250.32 137.515 1254.13 137.5C1265.88 137.5 1276.32 129.611 1279.96 117.967C1287.53 116.336 1294.04 111.405 1297.82 104.427C1303.75 93.8077 1302.41 80.4572 1294.51 71.3548V71.3172C1295.72 67.5487 1296.14 63.5556 1295.74 59.6049C1295.35 55.6542 1294.15 51.8371 1292.22 48.4088C1286.36 37.7891 1274.57 32.3261 1263.08 34.8674C1260.54 31.904 1257.43 29.5364 1253.94 27.9215C1250.46 26.3066 1246.69 25.4813 1242.88 25.5003ZM1242.88 32.783L1242.85 32.8206C1247.58 32.8206 1252.12 34.5274 1255.76 37.6762C1255.62 37.7515 1255.33 37.941 1255.11 38.0552L1233.71 50.9125C1232.62 51.5576 1231.97 52.7711 1231.97 54.0989V84.2887L1222.76 78.7517V53.7952C1222.76 48.2284 1224.88 42.8884 1228.65 38.9483C1232.42 35.0082 1237.54 32.7916 1242.88 32.783ZM1268.65 41.5722C1272.2 41.5651 1275.68 42.5338 1278.75 44.3803C1281.83 46.2269 1284.37 48.8858 1286.14 52.0884C1288.47 56.3365 1289.34 61.305 1288.54 66.1216C1288.4 66.0074 1288.11 65.8568 1287.93 65.7426L1266.53 52.8464C1265.99 52.5291 1265.39 52.3623 1264.77 52.3623C1264.15 52.3623 1263.54 52.5291 1263 52.8464L1237.93 67.9413V56.866L1258.64 44.3878C1261.68 42.5482 1265.14 41.5766 1268.65 41.5709V41.5722ZM1215.74 53.0359V79.5473C1215.74 80.8751 1216.39 82.0511 1217.49 82.7338L1242.52 97.791L1233.28 103.366L1212.61 90.925C1207.99 88.1348 1204.62 83.5484 1203.25 78.1725C1201.87 72.7966 1202.59 67.0705 1205.26 62.2511C1207.61 57.998 1211.32 54.7388 1215.74 53.0359ZM1263.69 59.5969L1284.4 72.0375C1294.04 77.8406 1297.31 90.6602 1291.75 100.711L1291.78 100.749C1289.42 104.997 1285.71 108.259 1281.3 109.928V83.4151C1281.3 82.0874 1280.65 80.8738 1279.56 80.2301L1254.49 65.1338L1263.69 59.5969ZM1248.48 68.7382L1259.04 75.1097V87.8151L1248.48 94.1866L1237.93 87.8151V75.1097L1248.48 68.7382ZM1265.08 78.7517L1274.28 84.2887V109.208C1274.28 120.814 1265.26 130.22 1254.16 130.22V130.182C1249.47 130.182 1244.88 128.475 1241.28 125.328C1241.43 125.253 1241.75 125.062 1241.94 124.948L1263.33 112.09C1264.42 111.445 1265.11 110.232 1265.07 108.904L1265.08 78.7517ZM1259.07 95.0602V106.134L1238.37 118.575C1228.73 124.34 1216.43 120.927 1210.86 110.913H1210.9C1208.53 106.703 1207.7 101.696 1208.5 96.8799C1208.64 96.9941 1208.93 97.1446 1209.12 97.2588L1230.51 110.155C1231.05 110.472 1231.65 110.639 1232.27 110.639C1232.89 110.639 1233.5 110.472 1234.04 110.155L1259.07 95.0602Z" fill="white"/>
</svg>
